{
.appVersion = "882";
DisplayStrings = (
4,
BCA,
HOHOHO,
a,
hon,
mn,
PROGRAMMER,
EtFOX,
You,
social,
A,
cbaZYSRP
);
classes = (
{
automatic = 1;
code = "A Aacute Abreve Abreveacute Abrevedotbelow Abrevegrave Abrevehookabove Abrevetilde Acaron Acircumflex Acircumflexacute Acircumflexdotbelow Acircumflexgrave Acircumflexhookabove Acircumflextilde Adieresis Adotbelow Agrave Ahookabove Amacron Aogonek Aring Atilde AE B Bdotbelow C Cacute Ccaron Ccedilla Cdotaccent D Eth Dcaron Dcroat Ddotbelow E Eacute Ecaron Ecircumflex Ecircumflexacute Ecircumflexdotbelow Ecircumflexgrave Ecircumflexhookabove Ecircumflextilde Edieresis Edotaccent Edotbelow Egrave Ehookabove Emacron Eogonek Etilde F G Gbreve Gcaron Gcommaaccent Gdotaccent H Hbar Hdotbelow I Iacute Icaron Icircumflex Idieresis Idotaccent Idotbelow Igrave Ihookabove Imacron Iogonek Itilde J K Kcommaaccent L Lacute Lcaron Lcommaaccent Lslash M N Nacute Ncaron Ncommaaccent Ntilde O Oacute Ocaron Ocircumflex Ocircumflexacute Ocircumflexdotbelow Ocircumflexgrave Ocircumflexhookabove Ocircumflextilde Odieresis Odotbelow Ograve Ohookabove Ohorn Ohornacute Ohorndotbelow Ohorngrave Ohornhookabove Ohorntilde Ohungarumlaut Omacron Oslash Otilde OE P Thorn Q R Racute Rcaron Rcommaaccent S Sacute Scaron Scedilla Scommaaccent Sdotbelow Schwa T Tbar Tcaron Tcedilla Tcommaaccent U Uacute Ucaron Ucircumflex Udieresis Udieresisacute Udieresiscaron Udieresisgrave Udieresismacron Udotbelow Ugrave Uhookabove Uhorn Uhornacute Uhorndotbelow Uhorngrave Uhornhookabove Uhorntilde Uhungarumlaut Umacron Uogonek Uring Utilde V W Wacute Wcircumflex Wdieresis Wgrave X Y Yacute Ycircumflex Ydieresis Ydotbelow Ygrave Yhookabove Ytilde Z Zacute Zcaron Zdotaccent Zdotbelow Cacute.loclPLK Nacute.loclPLK Oacute.loclPLK Sacute.loclPLK Zacute.loclPLK";
name = Uppercase;
},
{
code = "";
name = DevaIMatras;
}
);
copyright = "Copyright (c) 2015-2016, Simon Cozens (simon@simon-cozens.org)";
customParameters = (
{
name = fsType;
value = (
0
);
},
{

glyphs = (
{
glyphname = A;
lastChange = "2016-05-05 02:49:05 +0000";
layers = (
{
anchors = (
{
name = bottom;
position = "{212, 0}";
},
{
name = ogonek;
position = "{386, 10}";
},
{
name = top;
position = "{212, 680}";
}
);
layerId = "8E5E9D5F-1CFD-4F58-89B8-A9F3704C2D63";
paths = (
{
closed = 1;
nodes = (
"102 0 LINE",
"149 247 LINE",
"275 247 LINE",
"322 0 LINE",
"419 0 LINE",
"280 700 LINE",
"144 700 LINE",
"5 0 LINE"
);
},
{
closed = 1;
nodes = (
"214 604 LINE",
"265 357 LINE",
"163 357 LINE"
);
}
);
width = 424;
},
{
anchors = (
{
name = bottom;
position = "{198, 0}";
},
{
name = ogonek;
position = "{362, 10}";
},
{
name = top;
position = "{198, 695}";
}
);
layerId = "2009CD91-3BC4-40DB-AFF0-7394B85F3EFC";
paths = (
{
closed = 1;
nodes = (
"40 0 LINE",
"119 323 LINE",
"277 323 LINE",
"356 0 LINE",
"379 0 LINE",
"207 700 LINE",
"190 700 LINE",
"17 0 LINE"
);
},
{
closed = 1;
nodes = (
"198 633 LINE",
"275 345 LINE",
"125 345 LINE"
);
}
);
width = 396;
}
);
leftKerningGroup = A;
rightKerningGroup = A;
unicode = 0041;
},
{
color = 5;
glyphname = AE;
lastChange = "2016-04-28 04:35:39 +0000";
layers = (
{
anchors = (
{
name = bottom;
position = "{419, 0}";
},
{
name = top;
position = "{459, 700}";
}
);
components = (
{
name = E;
transform = "{1, 0, 0, 1, 304, 0}";
}
);
layerId = "8E5E9D5F-1CFD-4F58-89B8-A9F3704C2D63";
paths = (
{
closed = 1;
nodes = (
"100 0 LINE",
"204 247 LINE",
"354 247 LINE",
"354 0 LINE",
"419 0 LINE",
"442 700 LINE",
"306 700 LINE",
"5 0 LINE"
);
},
{
closed = 1;
nodes = (
"355 617 LINE",
"355 344 LINE",
"236 344 LINE"
);
}
);
width = 661;
},
{
anchors = (
{
name = bottom;
position = "{308, 0}";
},
{
name = top;
position = "{428, 700}";
}
);
components = (
{
name = E;
transform = "{1, 0, 0, 1, 290, 0}";
}
);
layerId = "2009CD91-3BC4-40DB-AFF0-7394B85F3EFC";
paths = (
{
closed = 1;
nodes = (
"97 0 LINE",
"189 257 LINE",
"333 257 LINE",
"333 0 LINE",
"382 0 LINE",
"382 700 LINE",
"294 700 LINE",
"30 0 LINE"
);
},
{
closed = 1;
nodes = (
"333 633 LINE",
"333 347 LINE",
"223 347 LINE"
);
}
);
width = 616;
}
);
leftMetricsKey = A;
rightMetricsKey = E;
unicode = 00C6;
},
{
glyphname = B;
lastChange = "2016-04-30 21:55:29 +0000";
layers = (
{
anchors = (
{
name = bottom;
position = "{204, 0}";
},
{
name = top;
position = "{204, 700}";
}
);
layerId = "8E5E9D5F-1CFD-4F58-89B8-A9F3704C2D63";
paths = (
{
closed = 1;
nodes = (
"42 6 OFFCURVE",
"48 0 OFFCURVE",
"57 0 CURVE SMOOTH",
"242 0 LINE SMOOTH",
"355 0 OFFCURVE",
"395 50 OFFCURVE",
"395 191 CURVE SMOOTH",
"395 278 OFFCURVE",
"376 323 OFFCURVE",
"325 336 CURVE",
"356 339 OFFCURVE",
"377 412 OFFCURVE",
"377 515 CURVE SMOOTH",
"377 641 OFFCURVE",
"331 700 OFFCURVE",
"234 700 CURVE SMOOTH",
"47 700 LINE SMOOTH",
"44 700 OFFCURVE",
"42 698 OFFCURVE",
"42 695 CURVE",
"42 15 LINE"
);
},
{
closed = 1;
nodes = (
"137 288 LINE",
"244 288 LINE SMOOTH",
"298 288 OFFCURVE",
"300 285 OFFCURVE",
"300 206 CURVE SMOOTH",
"300 101 OFFCURVE",
"297 97 OFFCURVE",
"231 97 CURVE",
"137 97 LINE"
);
},
{
closed = 1;
nodes = (
"137 603 LINE",
"226 603 LINE SMOOTH",
"280 603 OFFCURVE",
"282 600 OFFCURVE",
"282 520 CURVE SMOOTH",
"282 390 OFFCURVE",
"280 385 OFFCURVE",
"226 385 CURVE",
"137 385 LINE"
);
}
);
width = 415;
},
{
anchors = (
{
name = bottom;
position = "{189, 0}";
},
{
name = top;
position = "{189, 700}";
}
);
layerId = "2009CD91-3BC4-40DB-AFF0-7394B85F3EFC";
paths = (
{
closed = 1;
nodes = (
"60 6 OFFCURVE",
"66 0 OFFCURVE",
"75 0 CURVE SMOOTH",
"214 0 LINE SMOOTH",
"293 0 OFFCURVE",
"337 28 OFFCURVE",
"337 191 CURVE SMOOTH",
"337 286 OFFCURVE",
"289 336 OFFCURVE",
"251 336 CURVE",
"275 355 OFFCURVE",
"320 374 OFFCURVE",
"320 515 CURVE SMOOTH",
"320 663 OFFCURVE",
"274 700 OFFCURVE",
"216 700 CURVE SMOOTH",
"65 700 LINE SMOOTH",
"62 700 OFFCURVE",
"60 698 OFFCURVE",
"60 695 CURVE",
"60 15 LINE"
);
},
{
closed = 1;
nodes = (
"82 322 LINE",
"226 322 LINE SMOOTH",
"271 322 OFFCURVE",
"315 286 OFFCURVE",
"315 191 CURVE SMOOTH",
"315 51 OFFCURVE",
"272 23 OFFCURVE",
"213 23 CURVE",
"82 23 LINE"
);
},
{
closed = 1;
nodes = (
"82 677 LINE",
"208 677 LINE SMOOTH",
"256 677 OFFCURVE",
"298 651 OFFCURVE",
"298 521 CURVE SMOOTH",
"298 380 OFFCURVE",
"256 345 OFFCURVE",
"208 345 CURVE",
"82 345 LINE"
);
}
);
width = 367;
}
);
leftMetricsKey = H;
unicode = 0042;
},
{
glyphname = C;
lastChange = "2016-04-30 21:47:24 +0000";
layers = (
{
anchors = (
{
name = bottom;
position = "{169, 0}";
},
{
name = top;
position = "{173, 689}";
}
);
background = {
paths = (
{
closed = 1;
nodes = (
"28 391 OFFCURVE",
"27 344 OFFCURVE",
"27 181 CURVE SMOOTH",
"27 19 OFFCURVE",
"26 -4 OFFCURVE",
"181 -4 CURVE",
"320 -4 LINE",
"324 391 LINE",
"168 391 LINE"
);
},
{
closed = 1;
nodes = (
"251 292 LINE",
"251 165 LINE",
"251 85 LINE",
"180 85 LINE",
"124 85 OFFCURVE",
"124 103 OFFCURVE",
"124 174 CURVE SMOOTH",
"124 289 OFFCURVE",
"124 292 OFFCURVE",
"180 292 CURVE"
);
}
);
};
guideLines = (
{
position = "{141, 564}";
}
);
layerId = "8E5E9D5F-1CFD-4F58-89B8-A9F3704C2D63";
paths = (
{
closed = 1;
nodes = (
"312 700 LINE",
"221 707 LINE",
"66 707 OFFCURVE",
"35 643 OFFCURVE",
"35 350 CURVE SMOOTH",
"35 59 OFFCURVE",
"72 -8 OFFCURVE",
"233 -8 CURVE SMOOTH",
"264 -8 OFFCURVE",
"277 -5 OFFCURVE",
"312 0 CURVE",
"312 97 LINE",
"223 97 LINE",
"134 97 OFFCURVE",
"130 107 OFFCURVE",
"130 350 CURVE SMOOTH",
"130 593 OFFCURVE",
"134 603 OFFCURVE",
"223 603 CURVE SMOOTH",
"312 603 LINE"
);
}
);
width = 337;
},
{
anchors = (
{
name = bottom;
position = "{154, 0}";
},
{
name = top;
position = "{158, 689}";
}
);
layerId = "2009CD91-3BC4-40DB-AFF0-7394B85F3EFC";
paths = (
{
closed = 1;
nodes = (
"282 696 LINE",
"205 703 LINE",
"108 703 OFFCURVE",
"34 630 OFFCURVE",
"34 356 CURVE SMOOTH",
"34 69 OFFCURVE",
"111 -2 OFFCURVE",
"218 -2 CURVE SMOOTH",
"231 -2 OFFCURVE",
"254 0 OFFCURVE",
"282 4 CURVE",
"282 26 LINE",
"208 26 LINE SMOOTH",
"130 26 OFFCURVE",
"56 92 OFFCURVE",
"56 350 CURVE SMOOTH",
"56 604 OFFCURVE",
"130 674 OFFCURVE",
"208 674 CURVE SMOOTH",
"282 674 LINE"
);
}
);
width = 316;
}
);
unicode = 0043;
},
{
color = 5;
glyphname = D;
lastChange = "2016-05-05 02:51:22 +0000";
layers = (
{
anchors = (
{
name = bottom;
position = "{205, 0}";
},
{
name = center;
position = "{205, 350}";
},
{
name = top;
position = "{205, 696}";
}
);
layerId = "8E5E9D5F-1CFD-4F58-89B8-A9F3704C2D63";
paths = (
{
closed = 1;
nodes = (
"42 6 OFFCURVE",
"48 0 OFFCURVE",
"57 0 CURVE SMOOTH",
"210 0 LINE SMOOTH",
"349 0 OFFCURVE",
"398 87 OFFCURVE",
"398 331 CURVE SMOOTH",
"398 614 OFFCURVE",
"354 700 OFFCURVE",
"210 700 CURVE SMOOTH",
"47 700 LINE SMOOTH",
"44 700 OFFCURVE",
"42 698 OFFCURVE",
"42 695 CURVE SMOOTH",
"42 15 LINE SMOOTH"
);
},
{
closed = 1;
nodes = (
"137 599 LINE",
"197 599 LINE",
"287 599 OFFCURVE",
"303 559 OFFCURVE",
"303 334 CURVE SMOOTH",
"303 136 OFFCURVE",
"289 105 OFFCURVE",
"197 105 CURVE",
"137 105 LINE"
);
}
);
width = 430;
},
{
anchors = (
{
name = bottom;
position = "{169, 0}";
},
{
name = center;
position = "{169, 350}";
},
{
name = top;
position = "{169, 700}";
}
);
layerId = "2009CD91-3BC4-40DB-AFF0-7394B85F3EFC";
paths = (
{
closed = 1;
nodes = (
"60 -1 OFFCURVE",
"62 -2 OFFCURVE",
"65 -2 CURVE SMOOTH",
"143 -2 LINE SMOOTH",
"286 -2 OFFCURVE",
"306 41 OFFCURVE",
"306 330 CURVE SMOOTH",
"306 638 OFFCURVE",
"279 705 OFFCURVE",
"153 705 CURVE SMOOTH",
"65 705 LINE SMOOTH",
"62 705 OFFCURVE",
"60 703 OFFCURVE",
"60 700 CURVE SMOOTH",
"60 0 LINE SMOOTH"
);
},
{
closed = 1;
nodes = (
"83 682 LINE",
"139 682 LINE SMOOTH",
"257 682 OFFCURVE",
"275 644 OFFCURVE",
"283 333 CURVE SMOOTH",
"290 72 OFFCURVE",
"266 21 OFFCURVE",
"139 21 CURVE SMOOTH",
"83 21 LINE"
);
}
);
width = 351;
}
);
leftMetricsKey = H;
rightMetricsKey = O;
unicode = 0044;
},
{
glyphname = E;
lastChange = "2016-05-05 02:51:46 +0000";
layers = (
{
anchors = (
{
name = bottom;
position = "{171, 0}";
},
{
name = ogonek;
position = "{314, 10}";
},
{
name = top;
position = "{184, 693}";
},
{
name = topleft;
position = "{12, 700}";
}
);
layerId = "8E5E9D5F-1CFD-4F58-89B8-A9F3704C2D63";
paths = (
{
closed = 1;
nodes = (
"325 0 LINE",
"325 97 LINE",
"137 97 LINE",
"137 306 LINE",
"317 306 LINE",
"317 403 LINE",
"137 403 LINE",
"137 603 LINE",
"325 603 LINE",
"325 700 LINE",
"42 700 LINE",
"42 0 LINE"
);
}
);
width = 357;
},
{
anchors = (
{
name = bottom;
position = "{136, 0}";
},
{
name = ogonek;
position = "{266, 10}";
},
{
name = top;
position = "{165, 700}";
},
{
name = topleft;
position = "{-7, 700}";
}
);
layerId = "2009CD91-3BC4-40DB-AFF0-7394B85F3EFC";
paths = (
{
closed = 1;
nodes = (
"271 0 LINE",
"271 23 LINE",
"83 23 LINE",
"83 356 LINE",
"263 356 LINE",
"263 379 LINE",
"83 379 LINE",
"83 677 LINE",
"271 677 LINE",
"271 700 LINE",
"60 700 LINE",
"60 0 LINE"
);
}
);
width = 294;
}
);
leftKerningGroup = E;
leftMetricsKey = H;
rightKerningGroup = E;
unicode = 0045;
},
{
glyphname = F;
lastChange = "2016-04-30 21:44:41 +0000";
layers = (
{
anchors = (
{
name = bottom;
position = "{172, 0}";
},
{
name = top;
position = "{172, 700}";
}
);
layerId = "8E5E9D5F-1CFD-4F58-89B8-A9F3704C2D63";
paths = (
{
closed = 1;
nodes = (
"137 0 LINE",
"137 306 LINE",
"318 306 LINE",
"318 403 LINE",
"137 403 LINE",
"137 603 LINE",
"326 603 LINE",
"326 700 LINE",
"42 700 LINE",
"42 0 LINE"
);
}
);
width = 358;
},
{
anchors = (
{
name = bottom;
position = "{137, 0}";
},
{
name = top;
position = "{137, 700}";
}
);
layerId = "2009CD91-3BC4-40DB-AFF0-7394B85F3EFC";
paths = (
{
closed = 1;
nodes = (
"83 0 LINE",
"83 356 LINE",
"264 356 LINE",
"264 379 LINE",
"83 379 LINE",
"83 677 LINE",
"272 677 LINE",
"272 700 LINE",
"60 700 LINE",
"60 0 LINE"
);
}
);
width = 295;
}
);
leftMetricsKey = H;
rightMetricsKey = E;
unicode = 0046;
},
{
color = 5;
glyphname = G;
lastChange = "2016-05-05 02:53:01 +0000";
layers = (
{
anchors = (
{
name = bottom;
position = "{210, 0}";
},
{
name = top;
position = "{210, 700}";
}
);
background = {
paths = (
{
closed = 1;
nodes = (
"375 0 OFFCURVE",
"392 162 OFFCURVE",
"392 358 CURVE",
"392 554 OFFCURVE",
"376 716 OFFCURVE",
"206 716 CURVE SMOOTH",
"37 716 OFFCURVE",
"20 554 OFFCURVE",
"20 358 CURVE SMOOTH",
"20 162 OFFCURVE",
"36 0 OFFCURVE",
"206 0 CURVE SMOOTH"
);
},
{
closed = 1;
nodes = (
"119 105 OFFCURVE",
"119 172 OFFCURVE",
"119 358 CURVE SMOOTH",
"119 544 OFFCURVE",
"119 611 OFFCURVE",
"206 611 CURVE SMOOTH",
"293 611 OFFCURVE",
"293 544 OFFCURVE",
"293 358 CURVE SMOOTH",
"293 172 OFFCURVE",
"293 105 OFFCURVE",
"206 105 CURVE SMOOTH"
);
}
);
};
layerId = "8E5E9D5F-1CFD-4F58-89B8-A9F3704C2D63";
paths = (
{
closed = 1;
nodes = (
"32 72 OFFCURVE",
"74 -10 OFFCURVE",
"206 -10 CURVE SMOOTH",
"329 -10 OFFCURVE",
"389 62 OFFCURVE",
"389 201 CURVE SMOOTH",
"389 354 LINE",
"230 354 LINE",
"230 257 LINE",
"301 257 LINE",
"301 201 LINE",
"301 127 OFFCURVE",
"267 87 OFFCURVE",
"213 87 CURVE SMOOTH",
"147 87 OFFCURVE",
"126 148 OFFCURVE",
"126 354 CURVE",
"126 556 OFFCURVE",
"147 619 OFFCURVE",
"211 619 CURVE SMOOTH",
"264 619 OFFCURVE",
"294 577 OFFCURVE",
"294 497 CURVE",
"389 497 LINE",
"389 640 OFFCURVE",
"327 716 OFFCURVE",
"211 716 CURVE SMOOTH",
"79 716 OFFCURVE",
"32 618 OFFCURVE",
"32 337 CURVE SMOOTH"
);
}
);
width = 421;
},
{
anchors = (
{
name = bottom;
position = "{196, 0}";
},
{
name = top;
position = "{196, 700}";
}
);
background = {
paths = (
{
closed = 1;
nodes = (
"337 -3 OFFCURVE",
"353 133 OFFCURVE",
"353 351 CURVE SMOOTH",
"353 569 OFFCURVE",
"338 704 OFFCURVE",
"192 704 CURVE SMOOTH",
"47 704 OFFCURVE",
"31 569 OFFCURVE",
"31 351 CURVE SMOOTH",
"31 133 OFFCURVE",
"46 -3 OFFCURVE",
"192 -3 CURVE SMOOTH"
);
},
{
closed = 1;
nodes = (
"95 58 OFFCURVE",
"95 163 OFFCURVE",
"95 351 CURVE SMOOTH",
"95 539 OFFCURVE",
"95 643 OFFCURVE",
"192 643 CURVE SMOOTH",
"289 643 OFFCURVE",
"289 539 OFFCURVE",
"289 351 CURVE SMOOTH",
"289 163 OFFCURVE",
"289 58 OFFCURVE",
"192 58 CURVE SMOOTH"
);
}
);
};
layerId = "2009CD91-3BC4-40DB-AFF0-7394B85F3EFC";
paths = (
{
closed = 1;
nodes = (
"48 65 OFFCURVE",
"77 -3 OFFCURVE",
"188 -3 CURVE SMOOTH",
"328 -3 OFFCURVE",
"364 38 OFFCURVE",
"364 201 CURVE SMOOTH",
"364 339 LINE",
"278 339 LINE",
"277 316 LINE",
"341 316 LINE",
"342 201 LINE SMOOTH",
"344 57 OFFCURVE",
"315 20 OFFCURVE",
"198 20 CURVE SMOOTH",
"95 20 OFFCURVE",
"69 88 OFFCURVE",
"69 354 CURVE SMOOTH",
"69 628 OFFCURVE",
"90 681 OFFCURVE",
"198 681 CURVE SMOOTH",
"299 681 OFFCURVE",
"333 633 OFFCURVE",
"341 515 CURVE",
"363 515 LINE",
"357 650 OFFCURVE",
"319 704 OFFCURVE",
"198 704 CURVE SMOOTH",
"71 704 OFFCURVE",
"41 645 OFFCURVE",
"45 331 CURVE SMOOTH"
);
}
);
width = 409;
}
);
leftMetricsKey = O;
rightMetricsKey = O;
unicode = 0047;
},
{
glyphname = H;
lastChange = "2016-05-05 02:53:15 +0000";
layers = (
{
anchors = (
{
name = bottom;
position = "{234, 0}";
},
{
name = center;
position = "{234, 350}";
},
{
name = top;
position = "{234, 700}";
},
{
name = topleft;
position = "{12, 700}";
}
);
layerId = "8E5E9D5F-1CFD-4F58-89B8-A9F3704C2D63";
paths = (
{
closed = 1;
nodes = (
"139 0 LINE",
"139 321 LINE",
"327 321 LINE",
"327 0 LINE",
"424 0 LINE",
"424 700 LINE",
"327 700 LINE",
"327 418 LINE",
"139 418 LINE",
"139 700 LINE",
"42 700 LINE",
"42 0 LINE"
);
}
);
width = 466;
},
{
anchors = (
{
name = bottom;
position = "{216, 0}";
},
{
name = center;
position = "{216, 350}";
},
{
name = top;
position = "{216, 700}";
},
{
name = topleft;
position = "{60, 699}";
}
);
layerId = "2009CD91-3BC4-40DB-AFF0-7394B85F3EFC";
paths = (
{
closed = 1;
nodes = (
"86 0 LINE",
"86 357 LINE",
"345 357 LINE",
"345 0 LINE",
"370 0 LINE",
"370 700 LINE",
"345 700 LINE",
"345 382 LINE",
"86 382 LINE",
"86 700 LINE",
"60 700 LINE",
"60 0 LINE"
);
}
);
width = 430;
}
);
unicode = 0048;
},
{
glyphname = Hbar;
lastChange = "2016-04-28 04:35:39 +0000";
layers = (
{
components = (
{
name = H;
transform = "{1, 0, 0, 1, 63, 0}";
}
);
layerId = "8E5E9D5F-1CFD-4F58-89B8-A9F3704C2D63";
paths = (
{
closed = 1;
nodes = (
"42 553 LINE",
"566 553 LINE",
"566 630 LINE",
"42 630 LINE"
);
}
);
width = 608;
},
{
components = (
{
name = H;
transform = "{1, 0, 0, 1, 66, 0}";
}
);
layerId = "2009CD91-3BC4-40DB-AFF0-7394B85F3EFC";
paths = (
{
closed = 1;
nodes = (
"45 584 LINE",
"569 584 LINE",
"569 606 LINE",
"45 606 LINE"
);
}
);
width = 615;
}
);
leftMetricsKey = H;
rightMetricsKey = H;
unicode = 0126;
},
{
glyphname = I;
lastChange = "2016-04-28 04:35:39 +0000";
layers = (
{
anchors = (
{
name = bottom;
position = "{98, 0}";
},
{
name = ogonek;
position = "{154, 10}";
},
{
name = top;
position = "{97, 688}";
},
{
name = topleft;
position = "{20, 700}";
}
);
layerId = "8E5E9D5F-1CFD-4F58-89B8-A9F3704C2D63";
paths = (
{
closed = 1;
nodes = (
"145 0 LINE",
"145 700 LINE",
"50 700 LINE",
"50 0 LINE"
);
}
);
width = 195;
},
{
anchors = (
{
name = bottom;
position = "{49, 0}";
},
{
name = ogonek;
position = "{100, 10}";
},
{
name = top;
position = "{48, 688}";
},
{
name = topleft;
position = "{-29, 700}";
}
);
layerId = "2009CD91-3BC4-40DB-AFF0-7394B85F3EFC";
paths = (
{
closed = 1;
nodes = (
"63 0 LINE",
"63 698 LINE",
"35 698 LINE",
"35 0 LINE"
);
}
);
width = 123;
}
);
unicode = 0049;
},
{
glyphname = J;
lastChange = "2016-04-28 04:35:39 +0000";
layers = (
{
anchors = (
{
name = bottom;
position = "{141, 0}";
},
{
name = top;
position = "{141, 700}";
}
);
layerId = "8E5E9D5F-1CFD-4F58-89B8-A9F3704C2D63";
paths = (
{
closed = 1;
nodes = (
"50 0 LINE",
"195 0 OFFCURVE",
"230 31 OFFCURVE",
"230 158 CURVE SMOOTH",
"230 700 LINE",
"135 700 LINE",
"135 158 LINE SMOOTH",
"135 104 OFFCURVE",
"112 92 OFFCURVE",
"15 97 CURVE",
"15 0 LINE"
);
}
);
width = 272;
},
{
anchors = (
{
name = bottom;
position = "{35, 0}";
},
{
name = top;
position = "{35, 700}";
}
);
layerId = "2009CD91-3BC4-40DB-AFF0-7394B85F3EFC";
paths = (
{
closed = 1;
nodes = (
"34 0 LINE SMOOTH",
"110 0 OFFCURVE",
"110 43 OFFCURVE",
"110 106 CURVE SMOOTH",
"110 700 LINE",
"82 700 LINE",
"82 125 LINE SMOOTH",
"82 30 OFFCURVE",
"82 24 OFFCURVE",
"5 28 CURVE",
"5 0 LINE"
);
}
);
width = 170;
}
);
rightMetricsKey = H;
unicode = 004A;
},
{
glyphname = K;
lastChange = "2016-05-03 05:27:47 +0000";
layers = (
{
anchors = (
{
name = bottom;
position = "{230, 0}";
},
{
name = top;
position = "{230, 700}";
}
);
layerId = "8E5E9D5F-1CFD-4F58-89B8-A9F3704C2D63";
paths = (
{
closed = 1;
nodes = (
"137 0 LINE",
"137 297 LINE",
"330 0 LINE",
"445 0 LINE",
"224 344 LINE",
"437 700 LINE",
"322 700 LINE",
"137 391 LINE",
"137 700 LINE",
"42 700 LINE",
"42 0 LINE"
);
}
);
width = 450;
},
{
anchors = (
{
name = bottom;
position = "{154, 0}";
},
{
name = top;
position = "{154, 700}";
}
);
layerId = "2009CD91-3BC4-40DB-AFF0-7394B85F3EFC";
paths = (
{
closed = 1;
nodes = (
"83 0 LINE",
"83 332 LINE",
"377 0 LINE",
"403 0 LINE",
"99 344 LINE",
"366 700 LINE",
"339 700 LINE",
"83 364 LINE",
"83 700 LINE",
"60 700 LINE",
"60 0 LINE"
);
}
);
width = 408;
}
);
leftKerningGroup = Llike;
leftMetricsKey = H;
unicode = 004B;
},
{
glyphname = L;
lastChange = "2016-04-28 05:37:20 +0000";
layers = (
{
anchors = (
{
name = bottom;
position = "{161, 0}";
},
{
name = center;
position = "{161, 350}";
},
{
name = top;
position = "{133, 660}";
},
{
name = topright;
position = "{310, 700}";
}
);
layerId = "8E5E9D5F-1CFD-4F58-89B8-A9F3704C2D63";
paths = (
{
closed = 1;
nodes = (
"42 2 LINE",
"305 2 LINE",
"305 99 LINE",
"137 99 LINE",
"137 700 LINE",
"42 700 LINE"
);
}
);
width = 310;
},
{
anchors = (
{
name = bottom;
position = "{160, 0}";
},
{
name = center;
position = "{160, 350}";
},
{
name = top;
position = "{71, 670}";
},
{
name = topright;
position = "{309, 700}";
}
);
layerId = "2009CD91-3BC4-40DB-AFF0-7394B85F3EFC";
paths = (
{
closed = 1;
nodes = (
"60 0 LINE",
"304 0 LINE",
"304 28 LINE",
"88 28 LINE",
"88 700 LINE",
"60 700 LINE"
);
}
);
width = 304;
}
);
leftKerningGroup = Llike;
leftMetricsKey = H;
unicode = 004C;
},
{
glyphname = Lslash;
lastChange = "2016-04-28 04:35:39 +0000";
layers = (
{
components = (
{
name = L;
transform = "{1, 0, 0, 1, 37, 0}";
}
);
layerId = "8E5E9D5F-1CFD-4F58-89B8-A9F3704C2D63";
paths = (
{
closed = 1;
nodes = (
"42 358 LINE",
"42 253 LINE",
"267 401 LINE",
"267 506 LINE"
);
}
);
width = 347;
},
{
components = (
{
name = L;
transform = "{1, 0, 0, 1, 64, 0}";
}
);
layerId = "2009CD91-3BC4-40DB-AFF0-7394B85F3EFC";
paths = (
{
closed = 1;
nodes = (
"69 358 LINE",
"69 328 LINE",
"294 476 LINE",
"294 506 LINE"
);
}
);
width = 377;
}
);
leftMetricsKey = L;
rightMetricsKey = L;
unicode = 0141;
},
{
glyphname = M;
lastChange = "2016-04-30 06:14:55 +0000";
layers = (
{
anchors = (
{
name = bottom;
position = "{264, 0}";
},
{
name = top;
position = "{264, 700}";
}
);
layerId = "8E5E9D5F-1CFD-4F58-89B8-A9F3704C2D63";
paths = (
{
closed = 1;
nodes = (
"139 0 LINE",
"139 491 LINE",
"226 197 LINE",
"300 197 LINE",
"388 491 LINE",
"388 0 LINE",
"485 0 LINE",
"485 700 LINE",
"388 700 LINE",
"263 357 LINE",
"139 700 LINE",
"42 700 LINE",
"42 0 LINE"
);
}
);
width = 527;
},
{
anchors = (
{
name = bottom;
position = "{235, 0}";
},
{
name = top;
position = "{235, 700}";
}
);
layerId = "2009CD91-3BC4-40DB-AFF0-7394B85F3EFC";
paths = (
{
closed = 1;
nodes = (
"85 0 LINE",
"85 646 LINE",
"221 283 LINE",
"243 283 LINE",
"380 646 LINE",
"380 0 LINE",
"405 0 LINE",
"405 700 LINE",
"370 700 LINE",
"232 323 LINE",
"94 700 LINE",
"60 700 LINE",
"60 0 LINE"
);
}
);
width = 465;
}
);
leftMetricsKey = N;
rightMetricsKey = N;
unicode = 004D;
},
{
glyphname = N;
lastChange = "2016-04-30 21:51:57 +0000";
layers = (
{
anchors = (
{
name = bottom;
position = "{235, 0}";
},
{
name = top;
position = "{241, 702}";
}
);
layerId = "8E5E9D5F-1CFD-4F58-89B8-A9F3704C2D63";
paths = (
{
closed = 1;
nodes = (
"330 700 LINE",
"330 224 LINE",
"139 700 LINE",
"42 700 LINE",
"42 0 LINE",
"139 0 LINE",
"139 475 LINE SMOOTH",
"330 0 LINE",
"427 0 LINE",
"427 700 LINE"
);
}
);
width = 469;
},
{
anchors = (
{
name = bottom;
position = "{210, 0}";
},
{
name = top;
position = "{210, 700}";
}
);
layerId = "2009CD91-3BC4-40DB-AFF0-7394B85F3EFC";
paths = (
{
closed = 1;
nodes = (
"336 700 LINE",
"336 69 LINE",
"85 700 LINE",
"60 700 LINE",
"60 0 LINE",
"85 0 LINE",
"85 633 LINE",
"336 0 LINE",
"361 0 LINE",
"361 700 LINE"
);
}
);
width = 421;
}
);
leftMetricsKey = H;
rightMetricsKey = H;
unicode = 004E;
},
{
glyphname = O;
lastChange = "2016-04-30 06:14:18 +0000";
layers = (
{
anchors = (
{
name = bottom;
position = "{218, 0}";
},
{
name = center;
position = "{218, 350}";
},
{
name = ogonek;
position = "{391, 10}";
},
{
name = top;
position = "{218, 685}";
},
{
name = topleft;
position = "{22, 700}";
},
{
name = topright;
position = "{333, 599}";
}
);
layerId = "8E5E9D5F-1CFD-4F58-89B8-A9F3704C2D63";
paths = (
{
closed = 1;
nodes = (
"353 -10 OFFCURVE",
"404 87 OFFCURVE",
"404 348 CURVE",
"404 610 OFFCURVE",
"354 706 OFFCURVE",
"218 706 CURVE SMOOTH",
"83 706 OFFCURVE",
"32 609 OFFCURVE",
"32 348 CURVE SMOOTH",
"32 86 OFFCURVE",
"82 -10 OFFCURVE",
"218 -10 CURVE SMOOTH"
);
},
{
closed = 1;
nodes = (
"143 95 OFFCURVE",
"131 129 OFFCURVE",
"131 348 CURVE SMOOTH",
"131 568 OFFCURVE",
"143 601 OFFCURVE",
"218 601 CURVE SMOOTH",
"293 601 OFFCURVE",
"305 568 OFFCURVE",
"305 348 CURVE SMOOTH",
"305 129 OFFCURVE",
"293 95 OFFCURVE",
"218 95 CURVE SMOOTH"
);
}
);
width = 436;
},
{
anchors = (
{
name = bottom;
position = "{206, 0}";
},
{
name = center;
position = "{206, 350}";
},
{
name = ogonek;
position = "{355, 10}";
},
{
name = top;
position = "{206, 700}";
},
{
name = topleft;
position = "{40, 700}";
},
{
name = topright;
position = "{322, 600}";
}
);
layerId = "2009CD91-3BC4-40DB-AFF0-7394B85F3EFC";
paths = (
{
closed = 1;
nodes = (
"335 -3 OFFCURVE",
"367 68 OFFCURVE",
"367 351 CURVE SMOOTH",
"367 633 OFFCURVE",
"335 704 OFFCURVE",
"206 704 CURVE SMOOTH",
"77 704 OFFCURVE",
"45 633 OFFCURVE",
"45 351 CURVE SMOOTH",
"45 68 OFFCURVE",
"77 -3 OFFCURVE",
"206 -3 CURVE SMOOTH"
);
},
{
closed = 1;
nodes = (
"97 21 OFFCURVE",
"68 89 OFFCURVE",
"68 351 CURVE SMOOTH",
"68 613 OFFCURVE",
"97 680 OFFCURVE",
"206 680 CURVE SMOOTH",
"315 680 OFFCURVE",
"344 613 OFFCURVE",
"344 351 CURVE SMOOTH",
"344 89 OFFCURVE",
"315 21 OFFCURVE",
"206 21 CURVE SMOOTH"
);
}
);
width = 412;
}
);
unicode = 004F;
},
{
glyphname = Oslash;
lastChange = "2016-04-28 04:35:39 +0000";
layers = (
{
anchors = (
{
name = bottom;
position = "{241, 0}";
},
{
name = top;
position = "{241, 685}";
}
);
layerId = "8E5E9D5F-1CFD-4F58-89B8-A9F3704C2D63";
paths = (
{
closed = 1;
nodes = (
"410 -10 OFFCURVE",
"427 152 OFFCURVE",
"427 348 CURVE",
"427 544 OFFCURVE",
"411 706 OFFCURVE",
"241 706 CURVE SMOOTH",
"72 706 OFFCURVE",
"55 544 OFFCURVE",
"55 348 CURVE SMOOTH",
"55 152 OFFCURVE",
"57 -10 OFFCURVE",
"241 -10 CURVE SMOOTH"
);
},
{
closed = 1;
nodes = (
"154 95 OFFCURVE",
"154 162 OFFCURVE",
"154 348 CURVE SMOOTH",
"154 534 OFFCURVE",
"154 601 OFFCURVE",
"241 601 CURVE SMOOTH",
"328 601 OFFCURVE",
"328 534 OFFCURVE",
"328 348 CURVE SMOOTH",
"328 162 OFFCURVE",
"328 95 OFFCURVE",
"241 95 CURVE SMOOTH"
);
},
{
closed = 1;
nodes = (
"32 -13 LINE",
"107 -13 LINE",
"450 709 LINE",
"375 709 LINE"
);
}
);
width = 482;
},
{
anchors = (
{
name = bottom;
position = "{225, 0}";
},
{
name = center;
position = "{219, 350}";
},
{
name = ogonek;
position = "{368, 10}";
},
{
name = top;
position = "{262, 685}";
},
{
name = topleft;
position = "{53, 700}";
},
{
name = topright;
position = "{335, 600}";
}
);
background = {
components = (
{
name = O;
}
);
};
layerId = "2009CD91-3BC4-40DB-AFF0-7394B85F3EFC";
paths = (
{
closed = 1;
nodes = (
"364 -3 OFFCURVE",
"380 123 OFFCURVE",
"380 351 CURVE SMOOTH",
"380 579 OFFCURVE",
"381 704 OFFCURVE",
"219 704 CURVE SMOOTH",
"74 704 OFFCURVE",
"58 579 OFFCURVE",
"58 351 CURVE SMOOTH",
"58 123 OFFCURVE",
"73 -3 OFFCURVE",
"219 -3 CURVE SMOOTH"
);
},
{
closed = 1;
nodes = (
"99 23 OFFCURVE",
"83 128 OFFCURVE",
"83 351 CURVE SMOOTH",
"83 574 OFFCURVE",
"99 678 OFFCURVE",
"219 678 CURVE SMOOTH",
"339 678 OFFCURVE",
"355 574 OFFCURVE",
"355 351 CURVE SMOOTH",
"355 128 OFFCURVE",
"339 23 OFFCURVE",
"219 23 CURVE SMOOTH"
);
},
{
closed = 1;
nodes = (
"35 -13 LINE",
"66 -13 LINE",
"403 709 LINE",
"375 709 LINE"
);
}
);
width = 438;
}
);
leftMetricsKey = O;
rightMetricsKey = O;
unicode = 00D8;
},
{
color = 5;
glyphname = OE;
lastChange = "2016-04-28 04:35:39 +0000";
layers = (
{
layerId = "8E5E9D5F-1CFD-4F58-89B8-A9F3704C2D63";
paths = (
{
closed = 1;
nodes = (
"32 152 OFFCURVE",
"48 -10 OFFCURVE",
"218 -10 CURVE SMOOTH",
"264 -10 OFFCURVE",
"297 1 OFFCURVE",
"590 0 CURVE",
"590 97 LINE",
"402 97 LINE",
"402 306 LINE",
"582 306 LINE",
"582 403 LINE",
"402 403 LINE",
"402 605 LINE",
"590 605 LINE",
"590 702 LINE",
"307 702 LINE",
"270 707 OFFCURVE",
"236 707 OFFCURVE",
"218 706 CURVE SMOOTH",
"49 697 OFFCURVE",
"32 544 OFFCURVE",
"32 348 CURVE SMOOTH"
);
},
{
closed = 1;
nodes = (
"131 534 OFFCURVE",
"131 601 OFFCURVE",
"218 601 CURVE SMOOTH",
"305 601 OFFCURVE",
"305 534 OFFCURVE",
"305 348 CURVE SMOOTH",
"305 162 OFFCURVE",
"305 95 OFFCURVE",
"218 95 CURVE SMOOTH",
"131 95 OFFCURVE",
"131 162 OFFCURVE",
"131 348 CURVE SMOOTH"
);
}
);
width = 622;
},
{
layerId = "2009CD91-3BC4-40DB-AFF0-7394B85F3EFC";
paths = (
{
closed = 1;
nodes = (
"25 133 OFFCURVE",
"40 -3 OFFCURVE",
"186 -3 CURVE",
"302 -2 OFFCURVE",
"419 -1 OFFCURVE",
"535 0 CURVE",
"535 67 LINE",
"347 67 LINE",
"347 321 LINE",
"527 321 LINE",
"527 388 LINE",
"347 388 LINE",
"347 633 LINE",
"535 633 LINE",
"535 700 LINE",
"282 700 LINE",
"250 701 OFFCURVE",
"218 703 OFFCURVE",
"186 704 CURVE",
"41 704 OFFCURVE",
"25 569 OFFCURVE",
"25 351 CURVE SMOOTH"
);
},
{
closed = 1;
nodes = (
"90 537 OFFCURVE",
"90 640 OFFCURVE",
"186 640 CURVE SMOOTH",
"282 640 OFFCURVE",
"282 537 OFFCURVE",
"282 351 CURVE SMOOTH",
"282 165 OFFCURVE",
"282 61 OFFCURVE",
"186 61 CURVE SMOOTH",
"90 61 OFFCURVE",
"90 165 OFFCURVE",
"90 351 CURVE SMOOTH"
);
}
);
width = 563;
}
);
leftMetricsKey = O;
rightMetricsKey = E;
unicode = 0152;
},
{
color = 5;
glyphname = P;
lastChange = "2016-05-05 02:53:51 +0000";
layers = (
{
anchors = (
{
name = bottom;
position = "{190, 0}";
},
{
name = top;
position = "{190, 700}";
}
);
layerId = "8E5E9D5F-1CFD-4F58-89B8-A9F3704C2D63";
paths = (
{
closed = 1;
nodes = (
"132 0 LINE",
"132 306 LINE",
"201 306 LINE SMOOTH",
"332 306 OFFCURVE",
"375 357 OFFCURVE",
"375 514 CURVE SMOOTH",
"375 674 OFFCURVE",
"351 700 OFFCURVE",
"201 700 CURVE SMOOTH",
"43 700 LINE SMOOTH",
"37 700 OFFCURVE",
"35 698 OFFCURVE",
"35 692 CURVE",
"35 0 LINE"
);
},
{
closed = 1;
nodes = (
"133 603 LINE",
"202 603 LINE SMOOTH",
"271 603 OFFCURVE",
"278 595 OFFCURVE",
"278 520 CURVE SMOOTH",
"278 414 OFFCURVE",
"271 403 OFFCURVE",
"202 403 CURVE SMOOTH",
"133 403 LINE"
);
}
);
width = 405;
},
{
anchors = (
{
name = bottom;
position = "{186, 0}";
},
{
name = top;
position = "{186, 700}";
}
);
layerId = "2009CD91-3BC4-40DB-AFF0-7394B85F3EFC";
paths = (
{
closed = 1;
nodes = (
"64 0 LINE",
"64 332 LINE",
"202 332 LINE SMOOTH",
"309 332 OFFCURVE",
"316 339 OFFCURVE",
"316 534 CURVE SMOOTH",
"316 686 OFFCURVE",
"297 705 OFFCURVE",
"149 705 CURVE SMOOTH",
"43 705 LINE SMOOTH",
"42 705 OFFCURVE",
"41 704 OFFCURVE",
"41 703 CURVE SMOOTH",
"41 0 LINE"
);
},
{
closed = 1;
nodes = (
"64 680 LINE",
"150 680 LINE SMOOTH",
"283 680 OFFCURVE",
"292 671 OFFCURVE",
"292 540 CURVE SMOOTH",
"292 360 OFFCURVE",
"291 357 OFFCURVE",
"212 357 CURVE SMOOTH",
"64 357 LINE"
);
}
);
width = 342;
}
);
unicode = 0050;
},
{
color = 5;
glyphname = Thorn;
lastChange = "2016-04-28 04:35:39 +0000";
layers = (
{
layerId = "8E5E9D5F-1CFD-4F58-89B8-A9F3704C2D63";
paths = (
{
closed = 1;
nodes = (
"35 0 LINE",
"133 0 LINE",
"133 138 LINE",
"252 138 LINE SMOOTH",
"395 138 OFFCURVE",
"426 203 OFFCURVE",
"426 346 CURVE SMOOTH",
"426 519 OFFCURVE",
"418 562 OFFCURVE",
"252 562 CURVE SMOOTH",
"135 562 LINE",
"135 700 LINE",
"35 700 LINE"
);
},
{
closed = 1;
nodes = (
"135 465 LINE",
"253 465 LINE SMOOTH",
"328 465 OFFCURVE",
"329 441 OFFCURVE",
"329 352 CURVE SMOOTH",
"329 248 OFFCURVE",
"325 235 OFFCURVE",
"253 235 CURVE SMOOTH",
"135 235 LINE"
);
}
);
width = 456;
},
{
layerId = "2009CD91-3BC4-40DB-AFF0-7394B85F3EFC";
paths = (
{
closed = 1;
nodes = (
"45 0 LINE",
"113 0 LINE",
"113 138 LINE",
"247 138 LINE SMOOTH",
"370 138 OFFCURVE",
"406 182 OFFCURVE",
"406 331 CURVE SMOOTH",
"406 503 OFFCURVE",
"401 532 OFFCURVE",
"247 532 CURVE SMOOTH",
"115 532 LINE",
"115 670 LINE",
"45 670 LINE"
);
},
{
closed = 1;
nodes = (
"115 465 LINE",
"248 465 LINE SMOOTH",
"337 465 OFFCURVE",
"339 426 OFFCURVE",
"339 337 CURVE SMOOTH",
"339 223 OFFCURVE",
"329 205 OFFCURVE",
"248 205 CURVE SMOOTH",
"115 205 LINE"
);
}
);
width = 423;
}
);
leftMetricsKey = P;
rightMetricsKey = P;
unicode = 00DE;
},
{
glyphname = Q;
lastChange = "2016-05-03 00:29:17 +0000";
layers = (
{
anchors = (
{
name = bottom;
position = "{236, 0}";
},
{
name = top;
position = "{236, 700}";
}
);
background = {
paths = (
{
closed = 1;
nodes = (
"395 -11 OFFCURVE",
"413 155 OFFCURVE",
"413 351 CURVE SMOOTH",
"413 547 OFFCURVE",
"394 706 OFFCURVE",
"216 706 CURVE SMOOTH",
"39 706 OFFCURVE",
"22 548 OFFCURVE",
"22 352 CURVE SMOOTH",
"22 156 OFFCURVE",
"39 -11 OFFCURVE",
"216 -11 CURVE SMOOTH"
);
},
{
closed = 1;
nodes = (
"128 90 OFFCURVE",
"128 154 OFFCURVE",
"128 346 CURVE SMOOTH",
"128 532 OFFCURVE",
"128 609 OFFCURVE",
"218 609 CURVE SMOOTH",
"308 609 OFFCURVE",
"308 533 OFFCURVE",
"308 347 CURVE SMOOTH",
"308 155 OFFCURVE",
"308 90 OFFCURVE",
"218 90 CURVE SMOOTH"
);
}
);
};
layerId = "8E5E9D5F-1CFD-4F58-89B8-A9F3704C2D63";
paths = (
{
closed = 1;
nodes = (
"395 -11 OFFCURVE",
"403 155 OFFCURVE",
"403 351 CURVE SMOOTH",
"403 547 OFFCURVE",
"398 706 OFFCURVE",
"226 706 CURVE SMOOTH",
"55 706 OFFCURVE",
"32 548 OFFCURVE",
"32 352 CURVE SMOOTH",
"32 156 OFFCURVE",
"62 -11 OFFCURVE",
"226 -11 CURVE SMOOTH"
);
},
{
closed = 1;
nodes = (
"138 90 OFFCURVE",
"128 154 OFFCURVE",
"128 346 CURVE SMOOTH",
"128 532 OFFCURVE",
"143 610 OFFCURVE",
"223 610 CURVE SMOOTH",
"303 610 OFFCURVE",
"318 533 OFFCURVE",
"318 347 CURVE SMOOTH",
"318 155 OFFCURVE",
"318 90 OFFCURVE",
"228 90 CURVE SMOOTH"
);
},
{
closed = 1;
nodes = (
"449 -34 LINE",
"292 185 LINE",
"198 185 LINE",
"355 -34 LINE"
);
}
);
width = 459;
},
{
anchors = (
{
name = bottom;
position = "{206, 0}";
},
{
name = top;
position = "{206, 700}";
}
);
layerId = "2009CD91-3BC4-40DB-AFF0-7394B85F3EFC";
paths = (
{
closed = 1;
nodes = (
"351 -3 OFFCURVE",
"367 123 OFFCURVE",
"367 351 CURVE SMOOTH",
"367 579 OFFCURVE",
"352 704 OFFCURVE",
"206 704 CURVE SMOOTH",
"61 704 OFFCURVE",
"45 579 OFFCURVE",
"45 351 CURVE SMOOTH",
"45 123 OFFCURVE",
"60 -3 OFFCURVE",
"206 -3 CURVE SMOOTH"
);
},
{
closed = 1;
nodes = (
"86 23 OFFCURVE",
"70 128 OFFCURVE",
"70 351 CURVE SMOOTH",
"70 574 OFFCURVE",
"86 678 OFFCURVE",
"206 678 CURVE SMOOTH",
"326 678 OFFCURVE",
"342 574 OFFCURVE",
"342 351 CURVE SMOOTH",
"342 128 OFFCURVE",
"326 23 OFFCURVE",
"206 23 CURVE SMOOTH"
);
},
{
closed = 1;
nodes = (
"398 -19 LINE",
"262 170 LINE",
"236 170 LINE",
"372 -19 LINE"
);
}
);
width = 392;
}
);
leftMetricsKey = O;
unicode = 0051;
},
{
color = 5;
glyphname = R;
lastChange = "2016-05-05 02:54:01 +0000";
layers = (
{
anchors = (
{
name = bottom;
position = "{210, 0}";
},
{
name = top;
position = "{199, 700}";
}
);
background = {
paths = (
{
closed = 1;
nodes = (
"139 0 LINE",
"139 306 LINE",
"208 306 LINE SMOOTH",
"351 306 OFFCURVE",
"382 371 OFFCURVE",
"382 514 CURVE SMOOTH",
"382 657 OFFCURVE",
"374 700 OFFCURVE",
"208 700 CURVE SMOOTH",
"50 700 LINE SMOOTH",
"44 700 OFFCURVE",
"42 698 OFFCURVE",
"42 692 CURVE",
"42 0 LINE"
);
},
{
closed = 1;
nodes = (
"140 603 LINE",
"209 603 LINE SMOOTH",
"284 603 OFFCURVE",
"285 579 OFFCURVE",
"285 520 CURVE SMOOTH",
"285 416 OFFCURVE",
"281 403 OFFCURVE",
"209 403 CURVE SMOOTH",
"140 403 LINE"
);
}
);
};
layerId = "8E5E9D5F-1CFD-4F58-89B8-A9F3704C2D63";
paths = (
{
closed = 1;
nodes = (
"141 0 LINE",
"141 286 LINE",
"200 286 LINE",
"297 0 LINE",
"402 0 LINE",
"296 294 LINE",
"366 312 OFFCURVE",
"382 353 OFFCURVE",
"382 514 CURVE SMOOTH",
"382 674 OFFCURVE",
"358 700 OFFCURVE",
"208 700 CURVE SMOOTH",
"47 700 LINE SMOOTH",
"44 700 OFFCURVE",
"42 698 OFFCURVE",
"42 695 CURVE",
"42 0 LINE"
);
},
{
closed = 1;
nodes = (
"139 603 LINE",
"209 603 LINE SMOOTH",
"278 603 OFFCURVE",
"285 595 OFFCURVE",
"285 520 CURVE SMOOTH",
"285 396 OFFCURVE",
"278 383 OFFCURVE",
"209 383 CURVE SMOOTH",
"139 383 LINE"
);
}
);
width = 427;
},
{
anchors = (
{
name = bottom;
position = "{175, 0}";
},
{
name = top;
position = "{175, 700}";
}
);
background = {
paths = (
{
closed = 1;
nodes = (
"104 0 LINE",
"104 336 LINE",
"188 336 LINE SMOOTH",
"311 336 OFFCURVE",
"347 380 OFFCURVE",
"347 529 CURVE SMOOTH",
"347 671 OFFCURVE",
"342 700 OFFCURVE",
"188 700 CURVE SMOOTH",
"42 700 LINE SMOOTH",
"39 700 OFFCURVE",
"37 698 OFFCURVE",
"37 695 CURVE SMOOTH",
"37 0 LINE"
);
},
{
closed = 1;
nodes = (
"105 633 LINE",
"189 633 LINE SMOOTH",
"278 633 OFFCURVE",
"280 594 OFFCURVE",
"280 535 CURVE SMOOTH",
"280 421 OFFCURVE",
"270 403 OFFCURVE",
"189 403 CURVE SMOOTH",
"105 403 LINE"
);
}
);
};
layerId = "2009CD91-3BC4-40DB-AFF0-7394B85F3EFC";
paths = (
{
closed = 1;
nodes = (
"83 0 LINE",
"83 335 LINE",
"241 335 LINE",
"312 0 LINE",
"337 0 LINE",
"265 335 LINE",
"322 335 OFFCURVE",
"334 341 OFFCURVE",
"334 540 CURVE SMOOTH",
"334 687 OFFCURVE",
"316 705 OFFCURVE",
"168 705 CURVE SMOOTH",
"62 705 LINE SMOOTH",
"61 705 OFFCURVE",
"60 704 OFFCURVE",
"60 703 CURVE SMOOTH",
"60 0 LINE"
);
},
{
closed = 1;
nodes = (
"83 681 LINE",
"169 681 LINE SMOOTH",
"302 681 OFFCURVE",
"311 672 OFFCURVE",
"311 540 CURVE SMOOTH",
"311 367 OFFCURVE",
"308 357 OFFCURVE",
"262 357 CURVE SMOOTH",
"83 357 LINE"
);
}
);
width = 367;
}
);
leftMetricsKey = H;
unicode = 0052;
},
{
color = 5;
glyphname = S;
lastChange = "2016-05-05 03:01:38 +0000";
layers = (
{
anchors = (
{
name = bottom;
position = "{166, 0}";
},
{
name = top;
position = "{196, 680}";
}
);
background = {
paths = (
{
closed = 1;
nodes = (
"109 79 LINE",
"180 79 OFFCURVE",
"203 119 OFFCURVE",
"203 167 CURVE SMOOTH",
"203 341 OFFCURVE",
"23 309 OFFCURVE",
"23 496 CURVE SMOOTH",
"23 637 OFFCURVE",
"68 703 OFFCURVE",
"220 707 CURVE",
"309 698 LINE",
"309 610 LINE",
"161 613 OFFCURVE",
"130 610 OFFCURVE",
"130 500 CURVE SMOOTH",
"130 360 OFFCURVE",
"309 409 OFFCURVE",
"309 170 CURVE SMOOTH",
"309 42 OFFCURVE",
"242 -18 OFFCURVE",
"115 -16 CURVE",
"23 -8 LINE",
"23 80 LINE"
);
}
);
};
layerId = "8E5E9D5F-1CFD-4F58-89B8-A9F3704C2D63";
paths = (
{
closed = 1;
nodes = (
"241 -10 OFFCURVE",
"299 48 OFFCURVE",
"299 177 CURVE SMOOTH",
"299 399 OFFCURVE",
"126 350 OFFCURVE",
"126 517 CURVE SMOOTH",
"126 582 OFFCURVE",
"159 614 OFFCURVE",
"223 614 CURVE",
"299 614 LINE",
"299 700 LINE",
"217 707 LINE",
"87 707 OFFCURVE",
"33 651 OFFCURVE",
"33 514 CURVE SMOOTH",
"33 282 OFFCURVE",
"205 348 OFFCURVE",
"205 173 CURVE SMOOTH",
"205 96 OFFCURVE",
"179 82 OFFCURVE",
"33 85 CURVE",
"33 0 LINE",
"112 -10 LINE"
);
}
);
width = 332;
},
{
anchors = (
{
name = bottom;
position = "{118, 0}";
},
{
name = top;
position = "{118, 700}";
}
);
layerId = "2009CD91-3BC4-40DB-AFF0-7394B85F3EFC";
paths = (
{
closed = 1;
nodes = (
"172 -3 OFFCURVE",
"216 45 OFFCURVE",
"216 155 CURVE SMOOTH",
"216 369 OFFCURVE",
"43 365 OFFCURVE",
"43 539 CURVE SMOOTH",
"43 636 OFFCURVE",
"82 677 OFFCURVE",
"175 677 CURVE SMOOTH",
"216 677 LINE",
"216 700 LINE",
"169 703 LINE",
"64 703 OFFCURVE",
"20 654 OFFCURVE",
"20 536 CURVE SMOOTH",
"20 350 OFFCURVE",
"192 349 OFFCURVE",
"192 151 CURVE SMOOTH",
"192 52 OFFCURVE",
"157 24 OFFCURVE",
"20 23 CURVE",
"20 0 LINE",
"66 -3 LINE"
);
}
);
width = 236;
}
);
unicode = 0053;
},
{
color = 5;
glyphname = Schwa;
lastChange = "2016-04-28 04:35:39 +0000";
layers = (
{
layerId = "8E5E9D5F-1CFD-4F58-89B8-A9F3704C2D63";
paths = (
{
closed = 1;
nodes = (
"405 562 OFFCURVE",
"398 705 OFFCURVE",
"217 705 CURVE SMOOTH",
"149 705 OFFCURVE",
"72 685 OFFCURVE",
"33 656 CURVE",
"33 565 LINE SMOOTH",
"33 558 OFFCURVE",
"42 558 OFFCURVE",
"47 563 CURVE",
"101 603 OFFCURVE",
"173 614 OFFCURVE",
"216 611 CURVE SMOOTH",
"303 605 OFFCURVE",
"306 539 OFFCURVE",
"306 396 CURVE",
"44 396 LINE SMOOTH",
"39 396 OFFCURVE",
"33 394 OFFCURVE",
"33 390 CURVE SMOOTH",
"33 75 OFFCURVE",
"42 -3 OFFCURVE",
"217 -3 CURVE SMOOTH",
"434 -3 OFFCURVE",
"405 252 OFFCURVE",
"405 357 CURVE SMOOTH"
);
},
{
closed = 1;
nodes = (
"306 297 LINE",
"306 197 OFFCURVE",
"317 91 OFFCURVE",
"217 91 CURVE SMOOTH",
"117 91 OFFCURVE",
"120 197 OFFCURVE",
"120 297 CURVE"
);
}
);
width = 431;
},
{
layerId = "2009CD91-3BC4-40DB-AFF0-7394B85F3EFC";
paths = (
{
closed = 1;
nodes = (
"345 562 OFFCURVE",
"338 705 OFFCURVE",
"217 705 CURVE SMOOTH",
"149 705 OFFCURVE",
"72 685 OFFCURVE",
"33 656 CURVE",
"33 565 LINE SMOOTH",
"33 558 OFFCURVE",
"42 558 OFFCURVE",
"47 563 CURVE",
"101 603 OFFCURVE",
"173 614 OFFCURVE",
"216 611 CURVE SMOOTH",
"303 605 OFFCURVE",
"306 539 OFFCURVE",
"306 396 CURVE",
"44 396 LINE SMOOTH",
"39 396 OFFCURVE",
"33 394 OFFCURVE",
"33 390 CURVE SMOOTH",
"33 75 OFFCURVE",
"42 -3 OFFCURVE",
"217 -3 CURVE SMOOTH",
"374 -3 OFFCURVE",
"345 252 OFFCURVE",
"345 357 CURVE SMOOTH"
);
},
{
closed = 1;
nodes = (
"306 297 LINE",
"306 197 OFFCURVE",
"317 91 OFFCURVE",
"217 91 CURVE SMOOTH",
"117 91 OFFCURVE",
"120 197 OFFCURVE",
"120 297 CURVE"
);
}
);
width = 393;
}
);
unicode = 018F;
},
{
glyphname = T;
lastChange = "2016-04-28 04:35:39 +0000";
layers = (
{
anchors = (
{
name = bottom;
position = "{197, 0}";
},
{
name = center;
position = "{197, 350}";
},
{
name = top;
position = "{197, 700}";
}
);
layerId = "8E5E9D5F-1CFD-4F58-89B8-A9F3704C2D63";
paths = (
{
closed = 1;
nodes = (
"148 603 LINE",
"148 0 LINE",
"246 0 LINE",
"246 603 LINE",
"389 603 LINE",
"389 700 LINE",
"5 700 LINE",
"5 603 LINE"
);
}
);
width = 394;
},
{
anchors = (
{
name = bottom;
position = "{185, 0}";
},
{
name = center;
position = "{185, 350}";
},
{
name = top;
position = "{185, 700}";
}
);
layerId = "2009CD91-3BC4-40DB-AFF0-7394B85F3EFC";
paths = (
{
closed = 1;
nodes = (
"172 672 LINE",
"172 0 LINE",
"200 0 LINE",
"200 672 LINE",
"362 672 LINE",
"362 700 LINE",
"8 700 LINE",
"8 672 LINE"
);
}
);
width = 370;
}
);
unicode = 0054;
},
{
glyphname = U;
lastChange = "2016-04-28 04:35:39 +0000";
layers = (
{
anchors = (
{
name = bottom;
position = "{222, 0}";
},
{
name = ogonek;
position = "{307, 10}";
},
{
name = top;
position = "{217, 682}";
},
{
name = topright;
position = "{393, 599}";
}
);
layerId = "8E5E9D5F-1CFD-4F58-89B8-A9F3704C2D63";
paths = (
{
closed = 1;
nodes = (
"307 700 LINE",
"307 314 LINE SMOOTH",
"307 131 OFFCURVE",
"290 87 OFFCURVE",
"221 87 CURVE SMOOTH",
"152 87 OFFCURVE",
"135 131 OFFCURVE",
"135 314 CURVE SMOOTH",
"135 700 LINE",
"40 700 LINE",
"40 331 LINE SMOOTH",
"40 56 OFFCURVE",
"75 -10 OFFCURVE",
"221 -10 CURVE SMOOTH",
"367 -10 OFFCURVE",
"402 56 OFFCURVE",
"402 331 CURVE SMOOTH",
"402 700 LINE"
);
}
);
width = 442;
},
{
anchors = (
{
name = bottom;
position = "{192, 0}";
},
{
name = ogonek;
position = "{270, 10}";
},
{
name = top;
position = "{192, 700}";
},
{
name = topright;
position = "{352, 599}";
}
);
layerId = "2009CD91-3BC4-40DB-AFF0-7394B85F3EFC";
paths = (
{
closed = 1;
nodes = (
"322 700 LINE",
"322 278 LINE SMOOTH",
"322 135 OFFCURVE",
"301 13 OFFCURVE",
"191 13 CURVE SMOOTH",
"81 13 OFFCURVE",
"60 135 OFFCURVE",
"60 278 CURVE SMOOTH",
"60 700 LINE",
"35 700 LINE",
"35 295 LINE SMOOTH",
"35 27 OFFCURVE",
"104 -11 OFFCURVE",
"191 -11 CURVE SMOOTH",
"278 -11 OFFCURVE",
"347 27 OFFCURVE",
"347 295 CURVE SMOOTH",
"347 700 LINE"
);
}
);
width = 407;
}
);
unicode = 0055;
},
{
glyphname = V;
lastChange = "2016-05-03 05:19:56 +0000";
layers = (
{
anchors = (
{
name = bottom;
position = "{222, 0}";
},
{
name = top;
position = "{222, 700}";
}
);
layerId = "8E5E9D5F-1CFD-4F58-89B8-A9F3704C2D63";
paths = (
{
closed = 1;
nodes = (
"159 0 LINE",
"284 0 LINE",
"438 700 LINE",
"341 700 LINE",
"222 110 LINE",
"102 700 LINE",
"5 700 LINE"
);
}
);
width = 443;
},
{
anchors = (
{
name = bottom;
position = "{215, 0}";
},
{
name = top;
position = "{207, 700}";
}
);
layerId = "2009CD91-3BC4-40DB-AFF0-7394B85F3EFC";
paths = (
{
closed = 1;
nodes = (
"199 0 LINE",
"233 0 LINE",
"399 700 LINE",
"377 700 LINE",
"216 29 LINE",
"45 700 LINE",
"23 700 LINE"
);
}
);
width = 422;
}
);
leftKerningGroup = slantedLeft;
rightKerningGroup = slantedRight;
unicode = 0056;
},
{
glyphname = W;
lastChange = "2016-04-30 21:39:07 +0000";
layers = (
{
anchors = (
{
name = bottom;
position = "{315, 0}";
},
{
name = top;
position = "{315, 681}";
}
);
layerId = "8E5E9D5F-1CFD-4F58-89B8-A9F3704C2D63";
paths = (
{
closed = 1;
nodes = (
"118 0 LINE",
"237 0 LINE",
"315 531 LINE",
"393 0 LINE",
"511 0 LINE",
"624 700 LINE",
"528 700 LINE",
"452 182 LINE",
"368 700 LINE",
"262 700 LINE",
"177 182 LINE",
"101 700 LINE",
"5 700 LINE"
);
}
);
width = 629;
},
{
anchors = (
{
name = bottom;
position = "{305, 0}";
},
{
name = top;
position = "{305, 700}";
}
);
layerId = "2009CD91-3BC4-40DB-AFF0-7394B85F3EFC";
paths = (
{
closed = 1;
nodes = (
"158 0 LINE",
"195 0 LINE",
"305 643 LINE",
"415 0 LINE",
"452 0 LINE",
"587 700 LINE",
"562 700 LINE",
"433 35 LINE",
"324 700 LINE",
"286 700 LINE",
"177 30 LINE",
"48 700 LINE",
"23 700 LINE"
);
}
);
width = 610;
}
);
leftKerningGroup = slantedLeft;
leftMetricsKey = V;
rightKerningGroup = slantedRight;
rightMetricsKey = V;
unicode = 0057;
},
{
color = 5;
glyphname = X;
lastChange = "2016-04-30 21:44:02 +0000";
layers = (
{
anchors = (
{
name = bottom;
position = "{198, 0}";
},
{
name = top;
position = "{198, 700}";
}
);
layerId = "8E5E9D5F-1CFD-4F58-89B8-A9F3704C2D63";
paths = (
{
closed = 1;
nodes = (
"110 0 LINE",
"198 241 LINE",
"286 0 LINE",
"391 0 LINE",
"247 354 LINE",
"391 700 LINE",
"286 700 LINE",
"198 478 LINE",
"110 700 LINE",
"5 700 LINE",
"148 355 LINE",
"5 0 LINE"
);
}
);
width = 396;
},
{
anchors = (
{
name = bottom;
position = "{192, 0}";
},
{
name = top;
position = "{192, 700}";
}
);
layerId = "2009CD91-3BC4-40DB-AFF0-7394B85F3EFC";
paths = (
{
closed = 1;
nodes = (
"63 0 LINE",
"192 331 LINE",
"321 0 LINE",
"344 0 LINE",
"212 362 LINE",
"344 700 LINE",
"321 700 LINE",
"189 390 LINE",
"63 700 LINE",
"40 700 LINE",
"168 355 LINE",
"40 0 LINE"
);
}
);
width = 384;
}
);
unicode = 0058;
},
{
color = 5;
glyphname = Y;
lastChange = "2016-05-05 02:54:58 +0000";
layers = (
{
anchors = (
{
name = bottom;
position = "{218, 0}";
},
{
name = top;
position = "{216, 676}";
},
{
name = topleft;
position = "{10, 700}";
}
);
layerId = "8E5E9D5F-1CFD-4F58-89B8-A9F3704C2D63";
paths = (
{
closed = 1;
nodes = (
"168 305 LINE",
"168 0 LINE",
"265 0 LINE",
"265 305 LINE",
"431 700 LINE",
"334 700 LINE",
"216 443 LINE",
"102 700 LINE",
"5 700 LINE"
);
}
);
width = 436;
},
{
anchors = (
{
name = bottom;
position = "{203, 0}";
},
{
name = top;
position = "{203, 700}";
},
{
name = topleft;
position = "{20, 700}";
}
);
layerId = "2009CD91-3BC4-40DB-AFF0-7394B85F3EFC";
paths = (
{
closed = 1;
nodes = (
"192 407 LINE",
"192 0 LINE",
"215 0 LINE",
"215 407 LINE",
"383 700 LINE",
"360 700 LINE",
"203 430 LINE",
"46 700 LINE",
"23 700 LINE"
);
}
);
width = 406;
}
);
rightKerningGroup = slantedRight;
unicode = 0059;
},
{
glyphname = Z;
lastChange = "2016-04-28 04:35:39 +0000";
layers = (
{
anchors = (
{
name = bottom;
position = "{177, 0}";
},
{
name = top;
position = "{177, 700}";
}
);
guideLines = (
{
angle = 90;
position = "{134, 356}";
}
);
layerId = "8E5E9D5F-1CFD-4F58-89B8-A9F3704C2D63";
paths = (
{
closed = 1;
nodes = (
"134 95 LINE",
"323 605 LINE",
"289 605 OFFCURVE",
"253 605 OFFCURVE",
"219 605 CURVE",
"30 96 LINE"
);
},
{
closed = 1;
nodes = (
"128 0 OFFCURVE",
"226 0 OFFCURVE",
"323 0 CURVE",
"323 34 OFFCURVE",
"323 61 OFFCURVE",
"323 95 CURVE",
"174 95 OFFCURVE",
"172 96 OFFCURVE",
"30 96 CURVE",
"30 62 OFFCURVE",
"30 34 OFFCURVE",
"30 0 CURVE"
);
},
{
closed = 1;
nodes = (
"323 605 LINE",
"323 638 OFFCURVE",
"323 668 OFFCURVE",
"323 700 CURVE",
"225 700 OFFCURVE",
"128 700 OFFCURVE",
"30 700 CURVE",
"30 668 OFFCURVE",
"30 637 OFFCURVE",
"30 605 CURVE"
);
}
);
width = 353;
},
{
anchors = (
{
name = bottom;
position = "{157, 0}";
},
{
name = top;
position = "{157, 700}";
}
);
layerId = "2009CD91-3BC4-40DB-AFF0-7394B85F3EFC";
paths = (
{
closed = 1;
nodes = (
"46 25 LINE",
"288 675 LINE",
"264 675 OFFCURVE",
"291 675 OFFCURVE",
"267 675 CURVE",
"25 25 LINE"
);
},
{
closed = 1;
nodes = (
"113 0 OFFCURVE",
"200 0 OFFCURVE",
"288 0 CURVE",
"288 27 OFFCURVE",
"288 3 OFFCURVE",
"288 25 CURVE",
"156 25 OFFCURVE",
"145 25 OFFCURVE",
"25 25 CURVE",
"25 2 OFFCURVE",
"25 26 OFFCURVE",
"25 0 CURVE"
);
},
{
closed = 1;
nodes = (
"288 675 LINE",
"288 697 OFFCURVE",
"288 678 OFFCURVE",
"288 700 CURVE",
"200 700 OFFCURVE",
"113 700 OFFCURVE",
"25 700 CURVE",
"25 678 OFFCURVE",
"25 697 OFFCURVE",
"25 675 CURVE"
);
}
);
width = 313;
}
);
unicode = 005A;
},
{
glyphname = a;
lastChange = "2016-05-05 02:56:25 +0000";
layers = (
{
anchors = (
{
name = bottom;
position = "{172, 0}";
},
{
name = ogonek;
position = "{306, 10}";
},
{
name = top;
position = "{171, 444}";
}
);
layerId = "8E5E9D5F-1CFD-4F58-89B8-A9F3704C2D63";
paths = (
{
closed = 1;
nodes = (
"25 40 OFFCURVE",
"49 -7 OFFCURVE",
"133 -7 CURVE",
"166 -7 OFFCURVE",
"200 0 OFFCURVE",
"230 15 CURVE",
"230 0 LINE",
"319 0 LINE",
"319 327 LINE SMOOTH",
"319 409 OFFCURVE",
"266 460 OFFCURVE",
"171 460 CURVE SMOOTH",
"114 460 OFFCURVE",
"65 438 OFFCURVE",
"42 415 CURVE",
"42 332 LINE",
"65 349 OFFCURVE",
"98 372 OFFCURVE",
"153 372 CURVE SMOOTH",
"203 372 OFFCURVE",
"230 352 OFFCURVE",
"230 319 CURVE SMOOTH",
"230 266 LINE",
"203 276 OFFCURVE",
"182 280 OFFCURVE",
"156 280 CURVE SMOOTH",
"65 280 OFFCURVE",
"25 229 OFFCURVE",
"25 122 CURVE SMOOTH"
);
},
{
closed = 1;
nodes = (
"112 198 OFFCURVE",
"115 203 OFFCURVE",
"178 203 CURVE SMOOTH",
"205 203 OFFCURVE",
"219 202 OFFCURVE",
"230 199 CURVE",
"230 99 LINE SMOOTH",
"230 66 OFFCURVE",
"227 64 OFFCURVE",
"172 64 CURVE SMOOTH",
"114 64 OFFCURVE",
"112 66 OFFCURVE",
"112 122 CURVE SMOOTH"
);
}
);
width = 354;
},
{
anchors = (
{
name = bottom;
position = "{157, 0}";
},
{
name = ogonek;
position = "{257, -12}";
},
{
name = top;
position = "{158, 460}";
}
);
layerId = "2009CD91-3BC4-40DB-AFF0-7394B85F3EFC";
paths = (
{
closed = 1;
nodes = (
"40 28 OFFCURVE",
"62 -3 OFFCURVE",
"153 -3 CURVE SMOOTH",
"181 -3 OFFCURVE",
"220 0 OFFCURVE",
"246 13 CURVE",
"246 0 LINE",
"268 0 LINE",
"268 329 LINE SMOOTH",
"268 402 OFFCURVE",
"234 436 OFFCURVE",
"156 436 CURVE SMOOTH",
"112 436 OFFCURVE",
"71 426 OFFCURVE",
"53 410 CURVE",
"53 382 LINE",
"93 407 OFFCURVE",
"112 413 OFFCURVE",
"152 413 CURVE SMOOTH",
"227 413 OFFCURVE",
"246 393 OFFCURVE",
"246 321 CURVE SMOOTH",
"246 235 LINE",
"226 245 OFFCURVE",
"181 252 OFFCURVE",
"151 252 CURVE SMOOTH",
"78 252 OFFCURVE",
"40 202 OFFCURVE",
"40 108 CURVE SMOOTH"
);
},
{
closed = 1;
nodes = (
"65 203 OFFCURVE",
"85 228 OFFCURVE",
"165 228 CURVE SMOOTH",
"200 228 OFFCURVE",
"233 222 OFFCURVE",
"246 210 CURVE",
"246 51 LINE SMOOTH",
"246 27 OFFCURVE",
"217 16 OFFCURVE",
"149 16 CURVE SMOOTH",
"75 16 OFFCURVE",
"65 27 OFFCURVE",
"65 105 CURVE SMOOTH"
);
}
);
width = 318;
}
);
leftKerningGroup = a;
rightKerningGroup = a;
unicode = 0061;
},
{
color = 5;
glyphname = ae;
lastChange = "2016-04-28 04:35:39 +0000";
layers = (
{
anchors = (
{
name = bottom;
position = "{172, 0}";
},
{
name = ogonek;
position = "{306, 10}";
},
{
name = top;
position = "{381, 437}";
}
);
layerId = "8E5E9D5F-1CFD-4F58-89B8-A9F3704C2D63";
paths = (
{
closed = 1;
nodes = (
"85 364 OFFCURVE",
"98 372 OFFCURVE",
"167 372 CURVE SMOOTH",
"224 372 OFFCURVE",
"230 364 OFFCURVE",
"230 319 CURVE SMOOTH",
"230 266 LINE",
"211 273 OFFCURVE",
"190 280 OFFCURVE",
"156 280 CURVE SMOOTH",
"65 280 OFFCURVE",
"25 229 OFFCURVE",
"25 116 CURVE SMOOTH",
"25 61 OFFCURVE",
"35 -7 OFFCURVE",
"119 -7 CURVE SMOOTH",
"166 -7 OFFCURVE",
"231 -9 OFFCURVE",
"285 23 CURVE",
"307 3 OFFCURVE",
"338 -9 OFFCURVE",
"381 -9 CURVE SMOOTH",
"418 -9 OFFCURVE",
"483 0 OFFCURVE",
"508 28 CURVE",
"508 112 LINE SMOOTH",
"508 118 OFFCURVE",
"500 118 OFFCURVE",
"498 114 CURVE",
"461 84 OFFCURVE",
"412 76 OFFCURVE",
"382 78 CURVE SMOOTH",
"329 82 OFFCURVE",
"320 117 OFFCURVE",
"320 195 CURVE",
"520 195 LINE SMOOTH",
"524 195 OFFCURVE",
"528 197 OFFCURVE",
"528 200 CURVE SMOOTH",
"528 387 OFFCURVE",
"500 453 OFFCURVE",
"381 453 CURVE SMOOTH",
"333 453 OFFCURVE",
"301 443 OFFCURVE",
"278 424 CURVE",
"251 447 OFFCURVE",
"213 456 OFFCURVE",
"171 456 CURVE SMOOTH",
"114 456 OFFCURVE",
"65 439 OFFCURVE",
"42 416 CURVE",
"42 332 LINE"
);
},
{
closed = 1;
nodes = (
"112 122 LINE SMOOTH",
"112 198 OFFCURVE",
"115 203 OFFCURVE",
"178 203 CURVE SMOOTH",
"205 203 OFFCURVE",
"219 202 OFFCURVE",
"230 199 CURVE",
"230 99 LINE SMOOTH",
"230 70 OFFCURVE",
"207 64 OFFCURVE",
"172 64 CURVE SMOOTH",
"121 64 OFFCURVE",
"112 68 OFFCURVE",
"112 103 CURVE SMOOTH"
);
},
{
closed = 1;
nodes = (
"321 338 OFFCURVE",
"322 369 OFFCURVE",
"381 369 CURVE SMOOTH",
"440 369 OFFCURVE",
"445 338 OFFCURVE",
"446 270 CURVE",
"320 270 LINE"
);
}
);
width = 563;
},
{
anchors = (
{
name = bottom;
position = "{172, 0}";
},
{
name = ogonek;
position = "{306, 10}";
},
{
name = top;
position = "{381, 437}";
}
);
layerId = "2009CD91-3BC4-40DB-AFF0-7394B85F3EFC";
paths = (
{
closed = 1;
nodes = (
"69 368 OFFCURVE",
"89 375 OFFCURVE",
"147 375 CURVE SMOOTH",
"208 375 OFFCURVE",
"216 365 OFFCURVE",
"216 309 CURVE",
"216 247 LINE",
"191 260 OFFCURVE",
"156 260 OFFCURVE",
"136 260 CURVE SMOOTH",
"59 260 OFFCURVE",
"25 214 OFFCURVE",
"25 106 CURVE SMOOTH",
"25 28 OFFCURVE",
"58 2 OFFCURVE",
"107 -5 CURVE SMOOTH",
"124 -7 OFFCURVE",
"224 -15 OFFCURVE",
"251 19 CURVE",
"274 -4 OFFCURVE",
"361 -3 OFFCURVE",
"349 -3 CURVE SMOOTH",
"396 -3 OFFCURVE",
"438 9 OFFCURVE",
"459 28 CURVE",
"459 85 LINE SMOOTH",
"459 90 OFFCURVE",
"451 94 OFFCURVE",
"447 88 CURVE",
"417 67 OFFCURVE",
"382 55 OFFCURVE",
"350 58 CURVE SMOOTH",
"314 61 OFFCURVE",
"278 84 OFFCURVE",
"278 189 CURVE",
"468 189 LINE SMOOTH",
"470 189 OFFCURVE",
"476 189 OFFCURVE",
"476 194 CURVE SMOOTH",
"476 385 OFFCURVE",
"449 439 OFFCURVE",
"347 439 CURVE SMOOTH",
"298 439 OFFCURVE",
"267 426 OFFCURVE",
"248 404 CURVE",
"226 425 OFFCURVE",
"194 436 OFFCURVE",
"151 436 CURVE SMOOTH",
"106 436 OFFCURVE",
"59 422 OFFCURVE",
"36 402 CURVE",
"36 345 LINE"
);
},
{
closed = 1;
nodes = (
"86 112 LINE SMOOTH",
"86 194 OFFCURVE",
"93 203 OFFCURVE",
"158 203 CURVE SMOOTH",
"190 203 OFFCURVE",
"201 202 OFFCURVE",
"214 199 CURVE",
"214 89 LINE",
"214 57 OFFCURVE",
"199 44 OFFCURVE",
"152 44 CURVE SMOOTH",
"98 44 OFFCURVE",
"86 52 OFFCURVE",
"86 93 CURVE SMOOTH"
);
},
{
closed = 1;
nodes = (
"279 328 OFFCURVE",
"280 377 OFFCURVE",
"347 377 CURVE SMOOTH",
"416 377 OFFCURVE",
"420 329 OFFCURVE",
"420 244 CURVE",
"278 244 LINE"
);
}
);
width = 493;
}
);
leftKerningGroup = a;
leftMetricsKey = a;
rightMetricsKey = e;
unicode = 00E6;
},
{
glyphname = b;
lastChange = "2016-05-05 03:00:21 +0000";
layers = (
{
anchors = (
{
name = bottom;
position = "{173, 0}";
},
{
name = top;
position = "{173, 450}";
}
);
background = {
paths = (
{
closed = 1;
nodes = (
"331 212 OFFCURVE",
"331 267 OFFCURVE",
"331 298 CURVE SMOOTH",
"331 364 OFFCURVE",
"303 456 OFFCURVE",
"197 456 CURVE SMOOTH",
"164 456 OFFCURVE",
"141 447 OFFCURVE",
"125 436 CURVE",
"125 700 LINE",
"36 700 LINE",
"36 0 LINE",
"125 0 LINE",
"125 15 LINE",
"166 -5 OFFCURVE",
"221 -3 OFFCURVE",
"242 0 CURVE SMOOTH",
"304 9 OFFCURVE",
"331 62 OFFCURVE",
"331 172 CURVE SMOOTH"
);
},
{
closed = 1;
nodes = (
"125 339 LINE",
"130 355 OFFCURVE",
"138 363 OFFCURVE",
"185 363 CURVE SMOOTH",
"235 363 OFFCURVE",
"242 354 OFFCURVE",
"242 229 CURVE SMOOTH",
"242 129 LINE SMOOTH",
"242 85 OFFCURVE",
"221 81 OFFCURVE",
"182 81 CURVE SMOOTH",
"137 81 OFFCURVE",
"135 85 OFFCURVE",
"125 99 CURVE"
);
}
);
};
layerId = "8E5E9D5F-1CFD-4F58-89B8-A9F3704C2D63";
paths = (
{
closed = 1;
nodes = (
"330 212 OFFCURVE",
"330 298 OFFCURVE",
"330 298 CURVE SMOOTH",
"330 433 OFFCURVE",
"270 456 OFFCURVE",
"196 456 CURVE SMOOTH",
"155 456 OFFCURVE",
"144 449 OFFCURVE",
"124 436 CURVE",
"124 700 LINE",
"35 700 LINE",
"35 0 LINE",
"124 0 LINE",
"124 14 LINE",
"150 4 OFFCURVE",
"175 0 OFFCURVE",
"201 0 CURVE SMOOTH",
"294 0 OFFCURVE",
"330 51 OFFCURVE",
"330 172 CURVE SMOOTH"
);
},
{
closed = 1;
nodes = (
"124 339 LINE",
"130 358 OFFCURVE",
"143 363 OFFCURVE",
"184 363 CURVE SMOOTH",
"238 363 OFFCURVE",
"241 360 OFFCURVE",
"241 229 CURVE SMOOTH",
"241 129 LINE SMOOTH",
"241 83 OFFCURVE",
"239 81 OFFCURVE",
"181 81 CURVE SMOOTH",
"140 81 OFFCURVE",
"136 82 OFFCURVE",
"124 99 CURVE"
);
}
);
width = 361;
},
{
anchors = (
{
name = bottom;
position = "{159, 0}";
},
{
name = top;
position = "{159, 430}";
}
);
background = {
paths = (
{
closed = 1;
nodes = (
"296 174 OFFCURVE",
"296 295 OFFCURVE",
"296 329 CURVE SMOOTH",
"296 411 OFFCURVE",
"248 441 OFFCURVE",
"193 441 CURVE SMOOTH",
"173 441 OFFCURVE",
"140 437 OFFCURVE",
"117 418 CURVE",
"117 700 LINE",
"95 700 LINE",
"95 0 LINE",
"117 0 LINE",
"117 20 LINE",
"159 -13 OFFCURVE",
"234 -12 OFFCURVE",
"264 0 CURVE SMOOTH",
"295 12 OFFCURVE",
"296 43 OFFCURVE",
"296 132 CURVE SMOOTH"
);
},
{
closed = 1;
nodes = (
"117 382 LINE",
"124 397 OFFCURVE",
"137 411 OFFCURVE",
"194 411 CURVE SMOOTH",
"264 411 OFFCURVE",
"274 389 OFFCURVE",
"274 292 CURVE SMOOTH",
"274 58 LINE SMOOTH",
"274 18 OFFCURVE",
"252 10 OFFCURVE",
"195 10 CURVE SMOOTH",
"157 10 OFFCURVE",
"117 38 OFFCURVE",
"117 57 CURVE"
);
}
);
};
layerId = "2009CD91-3BC4-40DB-AFF0-7394B85F3EFC";
paths = (
{
closed = 1;
nodes = (
"321 164 OFFCURVE",
"321 265 OFFCURVE",
"321 299 CURVE SMOOTH",
"321 391 OFFCURVE",
"284 437 OFFCURVE",
"189 439 CURVE SMOOTH",
"138 440 OFFCURVE",
"99 429 OFFCURVE",
"82 408 CURVE",
"82 700 LINE",
"60 700 LINE",
"60 0 LINE",
"82 0 LINE",
"82 25 LINE",
"94 7 OFFCURVE",
"147 0 OFFCURVE",
"196 0 CURVE SMOOTH",
"283 0 OFFCURVE",
"321 18 OFFCURVE",
"321 122 CURVE SMOOTH"
);
},
{
closed = 1;
nodes = (
"82 382 LINE",
"92 404 OFFCURVE",
"122 415 OFFCURVE",
"173 415 CURVE SMOOTH",
"263 415 OFFCURVE",
"299 399 OFFCURVE",
"299 262 CURVE SMOOTH",
"299 103 LINE SMOOTH",
"299 31 OFFCURVE",
"262 21 OFFCURVE",
"172 21 CURVE SMOOTH",
"134 21 OFFCURVE",
"82 43 OFFCURVE",
"82 62 CURVE"
);
}
);
width = 356;
}
);
leftMetricsKey = n;
unicode = 0062;
},
{
glyphname = c;
lastChange = "2016-05-05 03:00:50 +0000";
layers = (
{
anchors = (
{
name = bottom;
position = "{158, 0}";
},
{
name = top;
position = "{154, 441}";
}
);
layerId = "8E5E9D5F-1CFD-4F58-89B8-A9F3704C2D63";
paths = (
{
closed = 1;
nodes = (
"287 450 LINE",
"210 454 LINE",
"79 454 OFFCURVE",
"32 418 OFFCURVE",
"32 245 CURVE SMOOTH",
"32 39 OFFCURVE",
"79 -4 OFFCURVE",
"210 -4 CURVE SMOOTH",
"230 -4 OFFCURVE",
"248 -4 OFFCURVE",
"287 0 CURVE",
"287 84 LINE",
"212 84 LINE SMOOTH",
"143 84 OFFCURVE",
"121 88 OFFCURVE",
"121 234 CURVE SMOOTH",
"121 362 OFFCURVE",
"144 366 OFFCURVE",
"228 366 CURVE SMOOTH",
"287 366 LINE"
);
}
);
width = 307;
},
{
anchors = (
{
name = bottom;
position = "{116, 0}";
},
{
name = top;
position = "{116, 430}";
}
);
layerId = "2009CD91-3BC4-40DB-AFF0-7394B85F3EFC";
paths = (
{
closed = 1;
nodes = (
"250 430 LINE",
"173 435 LINE",
"58 435 OFFCURVE",
"35 400 OFFCURVE",
"35 235 CURVE SMOOTH",
"35 23 OFFCURVE",
"51 -4 OFFCURVE",
"188 -4 CURVE SMOOTH",
"204 -4 OFFCURVE",
"214 -3 OFFCURVE",
"250 0 CURVE",
"250 22 LINE",
"185 22 LINE SMOOTH",
"67 22 OFFCURVE",
"57 37 OFFCURVE",
"57 224 CURVE SMOOTH",
"57 395 OFFCURVE",
"66 408 OFFCURVE",
"201 408 CURVE SMOOTH",
"250 408 LINE"
);
}
);
width = 280;
}
);
leftKerningGroup = noAscender;
rightKerningGroup = c;
unicode = 0063;
},
{
glyphname = d;
lastChange = "2016-05-03 05:18:21 +0000";
layers = (
{
anchors = (
{
name = bottom;
position = "{191, 0}";
},
{
name = center;
position = "{278, 598}";
},
{
name = top;
position = "{191, 450}";
},
{
name = topright;
position = "{347, 450}";
}
);
background = {
paths = (
{
closed = 1;
nodes = (
"32 57 OFFCURVE",
"58 2 OFFCURVE",
"142 -3 CURVE SMOOTH",
"159 -4 OFFCURVE",
"196 -4 OFFCURVE",
"243 14 CURVE",
"239 14 LINE",
"239 0 LINE",
"327 0 LINE",
"327 710 LINE",
"238 710 LINE",
"239 436 LINE",
"244 436 LINE",
"228 447 OFFCURVE",
"210 456 OFFCURVE",
"166 456 CURVE SMOOTH",
"32 456 OFFCURVE",
"32 369 OFFCURVE",
"32 172 CURVE SMOOTH"
);
},
{
closed = 1;
nodes = (
"242 99 LINE",
"231 85 OFFCURVE",
"218 81 OFFCURVE",
"181 81 CURVE SMOOTH",
"153 81 OFFCURVE",
"114 83 OFFCURVE",
"114 129 CURVE SMOOTH",
"114 229 LINE SMOOTH",
"114 354 OFFCURVE",
"120 363 OFFCURVE",
"178 363 CURVE SMOOTH",
"225 363 OFFCURVE",
"232 357 OFFCURVE",
"241 339 CURVE",
"241 99 LINE"
);
}
);
};
layerId = "8E5E9D5F-1CFD-4F58-89B8-A9F3704C2D63";
paths = (
{
closed = 1;
nodes = (
"32 61 OFFCURVE",
"59 9 OFFCURVE",
"121 0 CURVE SMOOTH",
"162 -5 OFFCURVE",
"213 1 OFFCURVE",
"238 15 CURVE",
"238 0 LINE",
"327 0 LINE",
"327 700 LINE",
"238 700 LINE",
"238 436 LINE",
"219 449 OFFCURVE",
"194 456 OFFCURVE",
"166 456 CURVE SMOOTH",
"82 456 OFFCURVE",
"32 397 OFFCURVE",
"32 298 CURVE SMOOTH",
"32 267 OFFCURVE",
"32 212 OFFCURVE",
"32 172 CURVE SMOOTH"
);
},
{
closed = 1;
nodes = (
"226 82 OFFCURVE",
"223 81 OFFCURVE",
"182 81 CURVE SMOOTH",
"124 81 OFFCURVE",
"121 83 OFFCURVE",
"121 129 CURVE SMOOTH",
"121 229 LINE SMOOTH",
"121 356 OFFCURVE",
"124 363 OFFCURVE",
"182 363 CURVE SMOOTH",
"228 363 OFFCURVE",
"231 362 OFFCURVE",
"238 339 CURVE",
"238 99 LINE"
);
}
);
width = 360;
},
{
anchors = (
{
name = bottom;
position = "{203, 0}";
},
{
name = center;
position = "{203, 215}";
},
{
name = top;
position = "{203, 430}";
},
{
name = topright;
position = "{351, 430}";
}
);
background = {
paths = (
{
closed = 1;
nodes = (
"30 18 OFFCURVE",
"68 -2 OFFCURVE",
"165 -2 CURVE SMOOTH",
"214 -2 OFFCURVE",
"267 7 OFFCURVE",
"279 25 CURVE",
"279 0 LINE",
"301 0 LINE",
"301 700 LINE",
"279 700 LINE",
"279 408 LINE",
"259 432 OFFCURVE",
"215 440 OFFCURVE",
"172 439 CURVE SMOOTH",
"67 437 OFFCURVE",
"30 391 OFFCURVE",
"30 299 CURVE SMOOTH",
"30 265 OFFCURVE",
"30 164 OFFCURVE",
"30 122 CURVE SMOOTH"
);
},
{
closed = 1;
nodes = (
"279 43 OFFCURVE",
"227 21 OFFCURVE",
"189 21 CURVE SMOOTH",
"99 21 OFFCURVE",
"52 31 OFFCURVE",
"52 103 CURVE SMOOTH",
"52 262 LINE SMOOTH",
"52 399 OFFCURVE",
"98 415 OFFCURVE",
"188 415 CURVE SMOOTH",
"255 415 OFFCURVE",
"272 397 OFFCURVE",
"279 382 CURVE",
"279 62 LINE"
);
}
);
};
layerId = "2009CD91-3BC4-40DB-AFF0-7394B85F3EFC";
paths = (
{
closed = 1;
nodes = (
"35 27 OFFCURVE",
"64 -2 OFFCURVE",
"160 -2 CURVE SMOOTH",
"217 -2 OFFCURVE",
"263 9 OFFCURVE",
"274 25 CURVE",
"274 0 LINE",
"296 0 LINE",
"296 700 LINE",
"274 700 LINE",
"274 408 LINE",
"257 429 OFFCURVE",
"218 440 OFFCURVE",
"167 439 CURVE SMOOTH",
"78 437 OFFCURVE",
"35 388 OFFCURVE",
"35 289 CURVE SMOOTH",
"35 255 OFFCURVE",
"35 164 OFFCURVE",
"35 122 CURVE SMOOTH"
);
},
{
closed = 1;
nodes = (
"274 43 OFFCURVE",
"222 21 OFFCURVE",
"184 21 CURVE SMOOTH",
"104 21 OFFCURVE",
"57 31 OFFCURVE",
"57 103 CURVE SMOOTH",
"57 262 LINE SMOOTH",
"57 399 OFFCURVE",
"103 415 OFFCURVE",
"183 415 CURVE SMOOTH",
"250 415 OFFCURVE",
"267 397 OFFCURVE",
"274 382 CURVE",
"274 62 LINE"
);
}
);
width = 356;
}
);
leftMetricsKey = c;
rightMetricsKey = n;
unicode = 0064;
},
{
color = 5;
glyphname = eth;
lastChange = "2016-04-28 04:35:39 +0000";
layers = (
{
layerId = "8E5E9D5F-1CFD-4F58-89B8-A9F3704C2D63";
paths = (
{
closed = 1;
nodes = (
"329 -9 OFFCURVE",
"344 98 OFFCURVE",
"344 226 CURVE SMOOTH",
"344 354 OFFCURVE",
"329 455 OFFCURVE",
"184 455 CURVE SMOOTH",
"33 455 OFFCURVE",
"18 354 OFFCURVE",
"18 226 CURVE SMOOTH",
"18 98 OFFCURVE",
"33 -9 OFFCURVE",
"184 -9 CURVE SMOOTH"
);
},
{
closed = 1;
nodes = (
"108 72 OFFCURVE",
"107 98 OFFCURVE",
"107 220 CURVE SMOOTH",
"107 342 OFFCURVE",
"108 371 OFFCURVE",
"184 371 CURVE SMOOTH",
"260 371 OFFCURVE",
"261 342 OFFCURVE",
"261 220 CURVE SMOOTH",
"261 98 OFFCURVE",
"260 72 OFFCURVE",
"184 72 CURVE SMOOTH"
);
},
{
closed = 1;
nodes = (
"62 563 LINE",
"265 563 OFFCURVE",
"261 341 OFFCURVE",
"261 246 CURVE",
"344 246 LINE",
"344 595 OFFCURVE",
"214 632 OFFCURVE",
"62 632 CURVE"
);
},
{
closed = 1;
nodes = (
"73 521 LINE",
"101 474 LINE",
"289 608 LINE",
"261 655 LINE"
);
}
);
width = 375;
},
{
layerId = "2009CD91-3BC4-40DB-AFF0-7394B85F3EFC";
paths = (
{
closed = 1;
nodes = (
"298 1 OFFCURVE",
"312 99 OFFCURVE",
"312 226 CURVE SMOOTH",
"312 353 OFFCURVE",
"298 445 OFFCURVE",
"168 445 CURVE SMOOTH",
"26 445 OFFCURVE",
"12 353 OFFCURVE",
"12 226 CURVE SMOOTH",
"12 99 OFFCURVE",
"26 1 OFFCURVE",
"168 1 CURVE SMOOTH"
);
},
{
closed = 1;
nodes = (
"82 62 OFFCURVE",
"81 98 OFFCURVE",
"81 220 CURVE SMOOTH",
"81 342 OFFCURVE",
"82 381 OFFCURVE",
"168 381 CURVE SMOOTH",
"254 381 OFFCURVE",
"255 342 OFFCURVE",
"255 220 CURVE SMOOTH",
"255 98 OFFCURVE",
"254 62 OFFCURVE",
"168 62 CURVE SMOOTH"
);
},
{
closed = 1;
nodes = (
"56 573 LINE",
"252 566 OFFCURVE",
"255 355 OFFCURVE",
"255 256 CURVE",
"312 256 LINE",
"310 581 OFFCURVE",
"200 620 OFFCURVE",
"56 622 CURVE"
);
},
{
closed = 1;
nodes = (
"70 518 LINE",
"88 488 LINE",
"260 611 LINE",
"242 641 LINE"
);
}
);
width = 344;
}
);
unicode = 00F0;
},
{
glyphname = e;
lastChange = "2016-05-03 05:18:26 +0000";
layers = (
{
anchors = (
{
name = bottom;
position = "{171, 0}";
},
{
name = ogonek;
position = "{283, 19}";
},
{
name = top;
position = "{173, 437}";
}
);
layerId = "8E5E9D5F-1CFD-4F58-89B8-A9F3704C2D63";
paths = (
{
closed = 1;
nodes = (
"22 61 OFFCURVE",
"67 -9 OFFCURVE",
"173 -9 CURVE SMOOTH",
"221 -9 OFFCURVE",
"273 6 OFFCURVE",
"300 28 CURVE",
"300 112 LINE",
"300 118 OFFCURVE",
"295 119 OFFCURVE",
"290 114 CURVE",
"257 86 OFFCURVE",
"212 72 OFFCURVE",
"174 78 CURVE SMOOTH",
"129 84 OFFCURVE",
"112 117 OFFCURVE",
"112 195 CURVE",
"312 195 LINE SMOOTH",
"316 195 OFFCURVE",
"320 197 OFFCURVE",
"320 200 CURVE SMOOTH",
"320 396 OFFCURVE",
"289 455 OFFCURVE",
"175 455 CURVE",
"59 455 OFFCURVE",
"22 401 OFFCURVE",
"22 225 CURVE SMOOTH"
);
},
{
closed = 1;
nodes = (
"112 350 OFFCURVE",
"124 371 OFFCURVE",
"175 371 CURVE SMOOTH",
"226 371 OFFCURVE",
"238 350 OFFCURVE",
"238 270 CURVE",
"112 270 LINE"
);
}
);
width = 342;
},
{
anchors = (
{
name = bottom;
position = "{166, 0}";
},
{
name = ogonek;
position = "{264, 22}";
},
{
name = top;
position = "{168, 422}";
}
);
layerId = "2009CD91-3BC4-40DB-AFF0-7394B85F3EFC";
paths = (
{
closed = 1;
nodes = (
"35 58 OFFCURVE",
"74 -3 OFFCURVE",
"170 -3 CURVE SMOOTH",
"215 -3 OFFCURVE",
"251 10 OFFCURVE",
"280 33 CURVE",
"280 53 LINE",
"280 57 OFFCURVE",
"277 57 OFFCURVE",
"273 54 CURVE",
"247 32 OFFCURVE",
"208 19 OFFCURVE",
"171 18 CURVE SMOOTH",
"91 15 OFFCURVE",
"60 69 OFFCURVE",
"57 209 CURVE",
"289 209 LINE SMOOTH",
"294 209 OFFCURVE",
"297 211 OFFCURVE",
"297 214 CURVE SMOOTH",
"297 382 OFFCURVE",
"266 434 OFFCURVE",
"168 434 CURVE SMOOTH",
"67 434 OFFCURVE",
"35 382 OFFCURVE",
"35 221 CURVE SMOOTH"
);
},
{
closed = 1;
nodes = (
"60 374 OFFCURVE",
"82 409 OFFCURVE",
"167 409 CURVE SMOOTH",
"254 409 OFFCURVE",
"275 375 OFFCURVE",
"275 236 CURVE",
"57 236 LINE"
);
}
);
width = 337;
}
);
leftKerningGroup = e;
rightKerningGroup = e;
unicode = 0065;
},
{
glyphname = f;
lastChange = "2016-04-28 04:48:12 +0000";
layers = (
{
anchors = (
{
name = bottom;
position = "{117, 0}";
},
{
name = top;
position = "{117, 450}";
}
);
layerId = "8E5E9D5F-1CFD-4F58-89B8-A9F3704C2D63";
paths = (
{
closed = 1;
nodes = (
"75 369 LINE",
"75 0 LINE",
"164 0 LINE",
"164 369 LINE",
"234 369 LINE",
"234 450 LINE",
"164 450 LINE",
"164 573 LINE SMOOTH",
"164 594 OFFCURVE",
"173 606 OFFCURVE",
"189 606 CURVE SMOOTH",
"237 606 LINE",
"237 696 LINE",
"160 700 LINE",
"100 700 OFFCURVE",
"75 651 OFFCURVE",
"75 536 CURVE",
"75 450 LINE",
"5 450 LINE",
"5 369 LINE"
);
}
);
width = 245;
},
{
anchors = (
{
name = bottom;
position = "{124, 0}";
},
{
name = top;
position = "{124, 430}";
}
);
layerId = "2009CD91-3BC4-40DB-AFF0-7394B85F3EFC";
paths = (
{
closed = 1;
nodes = (
"112 409 LINE",
"112 0 LINE",
"134 0 LINE",
"134 409 LINE",
"204 409 LINE",
"204 430 LINE",
"134 430 LINE",
"134 656 LINE SMOOTH",
"134 670 OFFCURVE",
"140 676 OFFCURVE",
"156 676 CURVE SMOOTH",
"202 676 LINE",
"202 698 LINE",
"156 700 LINE",
"125 699 OFFCURVE",
"112 686 OFFCURVE",
"112 657 CURVE",
"112 430 LINE",
"42 430 LINE",
"42 409 LINE"
);
}
);
width = 247;
}
);
unicode = 0066;
},
{
glyphname = g;
lastChange = "2016-05-03 00:17:54 +0000";
layers = (
{
anchors = (
{
name = bottom;
position = "{209, 0}";
},
{
name = top;
position = "{202, 440}";
}
);
background = {
paths = (
{
closed = 1;
nodes = (
"51 85 OFFCURVE",
"51 -1 OFFCURVE",
"182 -1 CURVE SMOOTH",
"212 -1 OFFCURVE",
"242 8 OFFCURVE",
"258 19 CURVE",
"257 -253 LINE",
"340 -253 LINE",
"340 451 LINE",
"258 451 LINE",
"258 437 LINE",
"211 454 OFFCURVE",
"186 453 OFFCURVE",
"158 453 CURVE SMOOTH",
"78 453 OFFCURVE",
"51 395 OFFCURVE",
"51 280 CURVE SMOOTH"
);
},
{
closed = 1;
nodes = (
"260 115 LINE",
"250 96 OFFCURVE",
"231 91 OFFCURVE",
"194 91 CURVE SMOOTH",
"136 91 OFFCURVE",
"127 94 OFFCURVE",
"127 224 CURVE SMOOTH",
"127 323 LINE SMOOTH",
"127 369 OFFCURVE",
"140 370 OFFCURVE",
"197 370 CURVE SMOOTH",
"224 370 OFFCURVE",
"247 369 OFFCURVE",
"260 352 CURVE"
);
}
);
};
layerId = "8E5E9D5F-1CFD-4F58-89B8-A9F3704C2D63";
paths = (
{
closed = 1;
nodes = (
"43 -214 OFFCURVE",
"54 -255 OFFCURVE",
"209 -255 CURVE SMOOTH",
"323 -255 OFFCURVE",
"344 -219 OFFCURVE",
"344 -35 CURVE SMOOTH",
"344 450 LINE",
"260 450 LINE",
"260 438 LINE",
"247 446 OFFCURVE",
"188 455 OFFCURVE",
"157 455 CURVE SMOOTH",
"68 455 OFFCURVE",
"35 393 OFFCURVE",
"35 227 CURVE SMOOTH",
"35 21 OFFCURVE",
"52 -6 OFFCURVE",
"186 -6 CURVE SMOOTH",
"210 -6 OFFCURVE",
"232 2 OFFCURVE",
"259 15 CURVE",
"259 -73 LINE SMOOTH",
"259 -169 OFFCURVE",
"252 -171 OFFCURVE",
"208 -171 CURVE SMOOTH",
"133 -171 OFFCURVE",
"123 -169 OFFCURVE",
"124 -73 CURVE",
"43 -73 LINE"
);
},
{
closed = 1;
nodes = (
"121 81 OFFCURVE",
"117 83 OFFCURVE",
"117 129 CURVE",
"117 229 LINE",
"117 356 OFFCURVE",
"121 363 OFFCURVE",
"194 363 CURVE SMOOTH",
"244 364 OFFCURVE",
"247 362 OFFCURVE",
"254 339 CURVE",
"254 99 LINE",
"242 82 OFFCURVE",
"239 81 OFFCURVE",
"197 81 CURVE SMOOTH"
);
}
);
width = 386;
},
{
anchors = (
{
name = bottom;
position = "{159, 0}";
},
{
name = top;
position = "{161, 430}";
}
);
layerId = "2009CD91-3BC4-40DB-AFF0-7394B85F3EFC";
paths = (
{
closed = 1;
nodes = (
"35 -237 OFFCURVE",
"54 -255 OFFCURVE",
"157 -255 CURVE SMOOTH",
"269 -255 OFFCURVE",
"275 -244 OFFCURVE",
"275 -45 CURVE SMOOTH",
"275 430 LINE",
"253 430 LINE",
"253 420 LINE",
"236 426 OFFCURVE",
"153 436 OFFCURVE",
"123 435 CURVE SMOOTH",
"40 433 OFFCURVE",
"25 402 OFFCURVE",
"25 192 CURVE SMOOTH",
"25 27 OFFCURVE",
"40 -3 OFFCURVE",
"123 -5 CURVE SMOOTH",
"202 -7 OFFCURVE",
"240 -2 OFFCURVE",
"252 11 CURVE",
"252 -83 LINE SMOOTH",
"252 -226 OFFCURVE",
"248 -233 OFFCURVE",
"156 -233 CURVE SMOOTH",
"71 -233 OFFCURVE",
"57 -220 OFFCURVE",
"57 -141 CURVE",
"35 -141 LINE"
);
},
{
closed = 1;
nodes = (
"63 18 OFFCURVE",
"50 31 OFFCURVE",
"47 131 CURVE",
"43 224 LINE",
"43 393 OFFCURVE",
"53 414 OFFCURVE",
"149 414 CURVE SMOOTH",
"224 414 OFFCURVE",
"246 402 OFFCURVE",
"254 373 CURVE",
"254 44 LINE",
"247 27 OFFCURVE",
"211 18 OFFCURVE",
"152 18 CURVE SMOOTH"
);
}
);
width = 345;
}
);
leftKerningGroup = noAscender;
rightMetricsKey = l;
unicode = 0067;
},
{
color = 5;
glyphname = glottalstop;
lastChange = "2016-04-28 04:35:39 +0000";
layers = (
{
layerId = "8E5E9D5F-1CFD-4F58-89B8-A9F3704C2D63";
paths = (
{
closed = 1;
nodes = (
"22 631 OFFCURVE",
"21 552 OFFCURVE",
"20 552 CURVE SMOOTH",
"19 552 OFFCURVE",
"52 605 OFFCURVE",
"102 617 CURVE SMOOTH",
"147 627 OFFCURVE",
"178 595 OFFCURVE",
"178 537 CURVE SMOOTH",
"178 383 OFFCURVE",
"91 430 OFFCURVE",
"91 227 CURVE SMOOTH",
"91 0 LINE",
"180 0 LINE",
"180 223 LINE SMOOTH",
"180 392 OFFCURVE",
"270 339 OFFCURVE",
"270 505 CURVE SMOOTH",
"270 644 OFFCURVE",
"206 714 OFFCURVE",
"100 704 CURVE SMOOTH",
"59 700 OFFCURVE",
"30 685 OFFCURVE",
"22 663 CURVE"
);
}
);
width = 290;
},
{
layerId = "2009CD91-3BC4-40DB-AFF0-7394B85F3EFC";
paths = (
{
closed = 1;
nodes = (
"37 680 OFFCURVE",
"35 609 OFFCURVE",
"36 609 CURVE SMOOTH",
"38 609 OFFCURVE",
"42 629 OFFCURVE",
"98 643 CURVE SMOOTH",
"153 655 OFFCURVE",
"193 615 OFFCURVE",
"193 548 CURVE SMOOTH",
"193 397 OFFCURVE",
"106 399 OFFCURVE",
"106 228 CURVE SMOOTH",
"106 1 LINE",
"165 1 LINE",
"165 224 LINE SMOOTH",
"165 354 OFFCURVE",
"255 370 OFFCURVE",
"255 516 CURVE SMOOTH",
"255 644 OFFCURVE",
"200 709 OFFCURVE",
"101 700 CURVE SMOOTH",
"67 697 OFFCURVE",
"44 686 OFFCURVE",
"37 671 CURVE"
);
}
);
width = 600;
}
);
unicode = 0294;
},
{
glyphname = h;
lastChange = "2016-05-03 00:14:06 +0000";
layers = (
{
anchors = (
{
name = bottom;
position = "{197, 0}";
},
{
name = center;
position = "{97, 225}";
},
{
name = top;
position = "{203, 660}";
}
);
background = {
anchors = (
{
name = top;
position = "{202, 450}";
}
);
paths = (
{
closed = 1;
nodes = (
"139 0 LINE",
"139 340 LINE",
"153 357 OFFCURVE",
"175 366 OFFCURVE",
"196 366 CURVE SMOOTH",
"228 366 OFFCURVE",
"259 346 OFFCURVE",
"259 300 CURVE SMOOTH",
"259 0 LINE",
"348 0 LINE",
"348 296 LINE SMOOTH",
"348 394 OFFCURVE",
"320 455 OFFCURVE",
"240 455 CURVE SMOOTH",
"191 455 OFFCURVE",
"158 432 OFFCURVE",
"139 417 CURVE",
"139 450 LINE",
"50 450 LINE",
"50 0 LINE"
);
}
);
};
layerId = "8E5E9D5F-1CFD-4F58-89B8-A9F3704C2D63";
paths = (
{
closed = 1;
nodes = (
"139 0 LINE",
"139 331 LINE",
"149 355 OFFCURVE",
"171 368 OFFCURVE",
"197 368 CURVE SMOOTH",
"234 368 OFFCURVE",
"255 342 OFFCURVE",
"255 302 CURVE SMOOTH",
"255 0 LINE",
"344 0 LINE",
"344 298 LINE SMOOTH",
"344 392 OFFCURVE",
"294 455 OFFCURVE",
"219 455 CURVE SMOOTH",
"185 455 OFFCURVE",
"157 442 OFFCURVE",
"139 419 CURVE",
"139 700 LINE",
"50 700 LINE",
"50 0 LINE"
);
}
);
width = 384;
},
{
anchors = (
{
name = bottom;
position = "{246, 0}";
},
{
name = center;
position = "{146, 215}";
},
{
name = top;
position = "{246, 430}";
}
);
background = {
paths = (
{
closed = 1;
nodes = (
"137 0 LINE",
"137 351 LINE",
"152 373 OFFCURVE",
"223 410 OFFCURVE",
"275 410 CURVE SMOOTH",
"346 410 OFFCURVE",
"360 341 OFFCURVE",
"360 295 CURVE SMOOTH",
"360 0 LINE",
"382 0 LINE",
"382 276 LINE SMOOTH",
"382 374 OFFCURVE",
"350 433 OFFCURVE",
"273 433 CURVE SMOOTH",
"215 433 OFFCURVE",
"155 399 OFFCURVE",
"137 380 CURVE",
"137 430 LINE",
"115 430 LINE",
"115 0 LINE"
);
}
);
};
layerId = "2009CD91-3BC4-40DB-AFF0-7394B85F3EFC";
paths = (
{
closed = 1;
nodes = (
"102 0 LINE",
"102 355 LINE",
"120 389 OFFCURVE",
"168 414 OFFCURVE",
"213 414 CURVE SMOOTH",
"280 414 OFFCURVE",
"325 369 OFFCURVE",
"325 300 CURVE SMOOTH",
"325 0 LINE",
"347 0 LINE",
"347 300 LINE SMOOTH",
"347 381 OFFCURVE",
"297 436 OFFCURVE",
"224 436 CURVE SMOOTH",
"184 436 OFFCURVE",
"131 412 OFFCURVE",
"102 382 CURVE",
"102 700 LINE",
"80 700 LINE",
"80 0 LINE"
);
}
);
width = 397;
}
);
unicode = 0068;
},
{
glyphname = idotless;
lastChange = "2016-04-28 04:35:39 +0000";
layers = (
{
anchors = (
{
name = bottom;
position = "{86, 0}";
},
{
name = ogonek;
position = "{110, 10}";
},
{
name = top;
position = "{87, 441}";
}
);
layerId = "8E5E9D5F-1CFD-4F58-89B8-A9F3704C2D63";
paths = (
{
closed = 1;
nodes = (
"131 0 LINE",
"131 450 LINE",
"42 450 LINE",
"42 0 LINE"
);
}
);
width = 173;
},
{
anchors = (
{
name = bottom;
position = "{81, 0}";
},
{
name = ogonek;
position = "{92, 10}";
},
{
name = top;
position = "{81, 430}";
}
);
layerId = "2009CD91-3BC4-40DB-AFF0-7394B85F3EFC";
paths = (
{
closed = 1;
nodes = (
"92 0 LINE",
"92 430 LINE",
"70 430 LINE",
"70 0 LINE"
);
}
);
width = 162;
}
);
leftKerningGroup = Llike;
unicode = 0131;
},
{
glyphname = jdotless;
lastChange = "2016-05-03 05:21:37 +0000";
layers = (
{
anchors = (
{
name = bottom;
position = "{79, 0}";
},
{
name = top;
position = "{79, 441}";
}
);
layerId = "8E5E9D5F-1CFD-4F58-89B8-A9F3704C2D63";
paths = (
{
closed = 1;
nodes = (
"39 -248 LINE",
"107 -248 OFFCURVE",
"124 -215 OFFCURVE",
"124 -85 CURVE SMOOTH",
"124 451 LINE",
"35 451 LINE",
"35 -136 LINE SMOOTH",
"35 -158 OFFCURVE",
"34 -159 OFFCURVE",
"20 -159 CURVE SMOOTH",
"-38 -159 LINE",
"-38 -244 LINE"
);
}
);
width = 157;
},
{
anchors = (
{
name = bottom;
position = "{78, 0}";
},
{
name = top;
position = "{78, 430}";
}
);
layerId = "2009CD91-3BC4-40DB-AFF0-7394B85F3EFC";
paths = (
{
closed = 1;
nodes = (
"54 -237 LINE",
"85 -237 OFFCURVE",
"92 -222 OFFCURVE",
"92 -165 CURVE SMOOTH",
"92 440 LINE",
"70 440 LINE",
"70 -189 LINE SMOOTH",
"70 -210 OFFCURVE",
"69 -212 OFFCURVE",
"58 -212 CURVE SMOOTH",
"32 -212 LINE",
"32 -234 LINE"
);
}
);
width = 152;
}
);
leftKerningGroup = j;
rightKerningGroup = j;
rightMetricsKey = n;
unicode = 0237;
},
{
glyphname = k;
lastChange = "2016-04-28 04:35:39 +0000";
layers = (
{
anchors = (
{
name = bottom;
position = "{170, 0}";
},
{
name = top;
position = "{170, 450}";
}
);
layerId = "8E5E9D5F-1CFD-4F58-89B8-A9F3704C2D63";
paths = (
{
closed = 1;
nodes = (
"35 0 LINE",
"124 0 LINE",
"124 173 LINE",
"145 213 LINE",
"238 0 LINE",
"327 0 LINE",
"200 281 LINE",
"314 450 LINE",
"206 450 LINE",
"124 293 LINE",
"124 700 LINE",
"35 700 LINE"
);
}
);
width = 338;
},
{
anchors = (
{
name = bottom;
position = "{157, 0}";
},
{
name = top;
position = "{157, 430}";
}
);
guideLines = (
{
angle = 56;
position = "{209, 328}";
}
);
layerId = "2009CD91-3BC4-40DB-AFF0-7394B85F3EFC";
paths = (
{
closed = 1;
nodes = (
"70 0 LINE",
"92 0 LINE",
"92 169 LINE",
"150 239 LINE",
"280 0 LINE",
"302 0 LINE",
"164 260 LINE",
"290 434 LINE",
"262 434 LINE",
"92 201 LINE",
"92 700 LINE",
"70 700 LINE"
);
}
);
width = 321;
}
);
leftKerningGroup = Llike;
unicode = 006B;
},
{
glyphname = l;
lastChange = "2016-04-28 04:35:39 +0000";
layers = (
{
anchors = (
{
name = bottom;
position = "{90, 0}";
},
{
name = center;
position = "{90, 355}";
},
{
name = top;
position = "{90, 670}";
},
{
name = topright;
position = "{159, 670}";
}
);
layerId = "8E5E9D5F-1CFD-4F58-89B8-A9F3704C2D63";
paths = (
{
closed = 1;
nodes = (
"131 0 LINE",
"131 700 LINE",
"42 700 LINE",
"42 0 LINE"
);
}
);
width = 173;
},
{
anchors = (
{
name = bottom;
position = "{84, 0}";
},
{
name = center;
position = "{84, 355}";
},
{
name = top;
position = "{84, 680}";
},
{
name = topright;
position = "{120, 680}";
}
);
layerId = "2009CD91-3BC4-40DB-AFF0-7394B85F3EFC";
paths = (
{
closed = 1;
nodes = (
"92 0 LINE",
"92 700 LINE",
"70 700 LINE",
"70 0 LINE"
);
}
);
width = 162;
}
);
leftKerningGroup = Llike;
leftMetricsKey = i;
rightMetricsKey = i;
unicode = 006C;
},
{
color = 5;
glyphname = lambdastroke;
lastChange = "2016-04-28 04:35:39 +0000";
layers = (
{
layerId = "8E5E9D5F-1CFD-4F58-89B8-A9F3704C2D63";
paths = (
{
closed = 1;
nodes = (
"127 604 OFFCURVE",
"218 459 OFFCURVE",
"227.276 371.623 CURVE",
"39 0 LINE",
"136 0 LINE",
"278.712 256.881 LINE",
"302 199 OFFCURVE",
"346 88 OFFCURVE",
"413 0 CURVE",
"509 0 LINE",
"359 220 OFFCURVE",
"285 700 OFFCURVE",
"35 700 CURVE",
"35 604 LINE"
);
},
{
closed = 1;
nodes = (
"121 413 LINE",
"363 561 LINE",
"317 634 LINE",
"75 486 LINE"
);
}
);
width = 544;
},
{
layerId = "2009CD91-3BC4-40DB-AFF0-7394B85F3EFC";
paths = (
{
closed = 1;
nodes = (
"146 619 OFFCURVE",
"236 424 OFFCURVE",
"243 348 CURVE",
"63 0 LINE",
"127 0 LINE",
"291 280 LINE",
"309 241 OFFCURVE",
"372 99 OFFCURVE",
"430 0 CURVE",
"497 0 LINE",
"369 225 OFFCURVE",
"267 682 OFFCURVE",
"50 700 CURVE",
"50 634 LINE"
);
},
{
closed = 1;
nodes = (
"131 440 LINE",
"347 572 LINE",
"317 619 LINE",
"101 487 LINE"
);
}
);
width = 600;
}
);
unicode = 019B;
},
{
glyphname = lslash;
lastChange = "2016-04-28 04:35:39 +0000";
layers = (
{
components = (
{
alignment = -1;
name = l;
transform = "{1, 0, 0, 1, 39, 0}";
}
);
layerId = "8E5E9D5F-1CFD-4F58-89B8-A9F3704C2D63";
paths = (
{
closed = 1;
nodes = (
"12 358 LINE",
"12 253 LINE",
"237 401 LINE",
"237 506 LINE"
);
}
);
width = 249;
},
{
components = (
{
alignment = -1;
name = l;
transform = "{1, 0, 0, 1, 42, 0}";
}
);
layerId = "2009CD91-3BC4-40DB-AFF0-7394B85F3EFC";
paths = (
{
closed = 1;
nodes = (
"15 337 LINE",
"15 307 LINE",
"240 455 LINE",
"240 485 LINE"
);
}
);
width = 255;
}
);
leftKerningGroup = Llike;
unicode = 0142;
},
{
glyphname = m;
lastChange = "2016-04-30 00:23:47 +0000";
layers = (
{
anchors = (
{
name = bottom;
position = "{255, 0}";
},
{
name = top;
position = "{255, 450}";
}
);
hints = (
{
horizontal = 1;
origin = "{0, 28}";
target = "{0, 4}";
type = TTStem;
options = 1;
},
{
horizontal = 1;
origin = "{0, 22}";
target = "{0, 13}";
type = TTStem;
options = 1;
},
{
horizontal = 1;
origin = "{0, 32}";
target = "{0, 33}";
type = TTStem;
},
{
horizontal = 1;
origin = "{0, 0}";
target = "{0, 34}";
type = TTStem;
},
{
horizontal = 1;
origin = "{0, 8}";
type = Anchor;
},
{
horizontal = 1;
origin = "{0, 17}";
type = Anchor;
}
);
layerId = "8E5E9D5F-1CFD-4F58-89B8-A9F3704C2D63";
paths = (
{
closed = 1;
nodes = (
"124 0 LINE",
"124 346 LINE",
"136 362 OFFCURVE",
"149 370 OFFCURVE",
"162 370 CURVE SMOOTH",
"189 370 OFFCURVE",
"208 343 OFFCURVE",
"208 304 CURVE SMOOTH",
"208 0 LINE",
"297 0 LINE",
"297 349 LINE",
"309 364 OFFCURVE",
"319 370 OFFCURVE",
"335 370 CURVE SMOOTH",
"363 370 OFFCURVE",
"383 343 OFFCURVE",
"383 304 CURVE SMOOTH",
"383 0 LINE",
"472 0 LINE",
"472 300 LINE SMOOTH",
"472 399 OFFCURVE",
"433 453 OFFCURVE",
"362 453 CURVE SMOOTH",
"331 453 OFFCURVE",
"307 443 OFFCURVE",
"284 420 CURVE",
"273 439 OFFCURVE",
"238 453 OFFCURVE",
"204 453 CURVE SMOOTH",
"175 453 OFFCURVE",
"148 441 OFFCURVE",
"124 417 CURVE",
"124 450 LINE",
"35 450 LINE",
"35 0 LINE"
);
}
);
width = 505;
},
{
anchors = (
{
name = bottom;
position = "{235, 0}";
},
{
name = top;
position = "{235, 430}";
}
);
background = {
paths = (
{
closed = 1;
nodes = (
"84 0 LINE",
"84 355 LINE",
"104 377 OFFCURVE",
"131 410 OFFCURVE",
"192 410 CURVE SMOOTH",
"263 410 OFFCURVE",
"307 366 OFFCURVE",
"307 300 CURVE SMOOTH",
"307 0 LINE",
"329 0 LINE",
"329 300 LINE SMOOTH",
"329 398 OFFCURVE",
"267 436 OFFCURVE",
"204 436 CURVE SMOOTH",
"144 436 OFFCURVE",
"102 401 OFFCURVE",
"84 382 CURVE",
"84 430 LINE",
"62 430 LINE",
"62 0 LINE"
);
}
);
};
layerId = "2009CD91-3BC4-40DB-AFF0-7394B85F3EFC";
paths = (
{
closed = 1;
nodes = (
"81 0 LINE",
"82 355 LINE",
"100 391 OFFCURVE",
"127 410 OFFCURVE",
"162 410 CURVE SMOOTH",
"211 410 OFFCURVE",
"247 373 OFFCURVE",
"247 324 CURVE SMOOTH",
"247 0 LINE",
"268 0 LINE",
"268 359 LINE",
"282 389 OFFCURVE",
"319 410 OFFCURVE",
"356 410 CURVE SMOOTH",
"406 410 OFFCURVE",
"434 371 OFFCURVE",
"434 300 CURVE SMOOTH",
"434 0 LINE",
"456 0 LINE",
"456 300 LINE SMOOTH",
"456 384 OFFCURVE",
"417 435 OFFCURVE",
"354 435 CURVE SMOOTH",
"317 435 OFFCURVE",
"284 417 OFFCURVE",
"256 382 CURVE",
"240 414 OFFCURVE",
"206 435 OFFCURVE",
"166 435 CURVE SMOOTH",
"129 435 OFFCURVE",
"101 417 OFFCURVE",
"82 382 CURVE",
"82 430 LINE",
"60 430 LINE",
"60 0 LINE"
);
}
);
width = 516;
}
);
leftKerningGroup = noAscender;
leftMetricsKey = n;
rightMetricsKey = n;
unicode = 006D;
},
{
glyphname = n;
lastChange = "2016-05-03 05:24:18 +0000";
layers = (
{
anchors = (
{
name = bottom;
position = "{184, 0}";
},
{
name = top;
position = "{187, 450}";
}
);
hints = (
{
horizontal = 1;
origin = "{0, 19}";
type = Anchor;
},
{
horizontal = 1;
origin = "{0, 18}";
target = "{0, 4}";
type = TTStem;
},
{
horizontal = 1;
origin = "{0, 13}";
target = "{0, 4}";
type = TTStem;
},
{
horizontal = 1;
origin = "{0, 8}";
type = Anchor;
}
);
layerId = "8E5E9D5F-1CFD-4F58-89B8-A9F3704C2D63";
paths = (
{
closed = 1;
nodes = (
"124 0 LINE",
"124 340 LINE",
"140 358 OFFCURVE",
"159 370 OFFCURVE",
"181 370 CURVE SMOOTH",
"219 370 OFFCURVE",
"244 343 OFFCURVE",
"244 303 CURVE SMOOTH",
"244 0 LINE",
"333 0 LINE",
"333 299 LINE SMOOTH",
"333 392 OFFCURVE",
"287 453 OFFCURVE",
"217 453 CURVE SMOOTH",
"187 453 OFFCURVE",
"155 442 OFFCURVE",
"124 417 CURVE",
"124 450 LINE",
"35 450 LINE",
"35 0 LINE"
);
}
);
width = 366;
},
{
anchors = (
{
name = bottom;
position = "{194, 0}";
},
{
name = top;
position = "{182, 434}";
}
);
layerId = "2009CD91-3BC4-40DB-AFF0-7394B85F3EFC";
paths = (
{
closed = 1;
nodes = (
"82 0 LINE",
"82 355 LINE",
"100 390 OFFCURVE",
"146 414 OFFCURVE",
"193 414 CURVE SMOOTH",
"259 414 OFFCURVE",
"305 367 OFFCURVE",
"305 300 CURVE SMOOTH",
"305 0 LINE",
"327 0 LINE",
"327 300 LINE SMOOTH",
"327 378 OFFCURVE",
"274 436 OFFCURVE",
"204 436 CURVE SMOOTH",
"162 436 OFFCURVE",
"113 414 OFFCURVE",
"82 382 CURVE",
"82 430 LINE",
"60 430 LINE",
"60 0 LINE"
);
}
);
width = 387;
}
);
leftKerningGroup = n;
rightKerningGroup = n;
unicode = 006E;
},
{
color = 5;
glyphname = eng;
lastChange = "2016-04-28 04:35:39 +0000";
layers = (
{
layerId = "8E5E9D5F-1CFD-4F58-89B8-A9F3704C2D63";
paths = (
{
closed = 1;
nodes = (
"124 0 LINE",
"124 340 LINE",
"138 357 OFFCURVE",
"160 366 OFFCURVE",
"181 366 CURVE SMOOTH",
"213 366 OFFCURVE",
"244 346 OFFCURVE",
"244 300 CURVE SMOOTH",
"244 -124 LINE SMOOTH",
"244 -147 OFFCURVE",
"244 -147 OFFCURVE",
"229 -147 CURVE SMOOTH",
"171 -147 LINE",
"171 -232 LINE",
"248 -236 LINE",
"332 -236 OFFCURVE",
"333 -161 OFFCURVE",
"333 -73 CURVE SMOOTH",
"333 296 LINE SMOOTH",
"333 394 OFFCURVE",
"305 455 OFFCURVE",
"225 455 CURVE SMOOTH",
"176 455 OFFCURVE",
"143 432 OFFCURVE",
"124 417 CURVE",
"124 450 LINE",
"35 450 LINE",
"35 0 LINE"
);
}
);
width = 366;
},
{
layerId = "2009CD91-3BC4-40DB-AFF0-7394B85F3EFC";
paths = (
{
closed = 1;
nodes = (
"92 0 LINE",
"92 312 LINE",
"101 339 OFFCURVE",
"126 361 OFFCURVE",
"160 361 CURVE SMOOTH",
"205 361 OFFCURVE",
"235 341 OFFCURVE",
"235 295 CURVE SMOOTH",
"235 -161 LINE SMOOTH",
"235 -184 OFFCURVE",
"235 -184 OFFCURVE",
"220 -184 CURVE SMOOTH",
"162 -184 LINE",
"162 -245 LINE",
"226 -248 LINE",
"293 -248 OFFCURVE",
"297 -184 OFFCURVE",
"297 -96 CURVE SMOOTH",
"297 276 LINE SMOOTH",
"297 374 OFFCURVE",
"265 433 OFFCURVE",
"188 433 CURVE SMOOTH",
"142 433 OFFCURVE",
"110 412 OFFCURVE",
"92 397 CURVE",
"92 430 LINE",
"30 430 LINE",
"30 0 LINE"
);
}
);
width = 327;
}
);
leftMetricsKey = n;
rightMetricsKey = n;
unicode = 014B;
},
{
glyphname = o;
lastChange = "2016-05-03 05:18:07 +0000";
layers = (
{
anchors = (
{
name = bottom;
position = "{192, 0}";
},
{
name = center;
position = "{192, 225}";
},
{
name = ogonek;
position = "{339, 10}";
},
{
name = top;
position = "{188, 435}";
},
{
name = topright;
position = "{306, 342}";
}
);
layerId = "8E5E9D5F-1CFD-4F58-89B8-A9F3704C2D63";
paths = (
{
closed = 1;
nodes = (
"313 -10 OFFCURVE",
"358 55 OFFCURVE",
"358 226 CURVE SMOOTH",
"358 394 OFFCURVE",
"314 460 OFFCURVE",
"192 460 CURVE SMOOTH",
"70 460 OFFCURVE",
"26 394 OFFCURVE",
"26 226 CURVE SMOOTH",
"26 55 OFFCURVE",
"71 -10 OFFCURVE",
"192 -10 CURVE SMOOTH"
);
},
{
closed = 1;
nodes = (
"122 72 OFFCURVE",
"115 86 OFFCURVE",
"115 220 CURVE SMOOTH",
"115 356 OFFCURVE",
"123 371 OFFCURVE",
"192 371 CURVE SMOOTH",
"261 371 OFFCURVE",
"269 356 OFFCURVE",
"269 220 CURVE SMOOTH",
"269 86 OFFCURVE",
"262 72 OFFCURVE",
"192 72 CURVE SMOOTH"
);
}
);
width = 384;
},
{
anchors = (
{
name = bottom;
position = "{186, -5}";
},
{
name = center;
position = "{186, 215}";
},
{
name = ogonek;
position = "{333, 0}";
},
{
name = top;
position = "{186, 433}";
},
{
name = topright;
position = "{281, 323}";
}
);
layerId = "2009CD91-3BC4-40DB-AFF0-7394B85F3EFC";
paths = (
{
closed = 1;
nodes = (
"298 -5 OFFCURVE",
"332 50 OFFCURVE",
"332 215 CURVE SMOOTH",
"332 379 OFFCURVE",
"298 435 OFFCURVE",
"186 435 CURVE SMOOTH",
"74 435 OFFCURVE",
"40 379 OFFCURVE",
"40 215 CURVE SMOOTH",
"40 50 OFFCURVE",
"74 -5 OFFCURVE",
"186 -5 CURVE SMOOTH"
);
},
{
closed = 1;
nodes = (
"90 15 OFFCURVE",
"62 64 OFFCURVE",
"62 211 CURVE SMOOTH",
"62 361 OFFCURVE",
"90 411 OFFCURVE",
"186 411 CURVE SMOOTH",
"282 411 OFFCURVE",
"310 361 OFFCURVE",
"310 211 CURVE SMOOTH",
"310 64 OFFCURVE",
"282 15 OFFCURVE",
"186 15 CURVE SMOOTH"
);
}
);
width = 372;
}
);
leftKerningGroup = o;
rightKerningGroup = o;
unicode = 006F;
},
{
color = 5;
glyphname = oe;
lastChange = "2016-04-28 04:35:39 +0000";
layers = (
{
layerId = "8E5E9D5F-1CFD-4F58-89B8-A9F3704C2D63";
paths = (
{
closed = 1;
nodes = (
"26 98 OFFCURVE",
"41 -9 OFFCURVE",
"192 -9 CURVE SMOOTH",
"250 -9 OFFCURVE",
"288 7 OFFCURVE",
"313 33 CURVE",
"335 7 OFFCURVE",
"369 -9 OFFCURVE",
"419 -9 CURVE SMOOTH",
"456 -9 OFFCURVE",
"521 0 OFFCURVE",
"546 28 CURVE",
"546 112 LINE SMOOTH",
"546 118 OFFCURVE",
"538 118 OFFCURVE",
"536 114 CURVE",
"499 84 OFFCURVE",
"450 76 OFFCURVE",
"420 78 CURVE SMOOTH",
"367 82 OFFCURVE",
"358 117 OFFCURVE",
"358 195 CURVE",
"558 195 LINE SMOOTH",
"562 195 OFFCURVE",
"566 197 OFFCURVE",
"566 200 CURVE SMOOTH",
"566 387 OFFCURVE",
"538 453 OFFCURVE",
"419 453 CURVE SMOOTH",
"366 453 OFFCURVE",
"332 440 OFFCURVE",
"309 418 CURVE",
"284 441 OFFCURVE",
"247 455 OFFCURVE",
"192 455 CURVE SMOOTH",
"41 455 OFFCURVE",
"26 354 OFFCURVE",
"26 226 CURVE SMOOTH"
);
},
{
closed = 1;
nodes = (
"115 342 OFFCURVE",
"116 371 OFFCURVE",
"192 371 CURVE SMOOTH",
"271 371 OFFCURVE",
"268 334 OFFCURVE",
"268 225 CURVE SMOOTH",
"268 109 OFFCURVE",
"275 72 OFFCURVE",
"192 72 CURVE SMOOTH",
"116 72 OFFCURVE",
"115 98 OFFCURVE",
"115 220 CURVE SMOOTH"
);
},
{
closed = 1;
nodes = (
"359 338 OFFCURVE",
"360 369 OFFCURVE",
"419 369 CURVE SMOOTH",
"478 369 OFFCURVE",
"483 338 OFFCURVE",
"484 270 CURVE",
"358 270 LINE"
);
}
);
width = 601;
},
{
layerId = "2009CD91-3BC4-40DB-AFF0-7394B85F3EFC";
paths = (
{
closed = 1;
nodes = (
"17 98 OFFCURVE",
"31 -4 OFFCURVE",
"163 -4 CURVE SMOOTH",
"221 -4 OFFCURVE",
"256 16 OFFCURVE",
"277 47 CURVE",
"299 11 OFFCURVE",
"333 -3 OFFCURVE",
"382 -3 CURVE SMOOTH",
"429 -3 OFFCURVE",
"471 9 OFFCURVE",
"492 28 CURVE",
"492 85 LINE SMOOTH",
"492 90 OFFCURVE",
"484 94 OFFCURVE",
"480 88 CURVE",
"450 67 OFFCURVE",
"415 55 OFFCURVE",
"383 58 CURVE SMOOTH",
"347 61 OFFCURVE",
"311 84 OFFCURVE",
"311 189 CURVE",
"501 189 LINE SMOOTH",
"503 189 OFFCURVE",
"509 189 OFFCURVE",
"509 194 CURVE SMOOTH",
"509 385 OFFCURVE",
"482 439 OFFCURVE",
"380 439 CURVE SMOOTH",
"322 439 OFFCURVE",
"289 421 OFFCURVE",
"271 391 CURVE",
"249 417 OFFCURVE",
"215 433 OFFCURVE",
"163 433 CURVE SMOOTH",
"31 433 OFFCURVE",
"17 332 OFFCURVE",
"17 215 CURVE SMOOTH"
);
},
{
closed = 1;
nodes = (
"79 323 OFFCURVE",
"87 370 OFFCURVE",
"163 370 CURVE SMOOTH",
"239 370 OFFCURVE",
"247 323 OFFCURVE",
"247 211 CURVE SMOOTH",
"247 99 OFFCURVE",
"239 55 OFFCURVE",
"163 55 CURVE SMOOTH",
"87 55 OFFCURVE",
"79 99 OFFCURVE",
"79 211 CURVE SMOOTH"
);
},
{
closed = 1;
nodes = (
"312 328 OFFCURVE",
"313 377 OFFCURVE",
"380 377 CURVE SMOOTH",
"449 377 OFFCURVE",
"453 329 OFFCURVE",
"453 244 CURVE",
"311 244 LINE"
);
}
);
width = 526;
}
);
leftMetricsKey = o;
rightMetricsKey = e;
unicode = 0153;
},
{
glyphname = p;
lastChange = "2016-05-03 00:16:33 +0000";
layers = (
{
anchors = (
{
name = bottom;
position = "{174, 0}";
},
{
name = top;
position = "{174, 450}";
}
);
layerId = "8E5E9D5F-1CFD-4F58-89B8-A9F3704C2D63";
paths = (
{
closed = 1;
nodes = (
"124 -255 LINE",
"124 15 LINE",
"146 5 OFFCURVE",
"173 0 OFFCURVE",
"209 0 CURVE SMOOTH",
"306 0 OFFCURVE",
"331 37 OFFCURVE",
"331 182 CURVE",
"331 280 LINE",
"331 403 OFFCURVE",
"298 455 OFFCURVE",
"218 455 CURVE SMOOTH",
"193 455 OFFCURVE",
"163 450 OFFCURVE",
"124 437 CURVE",
"124 450 LINE",
"35 450 LINE",
"35 -255 LINE"
);
},
{
closed = 1;
nodes = (
"124 339 LINE",
"131 361 OFFCURVE",
"133 363 OFFCURVE",
"180 363 CURVE SMOOTH",
"238 363 OFFCURVE",
"241 360 OFFCURVE",
"241 229 CURVE SMOOTH",
"241 129 LINE SMOOTH",
"241 83 OFFCURVE",
"238 81 OFFCURVE",
"180 81 CURVE SMOOTH",
"139 81 OFFCURVE",
"136 82 OFFCURVE",
"124 99 CURVE"
);
}
);
width = 357;
},
{
anchors = (
{
name = bottom;
position = "{163, 0}";
},
{
name = top;
position = "{163, 430}";
}
);
layerId = "2009CD91-3BC4-40DB-AFF0-7394B85F3EFC";
paths = (
{
closed = 1;
nodes = (
"82 -253 LINE",
"82 23 LINE",
"96 10 OFFCURVE",
"152 -1 OFFCURVE",
"205 -1 CURVE SMOOTH",
"309 -1 OFFCURVE",
"321 15 OFFCURVE",
"321 162 CURVE SMOOTH",
"321 250 LINE SMOOTH",
"321 407 OFFCURVE",
"305 435 OFFCURVE",
"199 435 CURVE SMOOTH",
"152 435 OFFCURVE",
"100 422 OFFCURVE",
"82 407 CURVE",
"82 431 LINE",
"60 431 LINE",
"60 -253 LINE"
);
},
{
closed = 1;
nodes = (
"82 382 LINE",
"92 404 OFFCURVE",
"122 415 OFFCURVE",
"173 415 CURVE SMOOTH",
"271 415 OFFCURVE",
"299 409 OFFCURVE",
"299 262 CURVE SMOOTH",
"299 103 LINE SMOOTH",
"299 23 OFFCURVE",
"274 21 OFFCURVE",
"172 21 CURVE SMOOTH",
"134 21 OFFCURVE",
"82 43 OFFCURVE",
"82 62 CURVE"
);
}
);
width = 361;
}
);
leftKerningGroup = noAscender;
leftMetricsKey = n;
rightKerningGroup = noAscender;
rightMetricsKey = o;
unicode = 0070;
},
{
color = 5;
glyphname = thorn;
lastChange = "2016-04-28 04:35:39 +0000";
layers = (
{
anchors = (
{
name = bottom;
position = "{174, 0}";
},
{
name = top;
position = "{174, 450}";
}
);
layerId = "8E5E9D5F-1CFD-4F58-89B8-A9F3704C2D63";
paths = (
{
closed = 1;
nodes = (
"125 -253 LINE",
"125 14 LINE",
"137 9 OFFCURVE",
"148 6 OFFCURVE",
"159 4 CURVE SMOOTH",
"178 0 OFFCURVE",
"196 -1 OFFCURVE",
"211 -1 CURVE SMOOTH",
"313 -1 OFFCURVE",
"332 47 OFFCURVE",
"332 182 CURVE SMOOTH",
"332 280 LINE SMOOTH",
"332 391 OFFCURVE",
"306 450 OFFCURVE",
"228 453 CURVE",
"218 455 OFFCURVE",
"208 456 OFFCURVE",
"196 456 CURVE SMOOTH",
"174 456 OFFCURVE",
"151 452 OFFCURVE",
"125 438 CURVE",
"125 700 LINE",
"35 700 LINE",
"35 -253 LINE"
);
},
{
closed = 1;
nodes = (
"125 339 LINE",
"130 355 OFFCURVE",
"138 363 OFFCURVE",
"184 363 CURVE SMOOTH",
"234 363 OFFCURVE",
"241 354 OFFCURVE",
"241 229 CURVE SMOOTH",
"241 129 LINE SMOOTH",
"241 85 OFFCURVE",
"220 81 OFFCURVE",
"181 81 CURVE SMOOTH",
"137 81 OFFCURVE",
"135 85 OFFCURVE",
"125 99 CURVE"
);
}
);
width = 358;
},
{
anchors = (
{
name = bottom;
position = "{153, 0}";
},
{
name = top;
position = "{153, 430}";
}
);
layerId = "2009CD91-3BC4-40DB-AFF0-7394B85F3EFC";
paths = (
{
closed = 1;
nodes = (
"89 -252 LINE",
"89 14 LINE",
"99 10 OFFCURVE",
"130 7 OFFCURVE",
"141 5 CURVE SMOOTH",
"155 2 OFFCURVE",
"171 0 OFFCURVE",
"190 0 CURVE SMOOTH",
"276 0 OFFCURVE",
"296 31 OFFCURVE",
"296 168 CURVE SMOOTH",
"296 266 LINE SMOOTH",
"296 379 OFFCURVE",
"270 422 OFFCURVE",
"205 424 CURVE",
"195 426 OFFCURVE",
"186 427 OFFCURVE",
"175 427 CURVE SMOOTH",
"142 427 OFFCURVE",
"116 417 OFFCURVE",
"88 397 CURVE",
"88 671 LINE",
"30 671 LINE",
"30 -252 LINE"
);
},
{
closed = 1;
nodes = (
"89 327 LINE",
"97 355 OFFCURVE",
"116 364 OFFCURVE",
"163 364 CURVE SMOOTH",
"226 364 OFFCURVE",
"235 343 OFFCURVE",
"235 215 CURVE SMOOTH",
"235 115 LINE SMOOTH",
"235 67 OFFCURVE",
"215 52 OFFCURVE",
"160 52 CURVE SMOOTH",
"115 52 OFFCURVE",
"106 55 OFFCURVE",
"89 80 CURVE"
);
}
);
width = 313;
}
);
leftMetricsKey = b;
rightMetricsKey = p;
unicode = 00FE;
},
{
glyphname = q;
lastChange = "2016-05-03 05:18:50 +0000";
layers = (
{
anchors = (
{
name = bottom;
position = "{183, 0}";
},
{
name = top;
position = "{183, 450}";
}
);
layerId = "8E5E9D5F-1CFD-4F58-89B8-A9F3704C2D63";
paths = (
{
closed = 1;
nodes = (
"321 -255 LINE",
"321 450 LINE",
"232 450 LINE",
"232 437 LINE",
"195 448 OFFCURVE",
"162 453 OFFCURVE",
"137 453 CURVE SMOOTH",
"35 453 OFFCURVE",
"26 370 OFFCURVE",
"26 253 CURVE SMOOTH",
"26 44 OFFCURVE",
"55 -1 OFFCURVE",
"155 -1 CURVE SMOOTH",
"199 -1 OFFCURVE",
"220 8 OFFCURVE",
"232 19 CURVE",
"232 -255 LINE"
);
},
{
closed = 1;
nodes = (
"111 91 OFFCURVE",
"108 95 OFFCURVE",
"108 224 CURVE SMOOTH",
"108 323 LINE SMOOTH",
"108 367 OFFCURVE",
"111 370 OFFCURVE",
"172 370 CURVE SMOOTH",
"221 370 OFFCURVE",
"223 368 OFFCURVE",
"235 352 CURVE",
"235 115 LINE",
"224 92 OFFCURVE",
"218 91 OFFCURVE",
"182 91 CURVE SMOOTH"
);
}
);
width = 354;
},
{
anchors = (
{
name = bottom;
position = "{177, 0}";
},
{
name = top;
position = "{177, 430}";
}
);
layerId = "2009CD91-3BC4-40DB-AFF0-7394B85F3EFC";
paths = (
{
closed = 1;
nodes = (
"305 -253 LINE",
"305 431 LINE",
"283 431 LINE",
"283 407 LINE",
"256 430 OFFCURVE",
"179 435 OFFCURVE",
"155 435 CURVE SMOOTH",
"31 435 OFFCURVE",
"40 366 OFFCURVE",
"40 250 CURVE SMOOTH",
"40 15 OFFCURVE",
"36 -1 OFFCURVE",
"149 -1 CURVE SMOOTH",
"189 -1 OFFCURVE",
"266 7 OFFCURVE",
"283 23 CURVE",
"283 -253 LINE"
);
},
{
closed = 1;
nodes = (
"118 18 OFFCURVE",
"62 21 OFFCURVE",
"62 81 CURVE SMOOTH",
"62 219 LINE SMOOTH",
"62 395 OFFCURVE",
"69 414 OFFCURVE",
"164 412 CURVE SMOOTH",
"219 411 OFFCURVE",
"276 403 OFFCURVE",
"283 386 CURVE",
"283 57 LINE",
"268 35 OFFCURVE",
"221 18 OFFCURVE",
"167 18 CURVE SMOOTH"
);
}
);
width = 365;
}
);
leftKerningGroup = noAscender;
leftMetricsKey = o;
rightMetricsKey = n;
unicode = 0071;
},
{
glyphname = r;
lastChange = "2016-05-03 00:15:50 +0000";
layers = (
{
anchors = (
{
name = bottom;
position = "{77, 0}";
},
{
name = top;
position = "{137, 450}";
}
);
layerId = "8E5E9D5F-1CFD-4F58-89B8-A9F3704C2D63";
paths = (
{
closed = 1;
nodes = (
"124 0 LINE",
"124 278 LINE",
"124 324 OFFCURVE",
"173 352 OFFCURVE",
"255 352 CURVE",
"255 435 LINE",
"255 445 OFFCURVE",
"234 455 OFFCURVE",
"211 455 CURVE SMOOTH",
"175 455 OFFCURVE",
"124 414 OFFCURVE",
"124 385 CURVE",
"124 450 LINE",
"35 450 LINE",
"35 0 LINE"
);
}
);
width = 266;
},
{
anchors = (
{
name = bottom;
position = "{40, 0}";
},
{
name = top;
position = "{106, 430}";
}
);
layerId = "2009CD91-3BC4-40DB-AFF0-7394B85F3EFC";
paths = (
{
closed = 1;
nodes = (
"72 0 LINE",
"72 335 LINE",
"72 387 OFFCURVE",
"116 408 OFFCURVE",
"223 408 CURVE",
"223 418 LINE",
"223 428 OFFCURVE",
"199 437 OFFCURVE",
"180 437 CURVE SMOOTH",
"134 437 OFFCURVE",
"72 410 OFFCURVE",
"72 391 CURVE",
"72 430 LINE",
"50 430 LINE",
"50 0 LINE"
);
}
);
width = 242;
}
);
leftKerningGroup = noAscender;
rightMetricsKey = k;
unicode = 0072;
},
{
glyphname = s;
lastChange = "2016-05-03 05:34:06 +0000";
layers = (
{
anchors = (
{
name = bottom;
position = "{128, 0}";
},
{
name = top;
position = "{153, 450}";
}
);
hints = (
{
horizontal = 1;
origin = "{0, 37}";
target = "{0, 31}";
type = TTStem;
},
{
horizontal = 1;
origin = "{0, 19}";
target = "{0, 11}";
type = TTStem;
}
);
layerId = "8E5E9D5F-1CFD-4F58-89B8-A9F3704C2D63";
paths = (
{
closed = 1;
nodes = (
"224 -5 OFFCURVE",
"279 33 OFFCURVE",
"279 130 CURVE SMOOTH",
"279 221 OFFCURVE",
"231 241 OFFCURVE",
"157 270 CURVE SMOOTH",
"126 282 OFFCURVE",
"110 294 OFFCURVE",
"110 323 CURVE SMOOTH",
"110 357 OFFCURVE",
"133 369 OFFCURVE",
"194 369 CURVE SMOOTH",
"211 369 OFFCURVE",
"226 368 OFFCURVE",
"279 361 CURVE",
"279 441 LINE",
"212 455 LINE",
"206 455 OFFCURVE",
"198 456 OFFCURVE",
"184 456 CURVE SMOOTH",
"88 456 OFFCURVE",
"26 411 OFFCURVE",
"26 325 CURVE SMOOTH",
"26 241 OFFCURVE",
"84 208 OFFCURVE",
"146 182 CURVE SMOOTH",
"178 168 OFFCURVE",
"195 166 OFFCURVE",
"195 136 CURVE SMOOTH",
"195 102 OFFCURVE",
"175 81 OFFCURVE",
"124 81 CURVE SMOOTH",
"111 81 OFFCURVE",
"101 81 OFFCURVE",
"90 82 CURVE",
"26 95 LINE",
"26 7 LINE",
"95 -5 LINE"
);
}
);
width = 304;
},
{
anchors = (
{
name = bottom;
position = "{134, 3}";
},
{
name = top;
position = "{139, 359}";
}
);
layerId = "2009CD91-3BC4-40DB-AFF0-7394B85F3EFC";
paths = (
{
closed = 1;
nodes = (
"212 -5 OFFCURVE",
"236 18 OFFCURVE",
"236 94 CURVE SMOOTH",
"236 186 OFFCURVE",
"186 207 OFFCURVE",
"140 230 CURVE SMOOTH",
"100 251 OFFCURVE",
"63 273 OFFCURVE",
"63 343 CURVE SMOOTH",
"63 382 OFFCURVE",
"86 411 OFFCURVE",
"178 411 CURVE SMOOTH",
"197 411 OFFCURVE",
"211 409 OFFCURVE",
"231 408 CURVE",
"230 428 LINE",
"195 434 LINE SMOOTH",
"190 435 OFFCURVE",
"186 435 OFFCURVE",
"184 435 CURVE SMOOTH",
"86 435 OFFCURVE",
"42 420 OFFCURVE",
"42 329 CURVE SMOOTH",
"42 251 OFFCURVE",
"86 230 OFFCURVE",
"129 208 CURVE SMOOTH",
"172 185 OFFCURVE",
"215 162 OFFCURVE",
"215 79 CURVE SMOOTH",
"215 40 OFFCURVE",
"199 15 OFFCURVE",
"121 15 CURVE SMOOTH",
"115 15 OFFCURVE",
"98 15 OFFCURVE",
"85 15 CURVE",
"47 21 LINE",
"47 3 LINE",
"85 -5 LINE"
);
}
);
width = 278;
}
);
leftKerningGroup = noAscender;
unicode = 0073;
},
{
color = 5;
glyphname = germandbls;
lastChange = "2016-04-28 04:35:39 +0000";
layers = (
{
layerId = "8E5E9D5F-1CFD-4F58-89B8-A9F3704C2D63";
paths = (
{
closed = 1;
nodes = (
"117 0 LINE",
"117 525 LINE SMOOTH",
"117 603 OFFCURVE",
"147 621 OFFCURVE",
"183 621 CURVE",
"240 621 OFFCURVE",
"259 596 OFFCURVE",
"259 533 CURVE SMOOTH",
"259 491 OFFCURVE",
"251 439 OFFCURVE",
"151 439 CURVE",
"151 344 LINE",
"259 344 OFFCURVE",
"259 334 OFFCURVE",
"259 207 CURVE SMOOTH",
"259 129 OFFCURVE",
"253 102 OFFCURVE",
"183 102 CURVE SMOOTH",
"169 102 OFFCURVE",
"159 113 OFFCURVE",
"151 115 CURVE",
"151 11 LINE",
"159 10 OFFCURVE",
"170 0 OFFCURVE",
"181 0 CURVE SMOOTH",
"273 0 OFFCURVE",
"348 5 OFFCURVE",
"348 211 CURVE SMOOTH",
"348 286 OFFCURVE",
"321 387 OFFCURVE",
"270 387 CURVE",
"321 387 OFFCURVE",
"348 473 OFFCURVE",
"348 533 CURVE SMOOTH",
"348 637 OFFCURVE",
"307 708 OFFCURVE",
"200 708 CURVE SMOOTH",
"39 708 OFFCURVE",
"28 605 OFFCURVE",
"28 481 CURVE SMOOTH",
"28 0 LINE"
);
}
);
width = 376;
},
{
layerId = "2009CD91-3BC4-40DB-AFF0-7394B85F3EFC";
paths = (
{
closed = 1;
nodes = (
"102 15 LINE",
"102 525 LINE SMOOTH",
"102 599 OFFCURVE",
"128 636 OFFCURVE",
"183 636 CURVE SMOOTH",
"247 636 OFFCURVE",
"274 605 OFFCURVE",
"274 533 CURVE SMOOTH",
"274 463 OFFCURVE",
"240 428 OFFCURVE",
"166 424 CURVE",
"166 359 LINE",
"274 357 OFFCURVE",
"274 329 OFFCURVE",
"274 207 CURVE SMOOTH",
"274 127 OFFCURVE",
"265 87 OFFCURVE",
"183 87 CURVE SMOOTH",
"176 87 OFFCURVE",
"171 88 OFFCURVE",
"166 90 CURVE",
"166 22 LINE",
"173 19 OFFCURVE",
"178 15 OFFCURVE",
"181 15 CURVE SMOOTH",
"273 15 OFFCURVE",
"333 19 OFFCURVE",
"333 211 CURVE SMOOTH",
"333 292 OFFCURVE",
"303 387 OFFCURVE",
"270 387 CURVE",
"303 387 OFFCURVE",
"333 465 OFFCURVE",
"333 533 CURVE SMOOTH",
"333 640 OFFCURVE",
"289 693 OFFCURVE",
"200 693 CURVE SMOOTH",
"52 693 OFFCURVE",
"40 604 OFFCURVE",
"40 481 CURVE SMOOTH",
"40 15 LINE"
);
}
);
width = 376;
}
);
unicode = 00DF;
},
{
glyphname = t;
lastChange = "2016-05-03 05:19:05 +0000";
layers = (
{
anchors = (
{
name = bottom;
position = "{157, 0}";
},
{
name = center;
position = "{137, 263}";
},
{
name = top;
position = "{137, 450}";
},
{
name = topright;
position = "{233, 450}";
}
);
layerId = "8E5E9D5F-1CFD-4F58-89B8-A9F3704C2D63";
paths = (
{
closed = 1;
nodes = (
"91 364 LINE",
"91 245 LINE SMOOTH",
"91 10 OFFCURVE",
"98 0 OFFCURVE",
"263 0 CURVE",
"263 80 LINE",
"183 80 OFFCURVE",
"180 86 OFFCURVE",
"180 234 CURVE SMOOTH",
"180 364 LINE",
"262 364 LINE",
"262 450 LINE",
"180 450 LINE",
"180 608 LINE",
"91 608 LINE",
"91 450 LINE",
"10 450 LINE",
"10 364 LINE"
);
}
);
width = 283;
},
{
anchors = (
{
name = bottom;
position = "{134, 0}";
},
{
name = center;
position = "{114, 265}";
},
{
name = top;
position = "{114, 450}";
},
{
name = topright;
position = "{210, 450}";
}
);
layerId = "2009CD91-3BC4-40DB-AFF0-7394B85F3EFC";
paths = (
{
closed = 1;
nodes = (
"95 409 LINE",
"95 130 LINE SMOOTH",
"95 2 OFFCURVE",
"109 1 OFFCURVE",
"189 0 CURVE",
"189 21 LINE",
"138 24 OFFCURVE",
"117 15 OFFCURVE",
"117 109 CURVE SMOOTH",
"117 409 LINE",
"189 409 LINE",
"189 430 LINE",
"117 430 LINE",
"117 593 LINE",
"95 593 LINE",
"95 430 LINE",
"24 430 LINE",
"24 409 LINE"
);
}
);
width = 209;
}
);
unicode = 0074;
},
{
glyphname = u;
lastChange = "2016-05-03 00:29:17 +0000";
layers = (
{
anchors = (
{
name = bottom;
position = "{184, 0}";
},
{
name = ogonek;
position = "{301, 18}";
},
{
name = top;
position = "{179, 444}";
},
{
name = topright;
position = "{332, 342}";
}
);
background = {
paths = (
{
closed = 1;
nodes = (
"244 455 LINE",
"244 115 LINE",
"230 98 OFFCURVE",
"208 89 OFFCURVE",
"187 89 CURVE SMOOTH",
"155 89 OFFCURVE",
"124 109 OFFCURVE",
"124 155 CURVE SMOOTH",
"124 455 LINE",
"35 455 LINE",
"35 159 LINE SMOOTH",
"35 61 OFFCURVE",
"63 0 OFFCURVE",
"143 0 CURVE SMOOTH",
"192 0 OFFCURVE",
"225 23 OFFCURVE",
"244 38 CURVE",
"244 5 LINE",
"333 5 LINE",
"333 455 LINE"
);
}
);
};
layerId = "8E5E9D5F-1CFD-4F58-89B8-A9F3704C2D63";
paths = (
{
closed = 1;
nodes = (
"244 450 LINE",
"244 115 LINE",
"229 98 OFFCURVE",
"211 89 OFFCURVE",
"187 89 CURVE SMOOTH",
"148 89 OFFCURVE",
"124 114 OFFCURVE",
"124 155 CURVE SMOOTH",
"124 450 LINE",
"35 450 LINE",
"35 159 LINE SMOOTH",
"35 69 OFFCURVE",
"70 7 OFFCURVE",
"143 0 CURVE SMOOTH",
"176 -3 OFFCURVE",
"229 4 OFFCURVE",
"244 25 CURVE",
"244 0 LINE",
"333 0 LINE",
"333 450 LINE"
);
}
);
width = 366;
},
{
anchors = (
{
name = bottom;
position = "{187, 0}";
},
{
name = ogonek;
position = "{297, 10}";
},
{
name = top;
position = "{187, 430}";
},
{
name = topright;
position = "{287, 378}";
}
);
layerId = "2009CD91-3BC4-40DB-AFF0-7394B85F3EFC";
paths = (
{
closed = 1;
nodes = (
"285 430 LINE",
"285 51 LINE",
"277 35 OFFCURVE",
"221 22 OFFCURVE",
"184 22 CURVE SMOOTH",
"124 22 OFFCURVE",
"82 56 OFFCURVE",
"82 132 CURVE SMOOTH",
"82 430 LINE",
"60 430 LINE",
"60 130 LINE SMOOTH",
"60 45 OFFCURVE",
"102 0 OFFCURVE",
"175 0 CURVE SMOOTH",
"210 0 OFFCURVE",
"276 11 OFFCURVE",
"285 28 CURVE",
"285 0 LINE",
"307 0 LINE",
"307 430 LINE"
);
}
);
width = 367;
}
);
leftKerningGroup = noAscender;
leftMetricsKey = n;
rightMetricsKey = n;
unicode = 0075;
},
{
glyphname = v;
lastChange = "2016-05-03 05:19:16 +0000";
layers = (
{
anchors = (
{
name = bottom;
position = "{170, 0}";
},
{
name = top;
position = "{170, 450}";
}
);
layerId = "8E5E9D5F-1CFD-4F58-89B8-A9F3704C2D63";
paths = (
{
closed = 1;
nodes = (
"114 0 LINE",
"226 0 LINE",
"335 450 LINE",
"246 450 LINE",
"170 118 LINE",
"94 450 LINE",
"5 450 LINE"
);
}
);
width = 340;
},
{
anchors = (
{
name = bottom;
position = "{145, 0}";
},
{
name = top;
position = "{145, 430}";
}
);
layerId = "2009CD91-3BC4-40DB-AFF0-7394B85F3EFC";
paths = (
{
closed = 1;
nodes = (
"133 0 LINE",
"157 0 LINE",
"261 430 LINE",
"239 430 LINE",
"145 43 LINE",
"51 430 LINE",
"29 430 LINE"
);
}
);
width = 290;
}
);
leftKerningGroup = noAscender;
unicode = 0076;
},
{
glyphname = w;
lastChange = "2016-05-03 05:19:21 +0000";
layers = (
{
anchors = (
{
name = bottom;
position = "{229, 0}";
},
{
name = top;
position = "{231, 440}";
}
);
layerId = "8E5E9D5F-1CFD-4F58-89B8-A9F3704C2D63";
paths = (
{
closed = 1;
nodes = (
"83 0 LINE",
"193 0 LINE",
"233 279 LINE",
"277 0 LINE",
"388 0 LINE",
"461 450 LINE",
"383 450 LINE",
"329 99 LINE",
"264 450 LINE",
"202 450 LINE",
"141 99 LINE",
"83 450 LINE",
"5 450 LINE"
);
}
);
width = 466;
},
{
anchors = (
{
name = bottom;
position = "{186, 0}";
},
{
name = top;
position = "{185, 430}";
}
);
layerId = "2009CD91-3BC4-40DB-AFF0-7394B85F3EFC";
paths = (
{
closed = 1;
nodes = (
"120 0 LINE",
"144 0 LINE",
"202 390 LINE",
"260 0 LINE",
"284 0 LINE",
"375 430 LINE",
"353 430 LINE",
"272 37 LINE",
"216 430 LINE",
"188 430 LINE",
"132 42 LINE",
"51 430 LINE",
"29 430 LINE"
);
}
);
width = 404;
}
);
leftKerningGroup = noAscender;
leftMetricsKey = v;
rightMetricsKey = v;
unicode = 0077;
},
{
glyphname = x;
lastChange = "2016-04-28 05:37:20 +0000";
layers = (
{
anchors = (
{
name = bottom;
position = "{180, 0}";
},
{
name = top;
position = "{180, 450}";
}
);
layerId = "8E5E9D5F-1CFD-4F58-89B8-A9F3704C2D63";
paths = (
{
closed = 1;
nodes = (
"95 0 LINE",
"179 169 LINE",
"262 0 LINE",
"354 0 LINE",
"238 240 LINE",
"353 450 LINE",
"261 450 LINE",
"179 297 LINE",
"96 450 LINE",
"5 450 LINE",
"124 240 LINE",
"5 0 LINE"
);
}
);
width = 359;
},
{
anchors = (
{
name = bottom;
position = "{145, 0}";
},
{
name = top;
position = "{145, 430}";
}
);
layerId = "2009CD91-3BC4-40DB-AFF0-7394B85F3EFC";
paths = (
{
closed = 1;
nodes = (
"50 0 LINE",
"144 202 LINE",
"237 0 LINE",
"259 0 LINE",
"157 230 LINE",
"258 430 LINE",
"236 430 LINE",
"144 258 LINE",
"51 430 LINE",
"29 430 LINE",
"131 230 LINE",
"29 0 LINE"
);
}
);
width = 288;
}
);
leftKerningGroup = noAscender;
leftMetricsKey = v;
rightMetricsKey = v;
unicode = 0078;
},
{
glyphname = y;
lastChange = "2016-04-28 04:35:39 +0000";
layers = (
{
anchors = (
{
name = bottom;
position = "{172, 0}";
},
{
name = top;
position = "{181, 450}";
}
);
background = {
paths = (
{
closed = 1;
nodes = (
"127 0 LINE",
"239 0 LINE",
"344 450 LINE",
"255 450 LINE",
"185 118 LINE",
"103 450 LINE",
"14 450 LINE"
);
}
);
};
guideLines = (
{
angle = 78;
position = "{198, 172}";
},
{
position = "{237, 0}";
}
);
layerId = "8E5E9D5F-1CFD-4F58-89B8-A9F3704C2D63";
paths = (
{
closed = 1;
nodes = (
"125 0 LINE",
"125 -97 OFFCURVE",
"66 -179 OFFCURVE",
"35 -179 CURVE SMOOTH",
"5 -179 LINE",
"5 -255 LINE",
"153 -255 OFFCURVE",
"188 -230 OFFCURVE",
"346 450 CURVE",
"257 450 LINE",
"181 118 LINE",
"105 450 LINE",
"16 450 LINE"
);
}
);
width = 351;
},
{
anchors = (
{
name = bottom;
position = "{135, -181}";
},
{
name = top;
position = "{118, 409}";
}
);
guideLines = (
{
position = "{179, 3}";
}
);
layerId = "2009CD91-3BC4-40DB-AFF0-7394B85F3EFC";
paths = (
{
closed = 1;
nodes = (
"125 0 LINE",
"104 -102 OFFCURVE",
"63 -236 OFFCURVE",
"40 -236 CURVE SMOOTH",
"29 -236 LINE",
"29 -254 LINE",
"95 -254 OFFCURVE",
"101 -215 OFFCURVE",
"263 430 CURVE",
"241 430 LINE",
"139 39 LINE",
"53 430 LINE",
"31 430 LINE"
);
}
);
width = 292;
}
);
leftKerningGroup = noAscender;
leftMetricsKey = v;
rightMetricsKey = v;
unicode = 0079;
},
{
glyphname = ydotbelow;
lastChange = "2016-04-28 04:35:39 +0000";
layers = (
{
anchors = (
{
name = top;
position = "{155, 431}";
}
);
layerId = "8E5E9D5F-1CFD-4F58-89B8-A9F3704C2D63";
paths = (
{
closed = 1;
nodes = (
"123 -1 LINE",
"89 -144 OFFCURVE",
"76 -169 OFFCURVE",
"46 -169 CURVE SMOOTH",
"16 -169 LINE",
"16 -254 LINE",
"220 -254 OFFCURVE",
"153 -193 OFFCURVE",
"325 450 CURVE",
"236 450 LINE",
"162 118 LINE",
"168 118 LINE",
"94 449 LINE",
"5 449 LINE"
);
},
{
closed = 1;
nodes = (
"208 -243 LINE",
"297 -243 LINE",
"297 -155 LINE",
"208 -155 LINE"
);
}
);
width = 330;
},
{
anchors = (
{
name = top;
position = "{124, 431}";
}
);
layerId = "2009CD91-3BC4-40DB-AFF0-7394B85F3EFC";
paths = (
{
closed = 1;
nodes = (
"125 0 LINE",
"104 -102 OFFCURVE",
"63 -236 OFFCURVE",
"40 -236 CURVE SMOOTH",
"29 -236 LINE",
"29 -254 LINE",
"95 -254 OFFCURVE",
"101 -215 OFFCURVE",
"263 430 CURVE",
"241 430 LINE",
"132 11 LINE",
"145 10 LINE",
"53 430 LINE",
"31 430 LINE"
);
},
{
closed = 1;
nodes = (
"174 -254 LINE",
"196 -254 LINE",
"196 -234 LINE",
"174 -234 LINE"
);
}
);
width = 292;
}
);
leftKerningGroup = noAscender;
leftMetricsKey = y;
rightMetricsKey = y;
unicode = 1EF5;
},
{
glyphname = z;
lastChange = "2016-04-28 04:35:39 +0000";
layers = (
{
anchors = (
{
name = bottom;
position = "{155, 0}";
},
{
name = top;
position = "{155, 450}";
}
);
layerId = "8E5E9D5F-1CFD-4F58-89B8-A9F3704C2D63";
paths = (
{
closed = 1;
nodes = (
"288 0 LINE",
"288 84 LINE",
"122 84 LINE",
"278 363 LINE",
"278 450 LINE",
"22 450 LINE",
"22 366 LINE",
"188 366 LINE",
"22 84 LINE",
"22 0 LINE"
);
}
);
width = 310;
},
{
anchors = (
{
name = bottom;
position = "{133, 0}";
},
{
name = top;
position = "{133, 430}";
}
);
layerId = "2009CD91-3BC4-40DB-AFF0-7394B85F3EFC";
paths = (
{
closed = 1;
nodes = (
"241 0 LINE",
"241 22 LINE",
"43 22 LINE",
"231 402 LINE",
"231 430 LINE",
"25 430 LINE",
"25 408 LINE",
"213 408 LINE",
"25 31 LINE",
"25 0 LINE"
);
}
);
width = 266;
}
);
leftKerningGroup = noAscender;
unicode = 007A;
},
{
color = 5;
glyphname = wmod;
lastChange = "2016-04-28 04:35:39 +0000";
layers = (
{
anchors = (
{
name = bottom;
position = "{210, 0}";
},
{
name = top;
position = "{214, 432}";
}
);
layerId = "8E5E9D5F-1CFD-4F58-89B8-A9F3704C2D63";
paths = (
{
closed = 1;
nodes = (
"17 451 LINE",
"83 451 LINE",
"105 590 LINE",
"130 451 LINE",
"195 451 LINE",
"232 700 LINE",
"185 700 LINE",
"159 510 LINE",
"125 700 LINE",
"87 700 LINE",
"52 509 LINE",
"16 700 LINE",
"-31 700 LINE"
);
}
);
width = 242;
},
{
anchors = (
{
name = bottom;
position = "{200, 0}";
},
{
name = top;
position = "{204, 432}";
}
);
layerId = "2009CD91-3BC4-40DB-AFF0-7394B85F3EFC";
paths = (
{
closed = 1;
nodes = (
"12 456 LINE",
"68 456 LINE",
"95 625 LINE",
"125 456 LINE",
"180 456 LINE",
"215 693 LINE",
"180 693 LINE",
"150 491 LINE",
"110 693 LINE",
"82 693 LINE",
"42 495 LINE",
"1 693 LINE",
"-34 693 LINE"
);
}
);
width = 212;
}
);
unicode = 02B7;
},
{
color = 5;
glyphname = "alef-hb";
lastChange = "2016-04-28 04:35:39 +0000";
layers = (
{
guideLines = (
{
angle = -64;
position = "{90, 485}";
}
);
layerId = "8E5E9D5F-1CFD-4F58-89B8-A9F3704C2D63";
paths = (
{
closed = 1;
nodes = (
"35 0 LINE",
"129 0 LINE",
"129 130 LINE SMOOTH",
"129 196 OFFCURVE",
"119 316 OFFCURVE",
"162 336 CURVE",
"323 0 LINE",
"419 0 LINE",
"308 234 LINE",
"374 261 OFFCURVE",
"415 342 OFFCURVE",
"417 464 CURVE SMOOTH",
"417 598 LINE",
"322 598 LINE",
"322 466 LINE SMOOTH",
"320 408 OFFCURVE",
"309 338 OFFCURVE",
"268 318 CURVE",
"132 599 LINE",
"35 599 LINE",
"124 414 LINE",
"56 385 OFFCURVE",
"33 258 OFFCURVE",
"34 134 CURVE SMOOTH"
);
}
);
width = 450;
},
{
layerId = "2009CD91-3BC4-40DB-AFF0-7394B85F3EFC";
width = 600;
}
);
unicode = 05D0;
},
{
color = 5;
glyphname = "dalet-hb";
lastChange = "2016-04-28 04:35:39 +0000";
layers = (
{
layerId = "8E5E9D5F-1CFD-4F58-89B8-A9F3704C2D63";
paths = (
{
closed = 1;
nodes = (
"344 600 LINE",
"229 600 OFFCURVE",
"196 557 OFFCURVE",
"196 415 CURVE SMOOTH",
"196 0 LINE",
"291 0 LINE",
"291 478 LINE",
"296 494 OFFCURVE",
"297 502 OFFCURVE",
"344 502 CURVE"
);
},
{
closed = 1;
nodes = (
"25 508 LINE SMOOTH",
"25 504 OFFCURVE",
"27 502 OFFCURVE",
"30 502 CURVE SMOOTH",
"383 502 LINE",
"392 600 LINE",
"38 600 LINE SMOOTH",
"36 600 OFFCURVE",
"33 597 OFFCURVE",
"33 595 CURVE SMOOTH"
);
}
);
width = 417;
},
{
layerId = "2009CD91-3BC4-40DB-AFF0-7394B85F3EFC";
paths = (
{
closed = 1;
nodes = (
"314 557 LINE",
"218 554 OFFCURVE",
"192 515 OFFCURVE",
"192 385 CURVE SMOOTH",
"192 3 LINE",
"261 3 LINE",
"261 450 LINE",
"269 476 OFFCURVE",
"279 484 OFFCURVE",
"314 485 CURVE"
);
},
{
closed = 1;
nodes = (
"22 488 LINE SMOOTH",
"22 486 OFFCURVE",
"23 485 OFFCURVE",
"25 485 CURVE SMOOTH",
"354 485 LINE",
"361 557 LINE",
"31 557 LINE SMOOTH",
"30 557 OFFCURVE",
"28 555 OFFCURVE",
"28 554 CURVE SMOOTH"
);
}
);
width = 383;
}
);
unicode = 05D3;
},
{
color = 5;
glyphname = "he-hb";
lastChange = "2016-04-28 04:35:39 +0000";
layers = (
{
layerId = "8E5E9D5F-1CFD-4F58-89B8-A9F3704C2D63";
paths = (
{
closed = 1;
nodes = (
"35 400 LINE",
"35 0 LINE",
"130 0 LINE",
"130 400 LINE"
);
},
{
closed = 1;
nodes = (
"86 510 OFFCURVE",
"121 513 OFFCURVE",
"186 513 CURVE SMOOTH",
"250 513 OFFCURVE",
"305 504 OFFCURVE",
"305 420 CURVE SMOOTH",
"305 0 LINE",
"400 0 LINE",
"400 415 LINE SMOOTH",
"400 533 OFFCURVE",
"383 600 OFFCURVE",
"257 600 CURVE SMOOTH",
"40 600 LINE SMOOTH",
"37 600 OFFCURVE",
"35 598 OFFCURVE",
"35 595 CURVE",
"44 508 LINE SMOOTH",
"44 504 OFFCURVE",
"47 503 OFFCURVE",
"50 504 CURVE SMOOTH"
);
}
);
width = 435;
},
{
layerId = "2009CD91-3BC4-40DB-AFF0-7394B85F3EFC";
paths = (
{
closed = 1;
nodes = (
"25 377 LINE",
"25 0 LINE",
"91 0 LINE",
"91 377 LINE"
);
},
{
closed = 1;
nodes = (
"50 489 OFFCURVE",
"64 491 OFFCURVE",
"163 491 CURVE SMOOTH",
"228 491 OFFCURVE",
"295 485 OFFCURVE",
"295 390 CURVE SMOOTH",
"295 0 LINE",
"361 0 LINE",
"361 385 LINE SMOOTH",
"361 519 OFFCURVE",
"336 557 OFFCURVE",
"234 557 CURVE SMOOTH",
"25 557 LINE SMOOTH",
"23 557 OFFCURVE",
"22 556 OFFCURVE",
"22 553 CURVE SMOOTH",
"28 486 LINE SMOOTH",
"28 484 OFFCURVE",
"30 483 OFFCURVE",
"32 484 CURVE SMOOTH"
);
}
);
width = 383;
}
);
unicode = 05D4;
},
{
color = 5;
glyphname = "het-hb";
lastChange = "2016-04-28 04:35:39 +0000";
layers = (
{
layerId = "8E5E9D5F-1CFD-4F58-89B8-A9F3704C2D63";
paths = (
{
closed = 1;
nodes = (
"130 2 LINE",
"130 511 LINE",
"269 511 LINE SMOOTH",
"324 511 OFFCURVE",
"355 489 OFFCURVE",
"355 420 CURVE SMOOTH",
"355 2 LINE",
"450 2 LINE",
"450 415 LINE SMOOTH",
"450 533 OFFCURVE",
"433 600 OFFCURVE",
"307 600 CURVE SMOOTH",
"40 600 LINE SMOOTH",
"37 600 OFFCURVE",
"35 598 OFFCURVE",
"35 595 CURVE SMOOTH",
"35 2 LINE"
);
}
);
width = 485;
},
{
layerId = "2009CD91-3BC4-40DB-AFF0-7394B85F3EFC";
paths = (
{
closed = 1;
nodes = (
"94 0 LINE",
"94 499 LINE",
"246 499 LINE SMOOTH",
"314 499 OFFCURVE",
"345 466 OFFCURVE",
"345 395 CURVE SMOOTH",
"345 0 LINE",
"414 0 LINE",
"414 390 LINE SMOOTH",
"414 524 OFFCURVE",
"386 562 OFFCURVE",
"284 562 CURVE SMOOTH",
"29 562 LINE",
"27 562 OFFCURVE",
"25 560 OFFCURVE",
"25 558 CURVE",
"25 0 LINE"
);
}
);
width = 439;
}
);
unicode = 05D7;
},
{
color = 5;
glyphname = "tav-hb";
lastChange = "2016-04-28 04:35:39 +0000";
layers = (
{
layerId = "8E5E9D5F-1CFD-4F58-89B8-A9F3704C2D63";
paths = (
{
closed = 1;
nodes = (
"110 0 LINE SMOOTH",
"194 0 OFFCURVE",
"211 17 OFFCURVE",
"211 101 CURVE SMOOTH",
"211 513 LINE",
"326 513 OFFCURVE",
"346 499 OFFCURVE",
"346 420 CURVE SMOOTH",
"346 0 LINE",
"441 0 LINE",
"441 415 LINE SMOOTH",
"441 533 OFFCURVE",
"424 600 OFFCURVE",
"298 600 CURVE SMOOTH",
"71 600 LINE SMOOTH",
"68 600 OFFCURVE",
"66 598 OFFCURVE",
"66 595 CURVE",
"75 508 LINE",
"75 504 OFFCURVE",
"78 503 OFFCURVE",
"81 504 CURVE",
"92 506 OFFCURVE",
"104 507 OFFCURVE",
"116 509 CURVE",
"116 131 LINE SMOOTH",
"116 80 OFFCURVE",
"114 80 OFFCURVE",
"65 80 CURVE SMOOTH",
"37 80 LINE SMOOTH",
"35 80 OFFCURVE",
"33 78 OFFCURVE",
"33 76 CURVE SMOOTH",
"25 6 LINE SMOOTH",
"25 2 OFFCURVE",
"27 0 OFFCURVE",
"30 0 CURVE SMOOTH"
);
}
);
width = 466;
},
{
layerId = "2009CD91-3BC4-40DB-AFF0-7394B85F3EFC";
width = 600;
}
);
unicode = 05EA;
},
{
color = 5;
glyphname = zero;
lastChange = "2016-04-28 04:35:39 +0000";
layers = (
{
layerId = "8E5E9D5F-1CFD-4F58-89B8-A9F3704C2D63";
paths = (
{
closed = 1;
nodes = (
"436 -6 OFFCURVE",
"453 155 OFFCURVE",
"453 351 CURVE SMOOTH",
"453 547 OFFCURVE",
"435 701 OFFCURVE",
"241 701 CURVE SMOOTH",
"48 701 OFFCURVE",
"32 548 OFFCURVE",
"32 352 CURVE SMOOTH",
"32 156 OFFCURVE",
"49 -6 OFFCURVE",
"241 -6 CURVE SMOOTH"
);
},
{
closed = 1;
nodes = (
"128 80 OFFCURVE",
"118 154 OFFCURVE",
"118 346 CURVE SMOOTH",
"118 532 OFFCURVE",
"128 614 OFFCURVE",
"243 614 CURVE SMOOTH",
"358 614 OFFCURVE",
"368 533 OFFCURVE",
"368 347 CURVE SMOOTH",
"368 155 OFFCURVE",
"358 80 OFFCURVE",
"243 80 CURVE SMOOTH"
);
}
);
width = 485;
},
{
layerId = "2009CD91-3BC4-40DB-AFF0-7394B85F3EFC";
paths = (
{
closed = 1;
nodes = (
"400 -6 OFFCURVE",
"416 156 OFFCURVE",
"416 351 CURVE",
"416 546 OFFCURVE",
"399 706 OFFCURVE",
"219 706 CURVE SMOOTH",
"40 706 OFFCURVE",
"25 547 OFFCURVE",
"25 352 CURVE SMOOTH",
"25 157 OFFCURVE",
"40 -6 OFFCURVE",
"219 -6 CURVE SMOOTH"
);
},
{
closed = 1;
nodes = (
"91 55 OFFCURVE",
"91 154 OFFCURVE",
"91 346 CURVE SMOOTH",
"91 532 OFFCURVE",
"91 649 OFFCURVE",
"221 649 CURVE SMOOTH",
"351 649 OFFCURVE",
"351 533 OFFCURVE",
"351 347 CURVE SMOOTH",
"351 155 OFFCURVE",
"351 55 OFFCURVE",
"221 55 CURVE SMOOTH"
);
}
);
width = 441;
}
);
leftMetricsKey = O;
rightMetricsKey = O;
unicode = 0030;
},
{
color = 5;
glyphname = one;
lastChange = "2016-04-28 04:35:39 +0000";
layers = (
{
layerId = "8E5E9D5F-1CFD-4F58-89B8-A9F3704C2D63";
paths = (
{
closed = 1;
nodes = (
"152 5 OFFCURVE",
"175 5 OFFCURVE",
"206 5 CURVE",
"206 234 OFFCURVE",
"206 470 OFFCURVE",
"206 700 CURVE",
"175 700 OFFCURVE",
"151 700 OFFCURVE",
"121 700 CURVE",
"121 469 OFFCURVE",
"121 232 OFFCURVE",
"121 5 CURVE"
);
},
{
closed = 1;
nodes = (
"121 574 LINE",
"121 700 LINE",
"35 574 LINE"
);
}
);
width = 248;
},
{
layerId = "2009CD91-3BC4-40DB-AFF0-7394B85F3EFC";
paths = (
{
closed = 1;
nodes = (
"123 0 OFFCURVE",
"136 0 OFFCURVE",
"157 0 CURVE",
"157 219 OFFCURVE",
"157 479 OFFCURVE",
"157 700 CURVE",
"135 700 OFFCURVE",
"122 700 OFFCURVE",
"101 700 CURVE",
"101 480 OFFCURVE",
"101 217 OFFCURVE",
"101 0 CURVE"
);
},
{
closed = 1;
nodes = (
"101 601 LINE",
"101 700 LINE",
"45 601 LINE"
);
}
);
width = 203;
}
);
leftMetricsKey = I;
rightMetricsKey = I;
unicode = 0031;
},
{
color = 5;
glyphname = two;
lastChange = "2016-04-29 01:34:09 +0000";
layers = (
{
layerId = "8E5E9D5F-1CFD-4F58-89B8-A9F3704C2D63";
paths = (
{
closed = 1;
nodes = (
"123 0 LINE",
"131 123 OFFCURVE",
"313 328 OFFCURVE",
"313 511 CURVE SMOOTH",
"313 628 OFFCURVE",
"271 707 OFFCURVE",
"163 707 CURVE SMOOTH",
"95 707 OFFCURVE",
"33 667 OFFCURVE",
"33 650 CURVE SMOOTH",
"33 567 LINE",
"48 574 OFFCURVE",
"101 624 OFFCURVE",
"159 624 CURVE SMOOTH",
"216 624 OFFCURVE",
"230 576 OFFCURVE",
"230 512 CURVE SMOOTH",
"230 356 OFFCURVE",
"40 130 OFFCURVE",
"40 6 CURVE SMOOTH",
"40 2 OFFCURVE",
"43 0 OFFCURVE",
"46 0 CURVE SMOOTH"
);
},
{
closed = 1;
nodes = (
"318 0 LINE",
"318 84 LINE",
"79 84 LINE",
"52 0 LINE"
);
}
);
width = 351;
},
{
layerId = "2009CD91-3BC4-40DB-AFF0-7394B85F3EFC";
paths = (
{
closed = 1;
nodes = (
"92 0 LINE",
"111 128 OFFCURVE",
"279 361 OFFCURVE",
"279 533 CURVE SMOOTH",
"279 651 OFFCURVE",
"234 715 OFFCURVE",
"154 715 CURVE SMOOTH",
"96 715 OFFCURVE",
"30 684 OFFCURVE",
"30 673 CURVE SMOOTH",
"30 621 LINE",
"51 639 OFFCURVE",
"91 662 OFFCURVE",
"132 662 CURVE SMOOTH",
"191 662 OFFCURVE",
"227 616 OFFCURVE",
"227 534 CURVE SMOOTH",
"227 381 OFFCURVE",
"63 127 OFFCURVE",
"40 4 CURVE SMOOTH",
"39 2 OFFCURVE",
"41 0 OFFCURVE",
"43 0 CURVE SMOOTH"
);
},
{
closed = 1;
nodes = (
"285 0 LINE",
"285 56 LINE",
"71 56 LINE",
"47 0 LINE"
);
}
);
width = 315;
}
);
leftMetricsKey = S;
rightMetricsKey = S;
unicode = 0032;
},
{
color = 5;
glyphname = three;
lastChange = "2016-04-28 04:35:39 +0000";
layers = (
{
layerId = "8E5E9D5F-1CFD-4F58-89B8-A9F3704C2D63";
paths = (
{
closed = 1;
nodes = (
"33 612 LINE",
"38 612 OFFCURVE",
"52 624 OFFCURVE",
"113 624 CURVE SMOOTH",
"215 624 OFFCURVE",
"241 596 OFFCURVE",
"241 531 CURVE SMOOTH",
"241 449 OFFCURVE",
"227 396 OFFCURVE",
"127 394 CURVE",
"127 309 LINE",
"235 309 OFFCURVE",
"241 292 OFFCURVE",
"241 207 CURVE SMOOTH",
"241 118 OFFCURVE",
"229 76 OFFCURVE",
"114 76 CURVE SMOOTH",
"65 76 OFFCURVE",
"56 84 OFFCURVE",
"33 96 CURVE",
"33 19 LINE",
"46 10 OFFCURVE",
"57 -3 OFFCURVE",
"112 -3 CURVE SMOOTH",
"244 -3 OFFCURVE",
"324 29 OFFCURVE",
"324 211 CURVE SMOOTH",
"324 311 OFFCURVE",
"286 339 OFFCURVE",
"251 352 CURVE",
"286 359 OFFCURVE",
"324 447 OFFCURVE",
"324 531 CURVE SMOOTH",
"324 658 OFFCURVE",
"257 707 OFFCURVE",
"131 707 CURVE SMOOTH",
"59 707 OFFCURVE",
"33 698 OFFCURVE",
"33 677 CURVE SMOOTH"
);
}
);
width = 357;
},
{
layerId = "2009CD91-3BC4-40DB-AFF0-7394B85F3EFC";
paths = (
{
closed = 1;
nodes = (
"30 643 LINE",
"42 646 OFFCURVE",
"63 659 OFFCURVE",
"95 659 CURVE SMOOTH",
"198 659 OFFCURVE",
"238 630 OFFCURVE",
"238 531 CURVE SMOOTH",
"238 429 OFFCURVE",
"208 386 OFFCURVE",
"124 380 CURVE",
"124 324 LINE",
"222 322 OFFCURVE",
"238 302 OFFCURVE",
"238 207 CURVE SMOOTH",
"238 75 OFFCURVE",
"206 41 OFFCURVE",
"96 41 CURVE SMOOTH",
"61 41 OFFCURVE",
"44 55 OFFCURVE",
"30 61 CURVE",
"30 17 LINE",
"42 9 OFFCURVE",
"53 -8 OFFCURVE",
"94 -8 CURVE SMOOTH",
"242 -8 OFFCURVE",
"291 40 OFFCURVE",
"291 211 CURVE SMOOTH",
"291 308 OFFCURVE",
"251 347 OFFCURVE",
"198 348 CURVE",
"251 349 OFFCURVE",
"291 443 OFFCURVE",
"291 531 CURVE SMOOTH",
"291 663 OFFCURVE",
"238 712 OFFCURVE",
"113 712 CURVE SMOOTH",
"53 712 OFFCURVE",
"30 695 OFFCURVE",
"30 687 CURVE SMOOTH"
);
}
);
width = 321;
}
);
leftMetricsKey = S;
rightMetricsKey = S;
unicode = 0033;
},
{
color = 5;
glyphname = four;
lastChange = "2016-04-28 04:35:39 +0000";
layers = (
{
layerId = "8E5E9D5F-1CFD-4F58-89B8-A9F3704C2D63";
paths = (
{
closed = 1;
nodes = (
"220 197 LINE",
"220 0 LINE",
"303 0 LINE",
"303 197 LINE",
"388 197 LINE",
"388 279 LINE",
"303 279 LINE",
"303 700 LINE",
"204 700 LINE",
"30 283 LINE",
"30 197 LINE"
);
},
{
closed = 1;
nodes = (
"220 543 LINE",
"220 279 LINE",
"110 279 LINE"
);
}
);
width = 418;
},
{
layerId = "2009CD91-3BC4-40DB-AFF0-7394B85F3EFC";
paths = (
{
closed = 1;
nodes = (
"210 232 LINE",
"210 0 LINE",
"265 0 LINE",
"265 232 LINE",
"353 232 LINE",
"353 294 LINE",
"265 294 LINE",
"265 700 LINE",
"204 700 LINE",
"45 294 LINE",
"45 232 LINE"
);
},
{
closed = 1;
nodes = (
"210 589 LINE",
"210 294 LINE",
"97 294 LINE"
);
}
);
width = 399;
}
);
unicode = 0034;
},
{
color = 5;
glyphname = five;
lastChange = "2016-04-28 04:35:39 +0000";
layers = (
{
layerId = "8E5E9D5F-1CFD-4F58-89B8-A9F3704C2D63";
paths = (
{
closed = 1;
nodes = (
"200 -4 OFFCURVE",
"283 51 OFFCURVE",
"290 206 CURVE SMOOTH",
"296 347 OFFCURVE",
"233 418 OFFCURVE",
"118 418 CURVE",
"118 615 LINE",
"295 614 LINE",
"295 699 LINE",
"33 700 LINE",
"33 334 LINE",
"123 336 OFFCURVE",
"206 313 OFFCURVE",
"206 202 CURVE SMOOTH",
"206 82 OFFCURVE",
"111 71 OFFCURVE",
"33 71 CURVE",
"33 2 LINE",
"107 -6 LINE"
);
}
);
width = 328;
},
{
layerId = "2009CD91-3BC4-40DB-AFF0-7394B85F3EFC";
paths = (
{
closed = 1;
nodes = (
"190 5 OFFCURVE",
"243 73 OFFCURVE",
"242 207 CURVE SMOOTH",
"240 420 OFFCURVE",
"113 399 OFFCURVE",
"85 404 CURVE",
"85 632 LINE",
"256 631 LINE",
"256 699 LINE",
"30 700 LINE",
"30 348 LINE",
"118 347 OFFCURVE",
"187 341 OFFCURVE",
"187 202 CURVE SMOOTH",
"187 117 OFFCURVE",
"168 56 OFFCURVE",
"30 55 CURVE",
"30 10 LINE",
"83 3 LINE"
);
}
);
width = 286;
}
);
leftMetricsKey = S;
rightMetricsKey = S;
unicode = 0035;
},
{
color = 5;
glyphname = six;
lastChange = "2016-04-28 04:35:39 +0000";
layers = (
{
layerId = "8E5E9D5F-1CFD-4F58-89B8-A9F3704C2D63";
paths = (
{
closed = 1;
nodes = (
"32 53 OFFCURVE",
"74 -3 OFFCURVE",
"188 -3 CURVE SMOOTH",
"304 -3 OFFCURVE",
"347 53 OFFCURVE",
"347 206 CURVE SMOOTH",
"347 360 OFFCURVE",
"307 412 OFFCURVE",
"190 412 CURVE SMOOTH",
"160 412 OFFCURVE",
"143 408 OFFCURVE",
"120 400 CURVE",
"123 593 OFFCURVE",
"135 620 OFFCURVE",
"190 620 CURVE SMOOTH",
"237 620 OFFCURVE",
"260 603 OFFCURVE",
"262 541 CURVE",
"347 541 LINE",
"345 646 OFFCURVE",
"292 707 OFFCURVE",
"190 707 CURVE SMOOTH",
"63 707 OFFCURVE",
"32 624 OFFCURVE",
"32 207 CURVE SMOOTH"
);
},
{
closed = 1;
nodes = (
"121 316 OFFCURVE",
"129 329 OFFCURVE",
"190 329 CURVE SMOOTH",
"251 329 OFFCURVE",
"259 316 OFFCURVE",
"259 206 CURVE SMOOTH",
"259 96 OFFCURVE",
"251 82 OFFCURVE",
"190 82 CURVE SMOOTH",
"129 82 OFFCURVE",
"121 95 OFFCURVE",
"121 205 CURVE SMOOTH"
);
}
);
width = 379;
},
{
layerId = "2009CD91-3BC4-40DB-AFF0-7394B85F3EFC";
paths = (
{
closed = 1;
nodes = (
"26 55 OFFCURVE",
"42 -7 OFFCURVE",
"172 -7 CURVE SMOOTH",
"305 -7 OFFCURVE",
"316 74 OFFCURVE",
"316 206 CURVE",
"316 339 OFFCURVE",
"304 414 OFFCURVE",
"172 414 CURVE SMOOTH",
"136 414 OFFCURVE",
"105 407 OFFCURVE",
"79 395 CURVE",
"81 601 OFFCURVE",
"82 669 OFFCURVE",
"174 669 CURVE SMOOTH",
"222 669 OFFCURVE",
"254 635 OFFCURVE",
"260 580 CURVE",
"315 580 LINE",
"310 677 OFFCURVE",
"267 716 OFFCURVE",
"169 716 CURVE SMOOTH",
"0 716 OFFCURVE",
"26 545 OFFCURVE",
"26 207 CURVE SMOOTH"
);
},
{
closed = 1;
nodes = (
"87 324 OFFCURVE",
"87 367 OFFCURVE",
"174 367 CURVE SMOOTH",
"261 367 OFFCURVE",
"261 324 OFFCURVE",
"261 206 CURVE SMOOTH",
"261 85 OFFCURVE",
"261 42 OFFCURVE",
"174 42 CURVE SMOOTH",
"87 42 OFFCURVE",
"87 84 OFFCURVE",
"87 205 CURVE SMOOTH"
);
}
);
width = 341;
}
);
leftMetricsKey = G;
rightMetricsKey = G;
unicode = 0036;
},
{
color = 5;
glyphname = seven;
lastChange = "2016-04-28 04:35:39 +0000";
layers = (
{
layerId = "8E5E9D5F-1CFD-4F58-89B8-A9F3704C2D63";
paths = (
{
closed = 1;
nodes = (
"169 0 LINE",
"162 97 OFFCURVE",
"228 442 OFFCURVE",
"286 620 CURVE",
"286 699 LINE",
"5 699 LINE",
"5 620 LINE",
"202 620 LINE",
"158 530 OFFCURVE",
"70 100 OFFCURVE",
"74 0 CURVE"
);
}
);
width = 291;
},
{
layerId = "2009CD91-3BC4-40DB-AFF0-7394B85F3EFC";
paths = (
{
closed = 1;
nodes = (
"142 0 LINE",
"141 114 OFFCURVE",
"204 481 OFFCURVE",
"259 651 CURVE",
"259 700 LINE",
"8 700 LINE",
"8 651 LINE",
"190 651 LINE",
"166 572 OFFCURVE",
"79 50 OFFCURVE",
"77 0 CURVE"
);
}
);
width = 267;
}
);
leftMetricsKey = T;
rightMetricsKey = T;
unicode = 0037;
},
{
color = 5;
glyphname = eight;
lastChange = "2016-04-28 04:35:39 +0000";
layers = (
{
layerId = "8E5E9D5F-1CFD-4F58-89B8-A9F3704C2D63";
paths = (
{
closed = 1;
nodes = (
"33 89 OFFCURVE",
"46 -7 OFFCURVE",
"189 -7 CURVE SMOOTH",
"334 -7 OFFCURVE",
"347 88 OFFCURVE",
"347 207 CURVE SMOOTH",
"347 287 OFFCURVE",
"351 353 OFFCURVE",
"302 387 CURVE",
"351 417 OFFCURVE",
"347 471 OFFCURVE",
"347 533 CURVE SMOOTH",
"347 638 OFFCURVE",
"333 708 OFFCURVE",
"189 708 CURVE SMOOTH",
"46 708 OFFCURVE",
"33 638 OFFCURVE",
"33 534 CURVE SMOOTH",
"33 471 OFFCURVE",
"29 417 OFFCURVE",
"78 388 CURVE",
"29 354 OFFCURVE",
"33 287 OFFCURVE",
"33 208 CURVE SMOOTH"
);
},
{
closed = 1;
nodes = (
"119 307 OFFCURVE",
"119 335 OFFCURVE",
"191 335 CURVE SMOOTH",
"263 335 OFFCURVE",
"263 307 OFFCURVE",
"263 206 CURVE SMOOTH",
"263 100 OFFCURVE",
"263 72 OFFCURVE",
"191 72 CURVE SMOOTH",
"119 72 OFFCURVE",
"119 99 OFFCURVE",
"119 205 CURVE SMOOTH"
);
},
{
closed = 1;
nodes = (
"119 610 OFFCURVE",
"119 635 OFFCURVE",
"191 635 CURVE SMOOTH",
"263 635 OFFCURVE",
"263 610 OFFCURVE",
"263 520 CURVE SMOOTH",
"263 440 OFFCURVE",
"263 416 OFFCURVE",
"191 416 CURVE SMOOTH",
"119 416 OFFCURVE",
"119 439 OFFCURVE",
"119 520 CURVE SMOOTH"
);
}
);
width = 380;
},
{
layerId = "2009CD91-3BC4-40DB-AFF0-7394B85F3EFC";
paths = (
{
closed = 1;
nodes = (
"30 76 OFFCURVE",
"41 -6 OFFCURVE",
"171 -6 CURVE SMOOTH",
"303 -6 OFFCURVE",
"314 75 OFFCURVE",
"314 207 CURVE SMOOTH",
"314 302 OFFCURVE",
"309 376 OFFCURVE",
"268 388 CURVE",
"309 398 OFFCURVE",
"314 459 OFFCURVE",
"314 533 CURVE SMOOTH",
"314 652 OFFCURVE",
"303 709 OFFCURVE",
"171 709 CURVE SMOOTH",
"41 709 OFFCURVE",
"30 652 OFFCURVE",
"30 534 CURVE SMOOTH",
"30 458 OFFCURVE",
"35 398 OFFCURVE",
"78 390 CURVE",
"35 388 OFFCURVE",
"30 303 OFFCURVE",
"30 208 CURVE SMOOTH"
);
},
{
closed = 1;
nodes = (
"86 307 OFFCURVE",
"86 350 OFFCURVE",
"173 350 CURVE SMOOTH",
"260 350 OFFCURVE",
"260 307 OFFCURVE",
"260 206 CURVE SMOOTH",
"260 86 OFFCURVE",
"260 43 OFFCURVE",
"173 43 CURVE SMOOTH",
"86 43 OFFCURVE",
"86 85 OFFCURVE",
"86 205 CURVE SMOOTH"
);
},
{
closed = 1;
nodes = (
"86 626 OFFCURVE",
"86 666 OFFCURVE",
"173 666 CURVE SMOOTH",
"260 666 OFFCURVE",
"260 626 OFFCURVE",
"260 520 CURVE SMOOTH",
"260 440 OFFCURVE",
"260 401 OFFCURVE",
"173 401 CURVE SMOOTH",
"86 401 OFFCURVE",
"86 439 OFFCURVE",
"86 520 CURVE SMOOTH"
);
}
);
width = 344;
}
);
leftMetricsKey = S;
rightMetricsKey = S;
unicode = 0038;
},
{
color = 5;
glyphname = nine;
lastChange = "2016-04-28 04:35:39 +0000";
layers = (
{
layerId = "8E5E9D5F-1CFD-4F58-89B8-A9F3704C2D63";
paths = (
{
closed = 1;
nodes = (
"347 651 OFFCURVE",
"305 707 OFFCURVE",
"191 707 CURVE SMOOTH",
"75 707 OFFCURVE",
"32 651 OFFCURVE",
"32 498 CURVE SMOOTH",
"32 344 OFFCURVE",
"72 292 OFFCURVE",
"189 292 CURVE SMOOTH",
"219 292 OFFCURVE",
"236 296 OFFCURVE",
"259 304 CURVE",
"256 100 OFFCURVE",
"251 84 OFFCURVE",
"189 84 CURVE SMOOTH",
"133 84 OFFCURVE",
"119 100 OFFCURVE",
"117 163 CURVE",
"32 163 LINE",
"35 30 OFFCURVE",
"66 -3 OFFCURVE",
"189 -3 CURVE SMOOTH",
"336 -3 OFFCURVE",
"347 33 OFFCURVE",
"347 497 CURVE SMOOTH"
);
},
{
closed = 1;
nodes = (
"258 388 OFFCURVE",
"250 375 OFFCURVE",
"189 375 CURVE SMOOTH",
"128 375 OFFCURVE",
"120 388 OFFCURVE",
"120 498 CURVE SMOOTH",
"120 608 OFFCURVE",
"128 622 OFFCURVE",
"189 622 CURVE SMOOTH",
"250 622 OFFCURVE",
"258 609 OFFCURVE",
"258 499 CURVE SMOOTH"
);
}
);
width = 379;
},
{
layerId = "2009CD91-3BC4-40DB-AFF0-7394B85F3EFC";
paths = (
{
closed = 1;
nodes = (
"317 707 OFFCURVE",
"170 707 CURVE SMOOTH",
"37 707 OFFCURVE",
"26 621 OFFCURVE",
"25 493 CURVE SMOOTH",
"26 377 OFFCURVE",
"37 302 OFFCURVE",
"169 302 CURVE SMOOTH",
"205 302 OFFCURVE",
"236 309 OFFCURVE",
"263 321 CURVE",
"260 165 OFFCURVE",
"245 45 OFFCURVE",
"168 45 CURVE SMOOTH",
"119 45 OFFCURVE",
"88 79 OFFCURVE",
"82 134 CURVE",
"26 134 LINE",
"29 27 OFFCURVE",
"63 -2 OFFCURVE",
"170 -2 CURVE SMOOTH",
"291 -2 OFFCURVE",
"309 49 OFFCURVE",
"309 415 CURVE SMOOTH",
"309 618 OFFCURVE"
);
},
{
closed = 1;
nodes = (
"255 392 OFFCURVE",
"254 349 OFFCURVE",
"167 349 CURVE SMOOTH",
"80 349 OFFCURVE",
"81 392 OFFCURVE",
"80 493 CURVE SMOOTH",
"81 610 OFFCURVE",
"81 658 OFFCURVE",
"168 658 CURVE SMOOTH",
"256 658 OFFCURVE",
"254 610 OFFCURVE",
"254 494 CURVE SMOOTH"
);
}
);
width = 334;
}
);
leftMetricsKey = six;
rightMetricsKey = six;
unicode = 0039;
},
{
glyphname = asterisk;
lastChange = "2016-04-28 04:35:39 +0000";
layers = (
{
layerId = "8E5E9D5F-1CFD-4F58-89B8-A9F3704C2D63";
paths = (
{
closed = 1;
nodes = (
"374 448 LINE",
"225 562 LINE",
"111 711 LINE",
"58 658 LINE",
"207 544 LINE",
"321 395 LINE"
);
},
{
closed = 1;
nodes = (
"225 544 LINE",
"374 658 LINE",
"321 711 LINE",
"207 562 LINE",
"58 448 LINE",
"111 395 LINE"
);
},
{
closed = 1;
nodes = (
"253 367 LINE",
"233 553 LINE",
"253 739 LINE",
"179 739 LINE",
"199 553 LINE",
"179 367 LINE"
);
},
{
closed = 1;
nodes = (
"216 536 LINE",
"402 516 LINE",
"402 590 LINE",
"216 570 LINE",
"30 590 LINE",
"30 516 LINE"
);
}
);
width = 432;
},
{
layerId = "2009CD91-3BC4-40DB-AFF0-7394B85F3EFC";
paths = (
{
closed = 1;
nodes = (
"303 479 LINE",
"190 577 LINE",
"93 689 LINE",
"72 669 LINE",
"184 570 LINE",
"282 458 LINE"
);
},
{
closed = 1;
nodes = (
"191 570 LINE",
"303 669 LINE",
"282 689 LINE",
"184 576 LINE",
"72 479 LINE",
"92 458 LINE"
);
},
{
closed = 1;
nodes = (
"192 574 LINE",
"202 722 LINE",
"173 722 LINE",
"184 574 LINE",
"173 425 LINE",
"202 425 LINE"
);
},
{
closed = 1;
nodes = (
"188 569 LINE",
"336 559 LINE",
"335 588 LINE",
"188 577 LINE",
"39 588 LINE",
"38 559 LINE"
);
}
);
width = 374;
}
);
unicode = 002A;
},
{
glyphname = backslash;
lastChange = "2016-04-28 04:35:39 +0000";
layers = (
{
layerId = "8E5E9D5F-1CFD-4F58-89B8-A9F3704C2D63";
paths = (
{
closed = 1;
nodes = (
"328 0 LINE",
"138 700 LINE",
"30 700 LINE",
"220 0 LINE"
);
}
);
width = 358;
},
{
layerId = "2009CD91-3BC4-40DB-AFF0-7394B85F3EFC";
paths = (
{
closed = 1;
nodes = (
"73 700 LINE",
"50 700 LINE",
"231 0 LINE",
"254 0 LINE"
);
}
);
width = 304;
}
);
unicode = 005C;
},
{
glyphname = colon;
lastChange = "2016-04-28 04:35:39 +0000";
layers = (
{
layerId = "8E5E9D5F-1CFD-4F58-89B8-A9F3704C2D63";
paths = (
{
closed = 1;
nodes = (
"160 344 LINE",
"160 454 LINE",
"48 454 LINE",
"48 344 LINE"
);
},
{
closed = 1;
nodes = (
"159 0 LINE",
"159 108 LINE",
"49 108 LINE",
"49 0 LINE"
);
}
);
width = 208;
},
{
layerId = "2009CD91-3BC4-40DB-AFF0-7394B85F3EFC";
paths = (
{
closed = 1;
nodes = (
"121 397 LINE",
"121 430 LINE",
"88 430 LINE",
"88 397 LINE"
);
},
{
closed = 1;
nodes = (
"121 0 LINE",
"121 33 LINE",
"88 33 LINE",
"88 0 LINE"
);
}
);
width = 208;
}
);
unicode = 003A;
},
{
color = 5;
glyphname = comma;
lastChange = "2016-04-28 04:35:39 +0000";
layers = (
{
layerId = "8E5E9D5F-1CFD-4F58-89B8-A9F3704C2D63";
paths = (
{
closed = 1;
nodes = (
"79 -66 LINE",
"79 -66 OFFCURVE",
"143 32 OFFCURVE",
"155 126 CURVE",
"47 116 LINE SMOOTH",
"57 117 OFFCURVE",
"8 -75 OFFCURVE",
"15 -74 CURVE SMOOTH"
);
}
);
width = 169;
},
{
layerId = "2009CD91-3BC4-40DB-AFF0-7394B85F3EFC";
paths = (
{
closed = 1;
nodes = (
"62 -52 LINE",
"75 -32 OFFCURVE",
"115 38 OFFCURVE",
"129 109 CURVE",
"53 102 LINE",
"56 50 OFFCURVE",
"25 -56 OFFCURVE",
"5 -59 CURVE"
);
}
);
width = 161;
}
);
unicode = 002C;
},
{
glyphname = exclam;
lastChange = "2016-04-28 04:35:39 +0000";
layers = (
{
layerId = "8E5E9D5F-1CFD-4F58-89B8-A9F3704C2D63";
paths = (
{
closed = 1;
nodes = (
"117 186 LINE",
"117 232 LINE",
"131 701 LINE",
"34 701 LINE",
"47 232 LINE",
"47 186 LINE"
);
},
{
closed = 1;
nodes = (
"127 0 LINE",
"127 116 LINE",
"38 116 LINE",
"38 0 LINE"
);
}
);
width = 165;
},
{
layerId = "2009CD91-3BC4-40DB-AFF0-7394B85F3EFC";
paths = (
{
closed = 1;
nodes = (
"88 201 LINE",
"88 232 LINE",
"93 700 LINE",
"68 700 LINE",
"72 232 LINE",
"72 201 LINE"
);
},
{
closed = 1;
nodes = (
"91 0 LINE",
"91 56 LINE",
"69 56 LINE",
"69 0 LINE"
);
}
);
width = 158;
}
);
unicode = 0021;
},
{
color = 5;
glyphname = numbersign;
lastChange = "2016-04-28 04:35:39 +0000";
layers = (
{
layerId = "8E5E9D5F-1CFD-4F58-89B8-A9F3704C2D63";
paths = (
{
closed = 1;
nodes = (
"170 0 LINE",
"360 700 LINE",
"252 700 LINE",
"62 0 LINE"
);
},
{
closed = 1;
nodes = (
"370 0 LINE",
"560 700 LINE",
"452 700 LINE",
"262 0 LINE"
);
},
{
closed = 1;
nodes = (
"571 211 LINE",
"571 309 LINE",
"21 309 LINE",
"21 211 LINE"
);
},
{
closed = 1;
nodes = (
"611 421 LINE",
"611 519 LINE",
"61 519 LINE",
"61 421 LINE"
);
}
);
width = 632;
},
{
layerId = "2009CD91-3BC4-40DB-AFF0-7394B85F3EFC";
paths = (
{
closed = 1;
nodes = (
"127 -6 LINE",
"304 700 LINE",
"246 700 LINE",
"69 -6 LINE"
);
},
{
closed = 1;
nodes = (
"328 -6 LINE",
"503 700 LINE",
"446 700 LINE",
"270 -6 LINE"
);
},
{
closed = 1;
nodes = (
"522 235 LINE",
"522 285 LINE",
"21 285 LINE",
"21 235 LINE"
);
},
{
closed = 1;
nodes = (
"562 445 LINE",
"562 495 LINE",
"61 495 LINE",
"61 445 LINE"
);
}
);
width = 583;
}
);
unicode = 0023;
},
{
color = 5;
glyphname = period;
lastChange = "2016-04-28 04:35:39 +0000";
layers = (
{
layerId = "8E5E9D5F-1CFD-4F58-89B8-A9F3704C2D63";
paths = (
{
closed = 1;
nodes = (
"133 0 LINE",
"133 116 LINE",
"15 116 LINE",
"15 0 LINE"
);
}
);
width = 148;
},
{
layerId = "2009CD91-3BC4-40DB-AFF0-7394B85F3EFC";
paths = (
{
closed = 1;
nodes = (
"118 15 LINE",
"118 101 LINE",
"30 101 LINE",
"30 15 LINE"
);
}
);
width = 148;
}
);
unicode = 002E;
},
{
color = 5;
glyphname = question;
lastChange = "2016-04-28 04:35:39 +0000";
layers = (
{
layerId = "8E5E9D5F-1CFD-4F58-89B8-A9F3704C2D63";
paths = (
{
closed = 1;
nodes = (
"185 176 LINE",
"185 228 LINE SMOOTH",
"185 389 OFFCURVE",
"275 336 OFFCURVE",
"275 510 CURVE SMOOTH",
"275 667 OFFCURVE",
"186 712 OFFCURVE",
"100 704 CURVE SMOOTH",
"56 700 OFFCURVE",
"25 683 OFFCURVE",
"17 659 CURVE SMOOTH",
"18 557 OFFCURVE",
"11 542 OFFCURVE",
"20 542 CURVE SMOOTH",
"22 542 OFFCURVE",
"55 596 OFFCURVE",
"103 607 CURVE SMOOTH",
"152 618 OFFCURVE",
"173 577 OFFCURVE",
"173 532 CURVE SMOOTH",
"173 383 OFFCURVE",
"86 449 OFFCURVE",
"86 232 CURVE",
"87 176 LINE"
);
},
{
closed = 1;
nodes = (
"185 0 LINE",
"185 116 LINE",
"88 116 LINE",
"88 0 LINE"
);
}
);
width = 290;
},
{
layerId = "2009CD91-3BC4-40DB-AFF0-7394B85F3EFC";
paths = (
{
closed = 1;
nodes = (
"150 191 LINE",
"150 228 LINE SMOOTH",
"150 415 OFFCURVE",
"240 376 OFFCURVE",
"240 525 CURVE SMOOTH",
"240 648 OFFCURVE",
"181 713 OFFCURVE",
"81 704 CURVE SMOOTH",
"44 701 OFFCURVE",
"11 688 OFFCURVE",
"11 669 CURVE SMOOTH",
"11 632 OFFCURVE",
"7 599 OFFCURVE",
"15 599 CURVE SMOOTH",
"20 599 OFFCURVE",
"47 629 OFFCURVE",
"80 637 CURVE SMOOTH",
"132 648 OFFCURVE",
"168 611 OFFCURVE",
"168 547 CURVE SMOOTH",
"168 383 OFFCURVE",
"81 404 OFFCURVE",
"81 232 CURVE SMOOTH",
"82 191 LINE"
);
},
{
closed = 1;
nodes = (
"150 0 LINE",
"150 86 LINE",
"83 86 LINE",
"83 0 LINE"
);
}
);
width = 250;
}
);
unicode = 003F;
},
{
color = 5;
glyphname = quotesingle;
lastChange = "2016-04-28 04:35:39 +0000";
layers = (
{
layerId = "8E5E9D5F-1CFD-4F58-89B8-A9F3704C2D63";
paths = (
{
closed = 1;
nodes = (
"101 511 LINE",
"138 703 LINE",
"30 693 LINE",
"37 503 LINE"
);
}
);
width = 168;
},
{
layerId = "2009CD91-3BC4-40DB-AFF0-7394B85F3EFC";
paths = (
{
closed = 1;
nodes = (
"88.332 524.533 LINE",
"119.491 686.222 LINE",
"45.512 679.372 LINE",
"51.387 519.915 LINE"
);
}
);
width = 168;
}
);
unicode = 0027;
},
{
color = 5;
glyphname = semicolon;
lastChange = "2016-04-28 04:35:39 +0000";
layers = (
{
layerId = "8E5E9D5F-1CFD-4F58-89B8-A9F3704C2D63";
paths = (
{
closed = 1;
nodes = (
"79 -66 LINE",
"79 -66 OFFCURVE",
"143 92 OFFCURVE",
"155 186 CURVE",
"47 176 LINE SMOOTH",
"57 177 OFFCURVE",
"8 -75 OFFCURVE",
"15 -74 CURVE SMOOTH"
);
},
{
closed = 1;
nodes = (
"160 335 LINE",
"160 445 LINE",
"48 445 LINE",
"48 335 LINE"
);
}
);
width = 185;
},
{
layerId = "2009CD91-3BC4-40DB-AFF0-7394B85F3EFC";
paths = (
{
closed = 1;
nodes = (
"68.334 -52.216 LINE",
"80.433 -21.407 OFFCURVE",
"122.897 89.86 OFFCURVE",
"137.225 169.29 CURVE",
"60.21 162.159 LINE",
"65.728 97.011 OFFCURVE",
"33.348 -56.227 OFFCURVE",
"12.879 -59.151 CURVE"
);
},
{
closed = 1;
nodes = (
"145 350 LINE",
"145 430 LINE",
"63 430 LINE",
"63 350 LINE"
);
}
);
width = 175;
}
);
unicode = 003B;
},
{
glyphname = slash;
lastChange = "2016-04-28 04:35:39 +0000";
layers = (
{
layerId = "8E5E9D5F-1CFD-4F58-89B8-A9F3704C2D63";
paths = (
{
closed = 1;
nodes = (
"138 0 LINE",
"328 700 LINE",
"220 700 LINE",
"30 0 LINE"
);
}
);
width = 358;
},
{
layerId = "2009CD91-3BC4-40DB-AFF0-7394B85F3EFC";
paths = (
{
closed = 1;
nodes = (
"73 0 LINE",
"254 700 LINE",
"231 700 LINE",
"50 0 LINE"
);
}
);
width = 304;
}
);
unicode = 002F;
},
{
color = 5;
glyphname = braceleft;
lastChange = "2016-04-28 04:35:39 +0000";
layers = (
{
layerId = "8E5E9D5F-1CFD-4F58-89B8-A9F3704C2D63";
paths = (
{
closed = 1;
nodes = (
"286 -33 LINE",
"166 -33 OFFCURVE",
"184 95 OFFCURVE",
"186 262 CURVE SMOOTH",
"186 284 OFFCURVE",
"116 326 OFFCURVE",
"116 348 CURVE SMOOTH",
"116 383 OFFCURVE",
"186 402 OFFCURVE",
"186 434 CURVE SMOOTH",
"188 578 OFFCURVE",
"172 699 OFFCURVE",
"286 699 CURVE",
"286 756 LINE",
"107 756 OFFCURVE",
"106 593 OFFCURVE",
"100 434 CURVE SMOOTH",
"99 399 OFFCURVE",
"30 383 OFFCURVE",
"30 348 CURVE SMOOTH",
"30 316 OFFCURVE",
"99 295 OFFCURVE",
"100 262 CURVE SMOOTH",
"105 92 OFFCURVE",
"105 -90 OFFCURVE",
"286 -90 CURVE"
);
}
);
width = 331;
},
{
layerId = "2009CD91-3BC4-40DB-AFF0-7394B85F3EFC";
paths = (
{
closed = 1;
nodes = (
"271 -47 LINE",
"150 -37 OFFCURVE",
"169 102 OFFCURVE",
"171 262 CURVE",
"171 274 OFFCURVE",
"121 318 OFFCURVE",
"121 348 CURVE SMOOTH",
"121 392 OFFCURVE",
"171 414 OFFCURVE",
"171 434 CURVE SMOOTH",
"173 571 OFFCURVE",
"156 703 OFFCURVE",
"271 713 CURVE",
"271 741 LINE",
"122 732 OFFCURVE",
"121 588 OFFCURVE",
"115 433 CURVE SMOOTH",
"114 388 OFFCURVE",
"45 371 OFFCURVE",
"45 348 CURVE SMOOTH",
"45 327 OFFCURVE",
"114 305 OFFCURVE",
"115 262 CURVE SMOOTH",
"120 98 OFFCURVE",
"120 -65 OFFCURVE",
"271 -75 CURVE"
);
}
);
width = 331;
}
);
unicode = 007B;
},
{
color = 5;
glyphname = bracketleft;
lastChange = "2016-04-28 04:35:39 +0000";
layers = (
{
layerId = "8E5E9D5F-1CFD-4F58-89B8-A9F3704C2D63";
paths = (
{
closed = 1;
nodes = (
"246 -90 LINE",
"246 -33 LINE",
"116 -33 LINE",
"116 699 LINE",
"246 699 LINE",
"246 756 LINE",
"30 756 LINE",
"30 -90 LINE"
);
}
);
width = 291;
},
{
layerId = "2009CD91-3BC4-40DB-AFF0-7394B85F3EFC";
paths = (
{
closed = 1;
nodes = (
"231 -75 LINE",
"231 -48 LINE",
"101 -48 LINE",
"101 714 LINE",
"231 714 LINE",
"231 741 LINE",
"45 741 LINE",
"45 -75 LINE"
);
}
);
width = 291;
}
);
unicode = 005B;
},
{
color = 5;
glyphname = bracketright;
lastChange = "2016-04-28 04:35:39 +0000";
layers = (
{
layerId = "8E5E9D5F-1CFD-4F58-89B8-A9F3704C2D63";
paths = (
{
closed = 1;
nodes = (
"261 -90 LINE",
"261 756 LINE",
"45 756 LINE",
"45 699 LINE",
"175 699 LINE",
"175 -33 LINE",
"45 -33 LINE",
"45 -90 LINE"
);
}
);
width = 291;
},
{
layerId = "2009CD91-3BC4-40DB-AFF0-7394B85F3EFC";
paths = (
{
closed = 1;
nodes = (
"246 -75 LINE",
"246 741 LINE",
"60 741 LINE",
"60 714 LINE",
"190 714 LINE",
"190 -48 LINE",
"60 -48 LINE",
"60 -75 LINE"
);
}
);
width = 291;
}
);
unicode = 005D;
},
{
color = 5;
glyphname = parenleft;
lastChange = "2016-04-28 04:35:39 +0000";
layers = (
{
layerId = "8E5E9D5F-1CFD-4F58-89B8-A9F3704C2D63";
paths = (
{
closed = 1;
nodes = (
"246 -33 LINE",
"156 -33 OFFCURVE",
"116 156 OFFCURVE",
"116 348 CURVE SMOOTH",
"116 540 OFFCURVE",
"156 699 OFFCURVE",
"246 699 CURVE",
"246 756 LINE",
"77 756 OFFCURVE",
"30 544 OFFCURVE",
"30 348 CURVE SMOOTH",
"30 152 OFFCURVE",
"77 -90 OFFCURVE",
"246 -90 CURVE"
);
}
);
width = 261;
},
{
layerId = "2009CD91-3BC4-40DB-AFF0-7394B85F3EFC";
paths = (
{
closed = 1;
nodes = (
"231 -46.51 LINE",
"149.715 -30.045 OFFCURVE",
"101 121.625 OFFCURVE",
"101 348 CURVE SMOOTH",
"101 563.603 OFFCURVE",
"148.04 698.428 OFFCURVE",
"231 712.735 CURVE",
"231 740.342 LINE",
"110.981 729.642 OFFCURVE",
"45 588.783 OFFCURVE",
"45 348 CURVE SMOOTH",
"45 95.789 OFFCURVE",
"113.597 -61.958 OFFCURVE",
"231 -74.228 CURVE"
);
}
);
width = 261;
}
);
unicode = 0028;
},
{
color = 5;
glyphname = emdash;
lastChange = "2016-04-28 04:35:39 +0000";
layers = (
{
layerId = "8E5E9D5F-1CFD-4F58-89B8-A9F3704C2D63";
paths = (
{
closed = 1;
nodes = (
"120 203 OFFCURVE",
"378 203 OFFCURVE",
"475 203 CURVE",
"475 237 OFFCURVE",
"475 269 OFFCURVE",
"475 303 CURVE",
"326 303 OFFCURVE",
"164 304 OFFCURVE",
"22 304 CURVE",
"22 270 OFFCURVE",
"22 237 OFFCURVE",
"22 203 CURVE"
);
}
);
width = 497;
},
{
layerId = "2009CD91-3BC4-40DB-AFF0-7394B85F3EFC";
paths = (
{
closed = 1;
nodes = (
"138.318 218 OFFCURVE",
"359.391 218 OFFCURVE",
"460 218 CURVE",
"460 241.858 OFFCURVE",
"460 265.193 OFFCURVE",
"460 288.364 CURVE",
"320.428 288.077 OFFCURVE",
"170.464 288.934 OFFCURVE",
"37 288.996 CURVE",
"37 265.493 OFFCURVE",
"37 241.83 OFFCURVE",
"37 218 CURVE"
);
}
);
width = 497;
}
);
unicode = 2014;
},
{
color = 5;
glyphname = endash;
lastChange = "2016-04-28 04:35:39 +0000";
layers = (
{
layerId = "8E5E9D5F-1CFD-4F58-89B8-A9F3704C2D63";
paths = (
{
closed = 1;
nodes = (
"120 203 OFFCURVE",
"208 203 OFFCURVE",
"305 203 CURVE",
"305 237 OFFCURVE",
"305 269 OFFCURVE",
"305 303 CURVE",
"156 303 OFFCURVE",
"164 304 OFFCURVE",
"22 304 CURVE",
"22 270 OFFCURVE",
"22 237 OFFCURVE",
"22 203 CURVE"
);
}
);
width = 327;
},
{
layerId = "2009CD91-3BC4-40DB-AFF0-7394B85F3EFC";
paths = (
{
closed = 1;
nodes = (
"124.534 218 OFFCURVE",
"203.816 218 OFFCURVE",
"290 218 CURVE",
"290 241.9 OFFCURVE",
"290 265.275 OFFCURVE",
"290 288.425 CURVE",
"5.538 287.969 OFFCURVE",
"-5.166 289.399 OFFCURVE",
"37 288.944 CURVE",
"37 265.486 OFFCURVE",
"37 241.829 OFFCURVE",
"37 218 CURVE"
);
}
);
width = 327;
}
);
unicode = 2013;
},
{
color = 5;
glyphname = hyphen;
lastChange = "2016-05-03 05:20:12 +0000";
layers = (
{
layerId = "8E5E9D5F-1CFD-4F58-89B8-A9F3704C2D63";
paths = (
{
closed = 1;
nodes = (
"133 203 OFFCURVE",
"181 203 OFFCURVE",
"278 203 CURVE",
"278 237 OFFCURVE",
"278 268 OFFCURVE",
"278 302 CURVE",
"35 304 LINE",
"35 270 OFFCURVE",
"35 237 OFFCURVE",
"35 203 CURVE"
);
}
);
width = 313;
},
{
layerId = "2009CD91-3BC4-40DB-AFF0-7394B85F3EFC";
paths = (
{
closed = 1;
nodes = (
"133 242 OFFCURVE",
"180 242 OFFCURVE",
"263 242 CURVE",
"263 250 OFFCURVE",
"263 257 OFFCURVE",
"263 264 CURVE",
"50 265 LINE",
"50 257 OFFCURVE",
"50 250 OFFCURVE",
"50 242 CURVE"
);
}
);
width = 313;
}
);
unicode = 002D;
},
{
color = 5;
glyphname = guilsinglleft;
lastChange = "2016-04-28 04:35:39 +0000";
layers = (
{
layerId = "8E5E9D5F-1CFD-4F58-89B8-A9F3704C2D63";
paths = (
{
closed = 1;
nodes = (
"225 292 LINE",
"225 377 LINE",
"33 262 LINE",
"33 178 LINE"
);
},
{
closed = 1;
nodes = (
"225 148 LINE",
"33 262 LINE",
"33 178 LINE",
"225 63 LINE"
);
}
);
width = 258;
},
{
layerId = "2009CD91-3BC4-40DB-AFF0-7394B85F3EFC";
paths = (
{
closed = 1;
nodes = (
"210 300.539 LINE",
"210 350.531 LINE",
"48 253.5 LINE",
"48 204.351 LINE"
);
},
{
closed = 1;
nodes = (
"210 139.461 LINE",
"48 235.649 LINE",
"48 186.5 LINE",
"210 89.469 LINE"
);
}
);
width = 258;
}
);
unicode = 2039;
},
{
color = 5;
glyphname = guilsinglright;
lastChange = "2016-04-28 04:35:39 +0000";
layers = (
{
layerId = "8E5E9D5F-1CFD-4F58-89B8-A9F3704C2D63";
paths = (
{
closed = 1;
nodes = (
"225 262 LINE",
"33 377 LINE",
"33 292 LINE",
"225 178 LINE"
);
},
{
closed = 1;
nodes = (
"225 178 LINE",
"225 262 LINE",
"33 148 LINE",
"33 63 LINE"
);
}
);
width = 258;
},
{
layerId = "2009CD91-3BC4-40DB-AFF0-7394B85F3EFC";
paths = (
{
closed = 1;
nodes = (
"210 253.5 LINE",
"48 350.531 LINE",
"48 300.539 LINE",
"210 204.351 LINE"
);
},
{
closed = 1;
nodes = (
"210 186.5 LINE",
"210 235.649 LINE",
"48 139.461 LINE",
"48 89.469 LINE"
);
}
);
width = 258;
}
);
unicode = 203A;
},
{
color = 5;
glyphname = quoteleft;
lastChange = "2016-04-28 04:35:39 +0000";
layers = (
{
layerId = "8E5E9D5F-1CFD-4F58-89B8-A9F3704C2D63";
paths = (
{
closed = 1;
nodes = (
"160 502 OFFCURVE",
"111 694 OFFCURVE",
"121 693 CURVE SMOOTH",
"13 703 LINE",
"25 609 OFFCURVE",
"89 511 OFFCURVE",
"89 511 CURVE",
"153 503 LINE SMOOTH"
);
}
);
width = 168;
},
{
layerId = "2009CD91-3BC4-40DB-AFF0-7394B85F3EFC";
paths = (
{
closed = 1;
nodes = (
"134.862 520.743 OFFCURVE",
"104.234 626.848 OFFCURVE",
"106.6 679.269 CURVE",
"30.927 686.276 LINE",
"45.013 615.103 OFFCURVE",
"85.481 545.294 OFFCURVE",
"97.923 525.001 CURVE",
"154.861 517.884 LINE"
);
}
);
width = 168;
}
);
unicode = 2018;
},
{
color = 5;
glyphname = quoteright;
lastChange = "2016-04-28 04:35:39 +0000";
layers = (
{
layerId = "8E5E9D5F-1CFD-4F58-89B8-A9F3704C2D63";
paths = (
{
closed = 1;
nodes = (
"78 511 LINE",
"78 511 OFFCURVE",
"142 609 OFFCURVE",
"154 703 CURVE",
"46 693 LINE SMOOTH",
"56 694 OFFCURVE",
"7 502 OFFCURVE",
"14 503 CURVE SMOOTH"
);
}
);
width = 168;
},
{
layerId = "2009CD91-3BC4-40DB-AFF0-7394B85F3EFC";
paths = (
{
closed = 1;
nodes = (
"69.077 525.001 LINE",
"81.519 545.294 OFFCURVE",
"121.987 615.103 OFFCURVE",
"136.073 686.276 CURVE",
"60.4 679.269 LINE",
"62.766 626.848 OFFCURVE",
"32.138 520.743 OFFCURVE",
"11.879 517.849 CURVE"
);
}
);
width = 168;
}
);
leftKerningGroup = quote;
unicode = 2019;
},
{
color = 5;
glyphname = cent;
lastChange = "2016-04-28 04:35:39 +0000";
layers = (
{
anchors = (
{
name = bottom;
position = "{173, 110}";
},
{
name = top;
position = "{156, 551}";
}
);
components = (
{
name = bar;
transform = "{0.75, 0, 0, 1, 140, -3}";
}
);
layerId = "8E5E9D5F-1CFD-4F58-89B8-A9F3704C2D63";
paths = (
{
closed = 1;
nodes = (
"304 560 LINE",
"211 564 LINE",
"51 564 OFFCURVE",
"22 532 OFFCURVE",
"22 358 CURVE SMOOTH",
"22 155 OFFCURVE",
"60 106 OFFCURVE",
"219 106 CURVE SMOOTH",
"241 106 OFFCURVE",
"256 107 OFFCURVE",
"304 111 CURVE",
"304 195 LINE",
"214 195 LINE SMOOTH",
"113 195 OFFCURVE",
"108 202 OFFCURVE",
"108 337 CURVE SMOOTH",
"108 469 OFFCURVE",
"114 476 OFFCURVE",
"233 476 CURVE SMOOTH",
"304 476 LINE"
);
}
);
width = 322;
},
{
anchors = (
{
name = bottom;
position = "{173, 110}";
},
{
name = top;
position = "{156, 551}";
}
);
components = (
{
name = bar;
transform = "{0.75, 0, 0, 1, 140, -3}";
}
);
layerId = "2009CD91-3BC4-40DB-AFF0-7394B85F3EFC";
paths = (
{
closed = 1;
nodes = (
"289 546 LINE",
"211 549 LINE",
"59 549 OFFCURVE",
"37 524 OFFCURVE",
"37 355 CURVE SMOOTH",
"37 163 OFFCURVE",
"70 121 OFFCURVE",
"217 121 CURVE SMOOTH",
"238 121 OFFCURVE",
"253 122 OFFCURVE",
"289 125 CURVE",
"289 180 LINE",
"214 180 LINE SMOOTH",
"108 180 OFFCURVE",
"93 200 OFFCURVE",
"93 344 CURVE SMOOTH",
"93 495 OFFCURVE",
"129 491 OFFCURVE",
"233 491 CURVE SMOOTH",
"289 491 LINE"
);
}
);
width = 322;
}
);
unicode = 00A2;
},
{
color = 5;
glyphname = currency;
lastChange = "2016-04-28 04:35:39 +0000";
layers = (
{
anchors = (
{
name = top;
position = "{117, 545}";
}
);
layerId = "8E5E9D5F-1CFD-4F58-89B8-A9F3704C2D63";
paths = (
{
closed = 1;
nodes = (
"113 110 LINE",
"130 152 LINE",
"142 149 OFFCURVE",
"156 148 OFFCURVE",
"171 148 CURVE SMOOTH",
"185 148 OFFCURVE",
"198 149 OFFCURVE",
"210 151 CURVE",
"226 110 LINE",
"317 110 LINE",
"282 202 LINE",
"301 237 OFFCURVE",
"304 284 OFFCURVE",
"304 336 CURVE SMOOTH",
"304 390 OFFCURVE",
"301 439 OFFCURVE",
"279 472 CURVE",
"317 560 LINE",
"226 560 LINE",
"206 517 LINE",
"196 518 OFFCURVE",
"184 519 OFFCURVE",
"171 519 CURVE SMOOTH",
"157 519 OFFCURVE",
"145 518 OFFCURVE",
"133 516 CURVE",
"113 560 LINE",
"25 560 LINE",
"63 472 LINE",
"41 439 OFFCURVE",
"38 390 OFFCURVE",
"38 336 CURVE SMOOTH",
"38 284 OFFCURVE",
"41 237 OFFCURVE",
"60 202 CURVE",
"25 110 LINE"
);
},
{
closed = 1;
nodes = (
"109 429 OFFCURVE",
"110 452 OFFCURVE",
"171 452 CURVE SMOOTH",
"232 452 OFFCURVE",
"233 429 OFFCURVE",
"233 331 CURVE SMOOTH",
"233 233 OFFCURVE",
"232 213 OFFCURVE",
"171 213 CURVE SMOOTH",
"110 213 OFFCURVE",
"109 233 OFFCURVE",
"109 331 CURVE SMOOTH"
);
}
);
width = 342;
},
{
anchors = (
{
name = top;
position = "{117, 545}";
}
);
layerId = "2009CD91-3BC4-40DB-AFF0-7394B85F3EFC";
paths = (
{
closed = 1;
nodes = (
"106.934 119 LINE",
"124.735 162.981 LINE",
"135.254 159.196 OFFCURVE",
"149.244 157 OFFCURVE",
"171 157 CURVE SMOOTH",
"188.483 157 OFFCURVE",
"202.909 158.569 OFFCURVE",
"215.675 161.214 CURVE",
"232.149 119 LINE",
"303.947 119 LINE",
"272.084 202.753 LINE",
"291.936 236.345 OFFCURVE",
"295 282.428 OFFCURVE",
"295 336 CURVE SMOOTH",
"295 392.044 OFFCURVE",
"291.915 440.011 OFFCURVE",
"268.736 470.933 CURVE",
"303.31 551 LINE",
"231.74 551 LINE",
"211.456 507.391 LINE",
"200.245 508.563 OFFCURVE",
"186.423 510 OFFCURVE",
"171 510 CURVE SMOOTH",
"154.252 510 OFFCURVE",
"141.358 508.563 OFFCURVE",
"127.708 505.893 CURVE",
"107.205 551 LINE",
"38.69 551 LINE",
"73.264 470.933 LINE",
"50.085 440.011 OFFCURVE",
"47 392.044 OFFCURVE",
"47 336 CURVE SMOOTH",
"47 282.428 OFFCURVE",
"50.064 236.345 OFFCURVE",
"69.916 202.753 CURVE",
"38.053 119 LINE"
);
},
{
closed = 1;
nodes = (
"100 429.196 OFFCURVE",
"101.383 461 OFFCURVE",
"171 461 CURVE SMOOTH",
"240.617 461 OFFCURVE",
"242 429.196 OFFCURVE",
"242 331 CURVE SMOOTH",
"242 232.775 OFFCURVE",
"240.561 204 OFFCURVE",
"171 204 CURVE SMOOTH",
"101.439 204 OFFCURVE",
"100 232.775 OFFCURVE",
"100 331 CURVE SMOOTH"
);
}
);
width = 342;
}
);
unicode = 00A4;
},
{
color = 5;
glyphname = dollar;
lastChange = "2016-04-28 04:35:39 +0000";
layers = (
{
anchors = (
{
name = bottom;
position = "{216, 0}";
},
{
name = top;
position = "{261, 680}";
}
);
layerId = "8E5E9D5F-1CFD-4F58-89B8-A9F3704C2D63";
paths = (
{
closed = 1;
nodes = (
"321 -16 OFFCURVE",
"397 47 OFFCURVE",
"397 169 CURVE SMOOTH",
"397 402 OFFCURVE",
"121 360 OFFCURVE",
"121 505 CURVE SMOOTH",
"121 578 OFFCURVE",
"192 611 OFFCURVE",
"294 611 CURVE",
"397 611 LINE",
"397 699 LINE",
"285 707 LINE",
"102 707 OFFCURVE",
"35 643 OFFCURVE",
"35 522 CURVE SMOOTH",
"35 276 OFFCURVE",
"310 347 OFFCURVE",
"310 178 CURVE SMOOTH",
"310 80 OFFCURVE",
"218 78 OFFCURVE",
"35 81 CURVE",
"35 -7 LINE",
"143 -16 LINE"
);
},
{
closed = 1;
nodes = (
"230 676 OFFCURVE",
"123 34 OFFCURVE",
"104 -81 CURVE",
"130 -86 OFFCURVE",
"156 -90 OFFCURVE",
"182 -95 CURVE",
"213 81 OFFCURVE",
"301 610 OFFCURVE",
"330 777 CURVE",
"304 782 OFFCURVE",
"277 786 OFFCURVE",
"250 791 CURVE"
);
}
);
width = 432;
},
{
anchors = (
{
name = bottom;
position = "{216, 0}";
},
{
name = top;
position = "{261, 680}";
}
);
layerId = "2009CD91-3BC4-40DB-AFF0-7394B85F3EFC";
paths = (
{
closed = 1;
nodes = (
"312.909 -0.871 OFFCURVE",
"382 51.817 OFFCURVE",
"382 177 CURVE SMOOTH",
"382 383.099 OFFCURVE",
"106 331.425 OFFCURVE",
"106 517 CURVE SMOOTH",
"106 581.693 OFFCURVE",
"184.126 626 OFFCURVE",
"294 626 CURVE SMOOTH",
"382 626 LINE",
"382 685.033 LINE",
"284.467 692 LINE",
"115.066 691.894 OFFCURVE",
"50 641.418 OFFCURVE",
"50 514 CURVE SMOOTH",
"50 299.029 OFFCURVE",
"325 367.703 OFFCURVE",
"325 173 CURVE SMOOTH",
"325 68.469 OFFCURVE",
"215.756 63.224 OFFCURVE",
"50 65.753 CURVE",
"50 6.802 LINE",
"143.621 -1 LINE"
);
},
{
closed = 1;
nodes = (
"237.938 632.217 OFFCURVE",
"144.459 71.47 OFFCURVE",
"121.191 -68.986 CURVE",
"137.304 -71.861 OFFCURVE",
"153.521 -74.538 OFFCURVE",
"169.843 -77.483 CURVE",
"201.96 106.31 OFFCURVE",
"282.268 588.628 OFFCURVE",
"312.691 764.944 CURVE",
"296.218 767.88 OFFCURVE",
"279.313 770.588 OFFCURVE",
"262.213 773.57 CURVE"
);
}
);
width = 432;
}
);
unicode = 0024;
},
{
color = 5;
glyphname = euro;
lastChange = "2016-04-28 04:35:39 +0000";
layers = (
{
anchors = (
{
name = bottom;
position = "{306, 0}";
},
{
name = top;
position = "{310, 689}";
}
);
guideLines = (
{
angle = 90;
position = "{478, 564}";
}
);
layerId = "8E5E9D5F-1CFD-4F58-89B8-A9F3704C2D63";
paths = (
{
closed = 1;
nodes = (
"501 664 LINE",
"468 680 OFFCURVE",
"426 688 OFFCURVE",
"374 688 CURVE SMOOTH",
"155 688 OFFCURVE",
"135 549 OFFCURVE",
"135 350 CURVE SMOOTH",
"135 151 OFFCURVE",
"157 -15 OFFCURVE",
"372 2 CURVE SMOOTH",
"422 6 OFFCURVE",
"446 16 OFFCURVE",
"478 30 CURVE",
"478 121 LINE",
"442 97 OFFCURVE",
"415 91 OFFCURVE",
"376 89 CURVE SMOOTH",
"238 82 OFFCURVE",
"234 149 OFFCURVE",
"234 340 CURVE SMOOTH",
"234 531 OFFCURVE",
"235 596 OFFCURVE",
"374 596 CURVE SMOOTH",
"425 596 OFFCURVE",
"457 587 OFFCURVE",
"478 566 CURVE"
);
},
{
closed = 1;
nodes = (
"155 355 OFFCURVE",
"332 361 OFFCURVE",
"429 362 CURVE",
"450 461 LINE",
"301 461 OFFCURVE",
"218 456 OFFCURVE",
"77 456 CURVE",
"57 354 LINE"
);
},
{
closed = 1;
nodes = (
"132 203 OFFCURVE",
"297 211 OFFCURVE",
"395 210 CURVE SMOOTH",
"418 310 LINE SMOOTH",
"270 310 OFFCURVE",
"197 304 OFFCURVE",
"57 303 CURVE",
"37 203 LINE"
);
}
);
width = 531;
},
{
anchors = (
{
name = bottom;
position = "{276, 0}";
},
{
name = top;
position = "{280, 689}";
}
);
layerId = "2009CD91-3BC4-40DB-AFF0-7394B85F3EFC";
paths = (
{
closed = 1;
nodes = (
"454 685 LINE",
"424 697 OFFCURVE",
"388 703 OFFCURVE",
"344 703 CURVE SMOOTH",
"138 703 OFFCURVE",
"120 548 OFFCURVE",
"120 350 CURVE SMOOTH",
"120 152 OFFCURVE",
"140 -21 OFFCURVE",
"341 -5 CURVE SMOOTH",
"384 -2 OFFCURVE",
"406 6 OFFCURVE",
"433 18 CURVE",
"433 73 LINE",
"407 60 OFFCURVE",
"382 54 OFFCURVE",
"347 52 CURVE SMOOTH",
"194 44 OFFCURVE",
"189 149 OFFCURVE",
"189 340 CURVE SMOOTH",
"189 531 OFFCURVE",
"190 641 OFFCURVE",
"344 641 CURVE SMOOTH",
"385 641 OFFCURVE",
"416 635 OFFCURVE",
"439 622 CURVE"
);
},
{
closed = 1;
nodes = (
"141 371 OFFCURVE",
"294 376 OFFCURVE",
"387 377 CURVE",
"401 446 LINE",
"268 446 OFFCURVE",
"188 441 OFFCURVE",
"59 441 CURVE",
"45 369 LINE"
);
},
{
closed = 1;
nodes = (
"118 219 OFFCURVE",
"260 225 OFFCURVE",
"353 225 CURVE",
"369 295 LINE",
"238 295 OFFCURVE",
"166 289 OFFCURVE",
"39 288 CURVE",
"25 218 LINE"
);
}
);
width = 479;
}
);
unicode = 20AC;
},
{
color = 5;
glyphname = sterling;
lastChange = "2016-04-28 04:35:39 +0000";
layers = (
{
layerId = "8E5E9D5F-1CFD-4F58-89B8-A9F3704C2D63";
paths = (
{
closed = 1;
nodes = (
"192 -4 OFFCURVE",
"233 30 OFFCURVE",
"233 106 CURVE SMOOTH",
"233 187 OFFCURVE",
"230 321 OFFCURVE",
"231 393 CURVE SMOOTH",
"235 607 OFFCURVE",
"230 621 OFFCURVE",
"333 621 CURVE SMOOTH",
"416 621 OFFCURVE",
"419 607 OFFCURVE",
"419 528 CURVE",
"504 527 LINE",
"504 562 LINE SMOOTH",
"504 648 OFFCURVE",
"494 706 OFFCURVE",
"333 706 CURVE SMOOTH",
"152 706 OFFCURVE",
"145 618 OFFCURVE",
"145 461 CURVE SMOOTH",
"145 145 LINE SMOOTH",
"145 127 OFFCURVE",
"145 106 OFFCURVE",
"145 94 CURVE SMOOTH",
"145 66 OFFCURVE",
"132 58 OFFCURVE",
"118 58 CURVE SMOOTH",
"101 58 OFFCURVE",
"82 58 OFFCURVE",
"82 95 CURVE SMOOTH",
"82 133 OFFCURVE",
"83 133 OFFCURVE",
"118 133 CURVE SMOOTH",
"237 133 OFFCURVE",
"259 -2 OFFCURVE",
"387 -2 CURVE SMOOTH",
"403 -2 OFFCURVE",
"500 4 OFFCURVE",
"500 29 CURVE",
"495 104 LINE",
"450 90 OFFCURVE",
"406 83 OFFCURVE",
"384 83 CURVE SMOOTH",
"293 83 OFFCURVE",
"291 201 OFFCURVE",
"118 201 CURVE SMOOTH",
"38 201 OFFCURVE",
"20 177 OFFCURVE",
"20 92 CURVE SMOOTH",
"20 22 OFFCURVE",
"67 -4 OFFCURVE",
"118 -4 CURVE SMOOTH"
);
},
{
closed = 1;
nodes = (
"355 314 LINE",
"355 397 LINE",
"58 397 LINE",
"58 314 LINE"
);
}
);
width = 529;
},
{
layerId = "2009CD91-3BC4-40DB-AFF0-7394B85F3EFC";
paths = (
{
closed = 1;
nodes = (
"183 -2 OFFCURVE",
"214 28 OFFCURVE",
"214 93 CURVE SMOOTH",
"214 174 OFFCURVE",
"211 321 OFFCURVE",
"212 393 CURVE SMOOTH",
"216 628 OFFCURVE",
"221 636 OFFCURVE",
"329 636 CURVE SMOOTH",
"412 636 OFFCURVE",
"428 622 OFFCURVE",
"430 543 CURVE",
"485 542 LINE",
"485 562 LINE SMOOTH",
"485 647 OFFCURVE",
"477 691 OFFCURVE",
"329 691 CURVE SMOOTH",
"162 691 OFFCURVE",
"156 617 OFFCURVE",
"156 461 CURVE SMOOTH",
"156 132 LINE SMOOTH",
"156 114 OFFCURVE",
"156 94 OFFCURVE",
"156 81 CURVE SMOOTH",
"156 49 OFFCURVE",
"140 30 OFFCURVE",
"114 30 CURVE SMOOTH",
"97 30 OFFCURVE",
"63 30 OFFCURVE",
"63 82 CURVE SMOOTH",
"63 128 OFFCURVE",
"69 135 OFFCURVE",
"114 135 CURVE SMOOTH",
"246 135 OFFCURVE",
"266 0 OFFCURVE",
"383 0 CURVE SMOOTH",
"409 0 OFFCURVE",
"481 9 OFFCURVE",
"481 15 CURVE",
"477 71 LINE",
"441 62 OFFCURVE",
"403 55 OFFCURVE",
"380 55 CURVE SMOOTH",
"276 55 OFFCURVE",
"272 173 OFFCURVE",
"114 173 CURVE SMOOTH",
"45 173 OFFCURVE",
"25 158 OFFCURVE",
"25 79 CURVE SMOOTH",
"25 27 OFFCURVE",
"61 -2 OFFCURVE",
"114 -2 CURVE SMOOTH"
);
},
{
closed = 1;
nodes = (
"336 329 LINE",
"336 382 LINE",
"69 382 LINE",
"69 329 LINE"
);
}
);
width = 510;
}
);
unicode = 00A3;
},
{
color = 5;
glyphname = yen;
lastChange = "2016-04-28 04:35:39 +0000";
layers = (
{
layerId = "8E5E9D5F-1CFD-4F58-89B8-A9F3704C2D63";
paths = (
{
closed = 1;
nodes = (
"138 305 LINE",
"138 0 LINE",
"235 0 LINE",
"235 305 LINE",
"361 699 LINE",
"264 699 LINE",
"186 443 LINE",
"112 699 LINE",
"15 699 LINE"
);
},
{
closed = 1;
nodes = (
"328 243 LINE",
"328 344 LINE",
"45 344 LINE",
"45 243 LINE"
);
},
{
closed = 1;
nodes = (
"327 113 LINE",
"327 214 LINE",
"44 214 LINE",
"44 113 LINE"
);
}
);
width = 376;
},
{
layerId = "2009CD91-3BC4-40DB-AFF0-7394B85F3EFC";
paths = (
{
closed = 1;
nodes = (
"127 308 LINE",
"127 0 LINE",
"172 0 LINE",
"172 308 LINE",
"289 699 LINE",
"244 699 LINE",
"149 406 LINE",
"57 699 LINE",
"10 699 LINE"
);
},
{
closed = 1;
nodes = (
"268 267 LINE",
"268 320 LINE",
"34 320 LINE",
"34 267 LINE"
);
},
{
closed = 1;
nodes = (
"268 167 LINE",
"268 220 LINE",
"34 220 LINE",
"34 167 LINE"
);
}
);
width = 299;
}
);
unicode = 00A5;
},
{
color = 5;
glyphname = multiply;
lastChange = "2016-04-28 04:35:39 +0000";
layers = (
{
layerId = "8E5E9D5F-1CFD-4F58-89B8-A9F3704C2D63";
paths = (
{
closed = 1;
nodes = (
"157 122 LINE",
"225 262 LINE",
"292 122 LINE",
"400 122 LINE",
"294 362 LINE",
"400 572 LINE",
"292 572 LINE",
"225 447 LINE",
"157 572 LINE",
"50 572 LINE",
"160 362 LINE",
"50 122 LINE"
);
}
);
width = 450;
},
{
layerId = "2009CD91-3BC4-40DB-AFF0-7394B85F3EFC";
paths = (
{
closed = 1;
nodes = (
"120 122 LINE",
"196 282 LINE",
"272 122 LINE",
"346 122 LINE",
"248 352 LINE",
"345 552 LINE",
"271 552 LINE",
"196 410 LINE",
"121 552 LINE",
"48 552 LINE",
"148 352 LINE",
"48 122 LINE"
);
}
);
width = 450;
}
);
unicode = 00D7;
},
{
glyphname = percent;
lastChange = "2016-04-28 04:35:39 +0000";
layers = (
{
anchors = (
{
name = _top;
position = "{109, 436}";
},
{
name = top;
position = "{109, 482}";
}
);
components = (
{
name = slash;
transform = "{1, 0, 0, 1, 97, 0}";
}
);
layerId = "8E5E9D5F-1CFD-4F58-89B8-A9F3704C2D63";
paths = (
{
closed = 1;
nodes = (
"220 476 OFFCURVE",
"230 531 OFFCURVE",
"230 594 CURVE SMOOTH",
"230 659 OFFCURVE",
"220 710 OFFCURVE",
"126 710 CURVE SMOOTH",
"33 710 OFFCURVE",
"23 659 OFFCURVE",
"23 594 CURVE SMOOTH",
"23 531 OFFCURVE",
"33 476 OFFCURVE",
"126 476 CURVE SMOOTH"
);
},
{
closed = 1;
nodes = (
"92 533 OFFCURVE",
"92 544 OFFCURVE",
"92 592 CURVE SMOOTH",
"92 640 OFFCURVE",
"92 652 OFFCURVE",
"126 652 CURVE SMOOTH",
"163 652 OFFCURVE",
"163 640 OFFCURVE",
"163 592 CURVE SMOOTH",
"163 544 OFFCURVE",
"163 533 OFFCURVE",
"126 533 CURVE SMOOTH"
);
},
{
closed = 1;
nodes = (
"519 -7 OFFCURVE",
"529 48 OFFCURVE",
"529 111 CURVE SMOOTH",
"529 176 OFFCURVE",
"519 227 OFFCURVE",
"425 227 CURVE SMOOTH",
"332 227 OFFCURVE",
"322 176 OFFCURVE",
"322 111 CURVE SMOOTH",
"322 48 OFFCURVE",
"332 -7 OFFCURVE",
"425 -7 CURVE SMOOTH"
);
},
{
closed = 1;
nodes = (
"389 50 OFFCURVE",
"389 61 OFFCURVE",
"389 109 CURVE SMOOTH",
"389 157 OFFCURVE",
"389 169 OFFCURVE",
"425 169 CURVE SMOOTH",
"463 169 OFFCURVE",
"463 157 OFFCURVE",
"463 109 CURVE SMOOTH",
"463 61 OFFCURVE",
"463 50 OFFCURVE",
"425 50 CURVE SMOOTH"
);
}
);
width = 552;
},
{
anchors = (
{
name = _top;
position = "{109, 436}";
},
{
name = top;
position = "{109, 482}";
}
);
components = (
{
name = slash;
transform = "{1, 0, 0, 1, 97, 0}";
}
);
layerId = "2009CD91-3BC4-40DB-AFF0-7394B85F3EFC";
paths = (
{
closed = 1;
nodes = (
"185 505 OFFCURVE",
"203 527 OFFCURVE",
"203 594 CURVE SMOOTH",
"203 660 OFFCURVE",
"186 681 OFFCURVE",
"126 681 CURVE SMOOTH",
"67 681 OFFCURVE",
"50 661 OFFCURVE",
"50 594 CURVE SMOOTH",
"50 527 OFFCURVE",
"68 505 OFFCURVE",
"126 505 CURVE SMOOTH"
);
},
{
closed = 1;
nodes = (
"77 518 OFFCURVE",
"77 544 OFFCURVE",
"77 592 CURVE SMOOTH",
"77 640 OFFCURVE",
"77 667 OFFCURVE",
"126 667 CURVE SMOOTH",
"178 667 OFFCURVE",
"178 640 OFFCURVE",
"178 592 CURVE SMOOTH",
"178 544 OFFCURVE",
"178 518 OFFCURVE",
"126 518 CURVE SMOOTH"
);
},
{
closed = 1;
nodes = (
"474 22 OFFCURVE",
"492 44 OFFCURVE",
"492 111 CURVE SMOOTH",
"492 177 OFFCURVE",
"475 198 OFFCURVE",
"415 198 CURVE SMOOTH",
"356 198 OFFCURVE",
"339 178 OFFCURVE",
"339 111 CURVE SMOOTH",
"339 44 OFFCURVE",
"357 22 OFFCURVE",
"415 22 CURVE SMOOTH"
);
},
{
closed = 1;
nodes = (
"364 35 OFFCURVE",
"364 61 OFFCURVE",
"364 109 CURVE SMOOTH",
"364 157 OFFCURVE",
"364 184 OFFCURVE",
"415 184 CURVE SMOOTH",
"468 184 OFFCURVE",
"468 157 OFFCURVE",
"468 109 CURVE SMOOTH",
"468 61 OFFCURVE",
"468 35 OFFCURVE",
"415 35 CURVE SMOOTH"
);
}
);
width = 542;
}
);
unicode = 0025;
},
{
color = 5;
glyphname = ampersand;
lastChange = "2016-04-28 04:35:39 +0000";
layers = (
{
layerId = "8E5E9D5F-1CFD-4F58-89B8-A9F3704C2D63";
paths = (
{
closed = 1;
nodes = (
"190 409 LINE",
"123 409 OFFCURVE",
"113 440 OFFCURVE",
"123 520 CURVE SMOOTH",
"133 600 OFFCURVE",
"178 620 OFFCURVE",
"240 620 CURVE SMOOTH",
"283 620 OFFCURVE",
"296 610 OFFCURVE",
"317 597 CURVE",
"317 685 LINE",
"303 694 OFFCURVE",
"295 703 OFFCURVE",
"238 703 CURVE SMOOTH",
"72 703 OFFCURVE",
"37 628 OFFCURVE",
"27 534 CURVE SMOOTH",
"21 474 OFFCURVE",
"23 419 OFFCURVE",
"68 388 CURVE",
"23 351 OFFCURVE",
"27 284 OFFCURVE",
"27 208 CURVE SMOOTH",
"27 93 OFFCURVE",
"41 -8 OFFCURVE",
"188 -8 CURVE SMOOTH",
"244 -8 OFFCURVE",
"281 6 OFFCURVE",
"305 30 CURVE",
"334 0 OFFCURVE",
"379 -1 OFFCURVE",
"443 -1 CURVE",
"443 79 LINE",
"387 79 OFFCURVE",
"355 83 OFFCURVE",
"350 193 CURVE",
"350 334 LINE",
"412 334 LINE",
"412 409 LINE",
"350 409 LINE",
"350 517 LINE",
"261 517 LINE",
"261 409 LINE"
);
},
{
closed = 1;
nodes = (
"123 307 OFFCURVE",
"123 335 OFFCURVE",
"190 335 CURVE SMOOTH",
"224 334 LINE SMOOTH",
"256 333 OFFCURVE",
"257 309 OFFCURVE",
"257 206 CURVE SMOOTH",
"257 104 OFFCURVE",
"257 81 OFFCURVE",
"190 81 CURVE SMOOTH",
"123 81 OFFCURVE",
"123 103 OFFCURVE",
"123 205 CURVE SMOOTH"
);
}
);
width = 468;
},
{
layerId = "2009CD91-3BC4-40DB-AFF0-7394B85F3EFC";
paths = (
{
closed = 1;
nodes = (
"190 393 LINE SMOOTH",
"156 393 OFFCURVE",
"96 427 OFFCURVE",
"106 521 CURVE SMOOTH",
"116 619 OFFCURVE",
"159 654 OFFCURVE",
"240 654 CURVE SMOOTH",
"270 654 OFFCURVE",
"288 649 OFFCURVE",
"302 642 CURVE",
"302 696 LINE",
"290 703 OFFCURVE",
"280 707 OFFCURVE",
"238 707 CURVE SMOOTH",
"107 707 OFFCURVE",
"54 664 OFFCURVE",
"42 531 CURVE SMOOTH",
"34 444 OFFCURVE",
"49 408 OFFCURVE",
"98 388 CURVE",
"37 361 OFFCURVE",
"42 295 OFFCURVE",
"42 207 CURVE SMOOTH",
"42 80 OFFCURVE",
"54 -7 OFFCURVE",
"188 -7 CURVE SMOOTH",
"246 -7 OFFCURVE",
"283 8 OFFCURVE",
"305 40 CURVE",
"328 4 OFFCURVE",
"364 0 OFFCURVE",
"428 0 CURVE",
"428 50 LINE",
"378 52 OFFCURVE",
"335 67 OFFCURVE",
"335 178 CURVE SMOOTH",
"335 348 LINE",
"397 348 LINE",
"397 393 LINE",
"335 393 LINE",
"335 501 LINE",
"276 501 LINE",
"276 393 LINE"
);
},
{
closed = 1;
nodes = (
"108 293 OFFCURVE",
"108 349 OFFCURVE",
"190 349 CURVE SMOOTH",
"224 348 LINE SMOOTH",
"270 347 OFFCURVE",
"272 295 OFFCURVE",
"272 192 CURVE SMOOTH",
"272 90 OFFCURVE",
"272 52 OFFCURVE",
"190 52 CURVE SMOOTH",
"108 52 OFFCURVE",
"108 89 OFFCURVE",
"108 191 CURVE SMOOTH"
);
}
);
width = 468;
}
);
unicode = 0026;
},
{
color = 5;
glyphname = paragraph;
lastChange = "2016-04-28 04:35:39 +0000";
layers = (
{
layerId = "8E5E9D5F-1CFD-4F58-89B8-A9F3704C2D63";
paths = (
{
closed = 1;
nodes = (
"375 692 LINE",
"375 698 OFFCURVE",
"373 700 OFFCURVE",
"367 700 CURVE SMOOTH",
"209 700 LINE SMOOTH",
"43 700 OFFCURVE",
"35 657 OFFCURVE",
"35 514 CURVE SMOOTH",
"35 371 OFFCURVE",
"66 306 OFFCURVE",
"209 306 CURVE SMOOTH",
"278 306 LINE",
"278 0 LINE",
"375 0 LINE"
);
},
{
closed = 1;
nodes = (
"208 403 LINE SMOOTH",
"136 403 OFFCURVE",
"132 416 OFFCURVE",
"132 520 CURVE SMOOTH",
"132 579 OFFCURVE",
"133 603 OFFCURVE",
"208 603 CURVE SMOOTH",
"277 603 LINE",
"277 403 LINE"
);
},
{
closed = 1;
nodes = (
"405 0 LINE",
"505 0 LINE",
"505 701 LINE",
"405 701 LINE"
);
}
);
width = 547;
},
{
layerId = "2009CD91-3BC4-40DB-AFF0-7394B85F3EFC";
paths = (
{
closed = 1;
nodes = (
"335 695 LINE SMOOTH",
"335 698 OFFCURVE",
"333 700 OFFCURVE",
"330 700 CURVE SMOOTH",
"204 700 LINE SMOOTH",
"50 700 OFFCURVE",
"45 671 OFFCURVE",
"45 529 CURVE SMOOTH",
"45 380 OFFCURVE",
"81 336 OFFCURVE",
"204 336 CURVE SMOOTH",
"268 336 LINE",
"268 0 LINE",
"335 0 LINE"
);
},
{
closed = 1;
nodes = (
"203 403 LINE SMOOTH",
"122 403 OFFCURVE",
"112 421 OFFCURVE",
"112 535 CURVE SMOOTH",
"112 594 OFFCURVE",
"114 633 OFFCURVE",
"203 633 CURVE SMOOTH",
"267 633 LINE",
"267 403 LINE"
);
},
{
closed = 1;
nodes = (
"373 0 LINE",
"443 0 LINE",
"443 700 LINE",
"373 700 LINE"
);
}
);
width = 489;
}
);
leftMetricsKey = P;
rightMetricsKey = I;
unicode = 00B6;
},
{
color = 5;
glyphname = section;
lastChange = "2016-04-28 04:35:39 +0000";
layers = (
{
layerId = "8E5E9D5F-1CFD-4F58-89B8-A9F3704C2D63";
paths = (
{
closed = 1;
nodes = (
"202 35 OFFCURVE",
"249 75 OFFCURVE",
"249 163 CURVE SMOOTH",
"249 208 OFFCURVE",
"237 235 OFFCURVE",
"221 253 CURVE",
"246 274 OFFCURVE",
"258 306 OFFCURVE",
"258 351 CURVE SMOOTH",
"258 505 OFFCURVE",
"120 451 OFFCURVE",
"120 547 CURVE SMOOTH",
"120 568 OFFCURVE",
"127 584 OFFCURVE",
"177 589 CURVE SMOOTH",
"188 590 OFFCURVE",
"200 591 OFFCURVE",
"211 591 CURVE SMOOTH",
"229 591 OFFCURVE",
"246 590 OFFCURVE",
"258 589 CURVE",
"258 673 LINE",
"191 681 LINE SMOOTH",
"184 682 OFFCURVE",
"177 682 OFFCURVE",
"170 682 CURVE SMOOTH",
"79 682 OFFCURVE",
"43 634 OFFCURVE",
"43 551 CURVE SMOOTH",
"43 510 OFFCURVE",
"53 483 OFFCURVE",
"67 463 CURVE",
"44 441 OFFCURVE",
"34 407 OFFCURVE",
"34 363 CURVE SMOOTH",
"34 208 OFFCURVE",
"171 250 OFFCURVE",
"171 163 CURVE SMOOTH",
"171 131 OFFCURVE",
"152 121 OFFCURVE",
"125 121 CURVE SMOOTH",
"116 121 OFFCURVE",
"106 122 OFFCURVE",
"94 123 CURVE",
"30 131 LINE",
"30 47 LINE",
"99 36 LINE"
);
},
{
closed = 1;
nodes = (
"127 307 OFFCURVE",
"111 328 OFFCURVE",
"111 354 CURVE SMOOTH",
"111 380 OFFCURVE",
"127 401 OFFCURVE",
"146 401 CURVE SMOOTH",
"165 401 OFFCURVE",
"181 380 OFFCURVE",
"181 354 CURVE SMOOTH",
"181 328 OFFCURVE",
"165 307 OFFCURVE",
"146 307 CURVE SMOOTH"
);
}
);
width = 288;
},
{
layerId = "2009CD91-3BC4-40DB-AFF0-7394B85F3EFC";
paths = (
{
closed = 1;
nodes = (
"174 50 OFFCURVE",
"214 84 OFFCURVE",
"214 163 CURVE SMOOTH",
"214 207 OFFCURVE",
"202 236 OFFCURVE",
"177 255 CURVE",
"209 273 OFFCURVE",
"223 302 OFFCURVE",
"223 351 CURVE SMOOTH",
"223 487 OFFCURVE",
"85 427 OFFCURVE",
"85 547 CURVE SMOOTH",
"85 583 OFFCURVE",
"106 599 OFFCURVE",
"156 604 CURVE SMOOTH",
"167 605 OFFCURVE",
"179 606 OFFCURVE",
"191 606 CURVE SMOOTH",
"201 606 OFFCURVE",
"212 606 OFFCURVE",
"223 605 CURVE",
"223 660 LINE",
"169 666 LINE SMOOTH",
"163 667 OFFCURVE",
"157 667 OFFCURVE",
"150 667 CURVE SMOOTH",
"73 667 OFFCURVE",
"38 631 OFFCURVE",
"38 551 CURVE SMOOTH",
"38 511 OFFCURVE",
"48 483 OFFCURVE",
"68 461 CURVE",
"42 443 OFFCURVE",
"29 412 OFFCURVE",
"29 363 CURVE SMOOTH",
"29 226 OFFCURVE",
"166 272 OFFCURVE",
"166 163 CURVE SMOOTH",
"166 126 OFFCURVE",
"144 106 OFFCURVE",
"105 106 CURVE SMOOTH",
"99 106 OFFCURVE",
"95 106 OFFCURVE",
"72 108 CURVE",
"25 114 LINE",
"25 60 LINE",
"80 51 LINE"
);
},
{
closed = 1;
nodes = (
"98 292 OFFCURVE",
"76 320 OFFCURVE",
"76 354 CURVE SMOOTH",
"76 388 OFFCURVE",
"98 416 OFFCURVE",
"126 416 CURVE SMOOTH",
"154 416 OFFCURVE",
"176 388 OFFCURVE",
"176 354 CURVE SMOOTH",
"176 320 OFFCURVE",
"154 292 OFFCURVE",
"126 292 CURVE SMOOTH"
);
}
);
width = 248;
}
);
unicode = 00A7;
},
{
color = 5;
glyphname = copyright;
lastChange = "2016-04-28 04:35:39 +0000";
layers = (
{
components = (
{
name = c;
transform = "{0.29, 0, 0, 0.29, 87, 506}";
}
);
layerId = "8E5E9D5F-1CFD-4F58-89B8-A9F3704C2D63";
paths = (
{
closed = 1;
nodes = (
"203 464 OFFCURVE",
"231 496 OFFCURVE",
"231 576 CURVE SMOOTH",
"231 657 OFFCURVE",
"204 687 OFFCURVE",
"132 687 CURVE SMOOTH",
"60 687 OFFCURVE",
"34 657 OFFCURVE",
"34 576 CURVE SMOOTH",
"34 495 OFFCURVE",
"61 464 OFFCURVE",
"132 464 CURVE SMOOTH"
);
},
{
closed = 1;
nodes = (
"71 488 OFFCURVE",
"68 492 OFFCURVE",
"68 574 CURVE SMOOTH",
"68 658 OFFCURVE",
"71 662 OFFCURVE",
"132 662 CURVE SMOOTH",
"195 662 OFFCURVE",
"198 658 OFFCURVE",
"198 574 CURVE SMOOTH",
"198 492 OFFCURVE",
"195 488 OFFCURVE",
"132 488 CURVE SMOOTH"
);
}
);
width = 265;
},
{
components = (
{
name = c;
transform = "{0.29, 0, 0, 0.29, 96, 513}";
}
);
layerId = "2009CD91-3BC4-40DB-AFF0-7394B85F3EFC";
paths = (
{
closed = 1;
nodes = (
"211 464 OFFCURVE",
"221 516 OFFCURVE",
"221 576 CURVE SMOOTH",
"221 638 OFFCURVE",
"211 687 OFFCURVE",
"132 687 CURVE SMOOTH",
"53 687 OFFCURVE",
"44 638 OFFCURVE",
"44 576 CURVE SMOOTH",
"44 516 OFFCURVE",
"53 464 OFFCURVE",
"132 464 CURVE SMOOTH"
);
},
{
closed = 1;
nodes = (
"78 489 OFFCURVE",
"68 505 OFFCURVE",
"68 575 CURVE SMOOTH",
"68 646 OFFCURVE",
"78 663 OFFCURVE",
"132 663 CURVE SMOOTH",
"188 663 OFFCURVE",
"198 646 OFFCURVE",
"198 575 CURVE SMOOTH",
"198 505 OFFCURVE",
"188 489 OFFCURVE",
"132 489 CURVE SMOOTH"
);
}
);
width = 265;
}
);
unicode = 00A9;
},
{
color = 5;
glyphname = registered;
lastChange = "2016-04-28 04:35:39 +0000";
layers = (
{
components = (
{
name = R;
transform = "{0.198, 0, 0, 0.198, 91, 507}";
}
);
layerId = "8E5E9D5F-1CFD-4F58-89B8-A9F3704C2D63";
paths = (
{
closed = 1;
nodes = (
"203 464 OFFCURVE",
"231 496 OFFCURVE",
"231 576 CURVE SMOOTH",
"231 657 OFFCURVE",
"204 687 OFFCURVE",
"132 687 CURVE SMOOTH",
"60 687 OFFCURVE",
"34 657 OFFCURVE",
"34 576 CURVE SMOOTH",
"34 495 OFFCURVE",
"61 464 OFFCURVE",
"132 464 CURVE SMOOTH"
);
},
{
closed = 1;
nodes = (
"71 488 OFFCURVE",
"68 492 OFFCURVE",
"68 574 CURVE SMOOTH",
"68 658 OFFCURVE",
"71 662 OFFCURVE",
"132 662 CURVE SMOOTH",
"195 662 OFFCURVE",
"198 658 OFFCURVE",
"198 574 CURVE SMOOTH",
"198 492 OFFCURVE",
"195 488 OFFCURVE",
"132 488 CURVE SMOOTH"
);
}
);
width = 265;
},
{
components = (
{
name = R;
transform = "{0.198, 0, 0, 0.198, 93, 506}";
}
);
layerId = "2009CD91-3BC4-40DB-AFF0-7394B85F3EFC";
paths = (
{
closed = 1;
nodes = (
"211 464 OFFCURVE",
"221 516 OFFCURVE",
"221 576 CURVE SMOOTH",
"221 638 OFFCURVE",
"211 687 OFFCURVE",
"132 687 CURVE SMOOTH",
"53 687 OFFCURVE",
"44 638 OFFCURVE",
"44 576 CURVE SMOOTH",
"44 516 OFFCURVE",
"53 464 OFFCURVE",
"132 464 CURVE SMOOTH"
);
},
{
closed = 1;
nodes = (
"78 489 OFFCURVE",
"68 505 OFFCURVE",
"68 575 CURVE SMOOTH",
"68 646 OFFCURVE",
"78 663 OFFCURVE",
"132 663 CURVE SMOOTH",
"188 663 OFFCURVE",
"198 646 OFFCURVE",
"198 575 CURVE SMOOTH",
"198 505 OFFCURVE",
"188 489 OFFCURVE",
"132 489 CURVE SMOOTH"
);
}
);
width = 225;
}
);
unicode = 00AE;
},
{
color = 5;
glyphname = bar;
lastChange = "2016-04-28 04:35:39 +0000";
layers = (
{
layerId = "8E5E9D5F-1CFD-4F58-89B8-A9F3704C2D63";
paths = (
{
closed = 1;
nodes = (
"30 -40 LINE",
"130 -40 LINE",
"130 701 LINE",
"30 701 LINE"
);
}
);
width = 161;
},
{
layerId = "2009CD91-3BC4-40DB-AFF0-7394B85F3EFC";
paths = (
{
closed = 1;
nodes = (
"45 -25 LINE",
"115 -25 LINE",
"115 686 LINE",
"45 686 LINE"
);
}
);
width = 161;
}
);
unicode = 007C;
},
{
color = 5;
glyphname = brokenbar;
lastChange = "2016-04-28 04:35:39 +0000";
layers = (
{
layerId = "8E5E9D5F-1CFD-4F58-89B8-A9F3704C2D63";
paths = (
{
closed = 1;
nodes = (
"130 411 LINE",
"130 701 LINE",
"30 701 LINE",
"30 411 LINE"
);
},
{
closed = 1;
nodes = (
"130 -29 LINE",
"130 261 LINE",
"30 261 LINE",
"30 -29 LINE"
);
}
);
width = 161;
},
{
layerId = "2009CD91-3BC4-40DB-AFF0-7394B85F3EFC";
paths = (
{
closed = 1;
nodes = (
"115 426 LINE",
"115 686 LINE",
"45 686 LINE",
"45 426 LINE"
);
},
{
closed = 1;
nodes = (
"115 -14 LINE",
"115 246 LINE",
"45 246 LINE",
"45 -14 LINE"
);
}
);
width = 161;
}
);
unicode = 00A6;
},
{
color = 5;
glyphname = dagger;
lastChange = "2016-04-28 04:35:39 +0000";
layers = (
{
layerId = "8E5E9D5F-1CFD-4F58-89B8-A9F3704C2D63";
paths = (
{
closed = 1;
nodes = (
"133 450 LINE",
"140 169 LINE",
"140 123 LINE",
"202 123 LINE",
"202 169 LINE",
"209 450 LINE",
"288 450 LINE",
"288 484 OFFCURVE",
"288 516 OFFCURVE",
"288 550 CURVE",
"212 550 LINE",
"216 701 LINE",
"127 701 LINE",
"131 551 LINE",
"112 551 OFFCURVE",
"87 551 OFFCURVE",
"45 551 CURVE",
"45 450 LINE"
);
}
);
width = 333;
},
{
layerId = "2009CD91-3BC4-40DB-AFF0-7394B85F3EFC";
paths = (
{
closed = 1;
nodes = (
"121 465 LINE",
"128 169 LINE",
"128 138 LINE",
"160 138 LINE",
"160 169 LINE",
"167 465 LINE",
"246 465 LINE",
"246 488 OFFCURVE",
"246 511 OFFCURVE",
"246 535 CURVE",
"170 535 LINE",
"174 686 LINE",
"115 686 LINE",
"119 536 LINE",
"98 536 OFFCURVE",
"77 536 OFFCURVE",
"33 536 CURVE",
"33 465 LINE"
);
}
);
width = 279;
}
);
unicode = 2020;
},
{
color = 5;
glyphname = daggerdbl;
lastChange = "2016-04-28 04:35:39 +0000";
layers = (
{
layerId = "8E5E9D5F-1CFD-4F58-89B8-A9F3704C2D63";
paths = (
{
closed = 1;
nodes = (
"216 103 LINE",
"212.03 253.867 LINE",
"288 254 LINE",
"288 288 OFFCURVE",
"288 320 OFFCURVE",
"288 354 CURVE",
"209.395 354 LINE",
"209.395 450 LINE",
"288 450 LINE",
"288 484 OFFCURVE",
"288 516 OFFCURVE",
"288 550 CURVE",
"212.03 550.133 LINE",
"216 701 LINE",
"127 701 LINE",
"130.67 550.792 LINE",
"45 551 LINE",
"45 517 OFFCURVE",
"45 484 OFFCURVE",
"45 450 CURVE",
"133.133 450 LINE",
"133.133 354 LINE",
"107.02 354 OFFCURVE",
"79.024 354 OFFCURVE",
"45 354 CURVE",
"45 253 LINE",
"130.67 253.208 LINE",
"127 103 LINE"
);
}
);
width = 333;
},
{
layerId = "2009CD91-3BC4-40DB-AFF0-7394B85F3EFC";
paths = (
{
closed = 1;
nodes = (
"186 118 LINE",
"182 269 LINE",
"258 269 LINE",
"258 293 OFFCURVE",
"258 316 OFFCURVE",
"258 339 CURVE",
"180 339 LINE",
"180 465 LINE",
"258 465 LINE",
"258 488 OFFCURVE",
"258 512 OFFCURVE",
"258 535 CURVE",
"182 535 LINE",
"186 686 LINE",
"127 686 LINE",
"131 536 LINE",
"45 536 LINE",
"45 512 OFFCURVE",
"45 489 OFFCURVE",
"45 465 CURVE",
"133 465 LINE",
"133 339 LINE",
"108 339 OFFCURVE",
"79 339 OFFCURVE",
"45 339 CURVE",
"45 268 LINE",
"131 268 LINE",
"127 118 LINE"
);
}
);
width = 303;
}
);
unicode = 2021;
},
{
color = 5;
glyphname = asciicircum;
lastChange = "2016-04-28 04:35:39 +0000";
layers = (
{
layerId = "8E5E9D5F-1CFD-4F58-89B8-A9F3704C2D63";
paths = (
{
closed = 1;
nodes = (
"253 494 LINE",
"338 494 LINE",
"223 686 LINE",
"139 686 LINE"
);
},
{
closed = 1;
nodes = (
"24 494 LINE",
"109 494 LINE",
"223 686 LINE",
"139 686 LINE"
);
}
);
width = 360;
},
{
layerId = "2009CD91-3BC4-40DB-AFF0-7394B85F3EFC";
paths = (
{
closed = 1;
nodes = (
"261.539 509 LINE",
"311.531 509 LINE",
"214.5 671 LINE",
"165.351 671 LINE"
);
},
{
closed = 1;
nodes = (
"50.469 509 LINE",
"100.461 509 LINE",
"196.649 671 LINE",
"147.5 671 LINE"
);
}
);
width = 360;
}
);
unicode = 005E;
},
{
glyphname = dieresiscomb;
lastChange = "2016-04-28 04:35:39 +0000";
layers = (
{
anchors = (
{
name = _top;
position = "{167, 401}";
},
{
name = top;
position = "{167, 579}";
}
);
layerId = "8E5E9D5F-1CFD-4F58-89B8-A9F3704C2D63";
paths = (
{
closed = 1;
nodes = (
"38 469 LINE",
"129 469 LINE",
"129 559 LINE",
"38 559 LINE"
);
},
{
closed = 1;
nodes = (
"214 469 LINE",
"306 469 LINE",
"306 559 LINE",
"214 559 LINE"
);
}
);
width = 576;
},
{
anchors = (
{
name = _top;
position = "{173, 440}";
},
{
name = top;
position = "{173, 550}";
}
);
layerId = "2009CD91-3BC4-40DB-AFF0-7394B85F3EFC";
paths = (
{
closed = 1;
nodes = (
"111 499 LINE",
"146 499 LINE",
"146 534 LINE",
"111 534 LINE"
);
},
{
closed = 1;
nodes = (
"200 499 LINE",
"235 499 LINE",
"235 534 LINE",
"200 534 LINE"
);
}
);
width = 588;
}
);
unicode = 0308;
},
{
glyphname = dotaccentcomb;
lastChange = "2016-05-03 05:20:33 +0000";
layers = (
{
anchors = (
{
name = _top;
position = "{95, 450}";
},
{
name = top;
position = "{95, 623}";
}
);
layerId = "8E5E9D5F-1CFD-4F58-89B8-A9F3704C2D63";
paths = (
{
closed = 1;
nodes = (
"50 517 LINE",
"139 517 LINE",
"139 623 LINE",
"50 623 LINE"
);
}
);
width = 600;
},
{
anchors = (
{
name = _top;
position = "{100, 410}";
},
{
name = top;
position = "{100, 522}";
}
);
layerId = "2009CD91-3BC4-40DB-AFF0-7394B85F3EFC";
paths = (
{
closed = 1;
nodes = (
"89 488 LINE",
"111 488 LINE",
"111 522 LINE",
"89 522 LINE"
);
}
);
width = 600;
}
);
unicode = 0307;
},
{
glyphname = gravecomb;
lastChange = "2016-04-28 04:35:39 +0000";
layers = (
{
anchors = (
{
name = _top;
position = "{172, 450}";
},
{
name = top;
position = "{172, 700}";
}
);
layerId = "8E5E9D5F-1CFD-4F58-89B8-A9F3704C2D63";
paths = (
{
closed = 1;
nodes = (
"119 559 OFFCURVE",
"224 506 OFFCURVE",
"224 506 CURVE",
"283 531 LINE SMOOTH",
"290 534 OFFCURVE",
"152 675 OFFCURVE",
"160.923 679.965 CURVE",
"62 635 LINE"
);
}
);
width = 600;
},
{
anchors = (
{
name = _top;
position = "{128, 430}";
},
{
name = top;
position = "{128, 615}";
}
);
layerId = "2009CD91-3BC4-40DB-AFF0-7394B85F3EFC";
paths = (
{
closed = 1;
nodes = (
"209 486 OFFCURVE",
"72 610 OFFCURVE",
"78 615 CURVE",
"50 606 LINE",
"90 546 OFFCURVE",
"166 491 OFFCURVE",
"184 481 CURVE",
"206 485 LINE"
);
}
);
width = 600;
}
);
unicode = 0300;
},
{
glyphname = acutecomb;
lastChange = "2016-04-28 04:35:39 +0000";
layers = (
{
anchors = (
{
name = _top;
position = "{91, 450}";
},
{
name = top;
position = "{111, 700}";
}
);
background = {
paths = (
{
closed = 1;
nodes = (
"60 506 LINE",
"60 506 OFFCURVE",
"165 559 OFFCURVE",
"222 635 CURVE",
"123 680 LINE",
"132 675 OFFCURVE",
"-6 534 OFFCURVE",
"1 531 CURVE SMOOTH"
);
}
);
};
layerId = "8E5E9D5F-1CFD-4F58-89B8-A9F3704C2D63";
paths = (
{
closed = 1;
nodes = (
"65 504 LINE",
"65 504 OFFCURVE",
"160 552 OFFCURVE",
"212 621 CURVE",
"122 662 LINE",
"130 657 OFFCURVE",
"5 529 OFFCURVE",
"11 527 CURVE SMOOTH"
);
}
);
width = 538;
},
{
anchors = (
{
name = _top;
position = "{128, 430}";
},
{
name = top;
position = "{128, 615}";
}
);
layerId = "2009CD91-3BC4-40DB-AFF0-7394B85F3EFC";
paths = (
{
closed = 1;
nodes = (
"72 481 LINE",
"90 491 OFFCURVE",
"166 546 OFFCURVE",
"206 606 CURVE",
"178 615 LINE",
"184 610 OFFCURVE",
"47 486 OFFCURVE",
"50 485 CURVE"
);
}
);
width = 538;
}
);
unicode = 0301;
},
{
glyphname = circumflexcomb;
lastChange = "2016-04-28 04:35:39 +0000";
layers = (
{
anchors = (
{
name = _top;
position = "{181, 410}";
},
{
name = top;
position = "{182, 635}";
}
);
layerId = "8E5E9D5F-1CFD-4F58-89B8-A9F3704C2D63";
paths = (
{
closed = 1;
nodes = (
"246 483 LINE",
"323 483 LINE",
"219 657 LINE",
"143 657 LINE"
);
},
{
closed = 1;
nodes = (
"39 483 LINE",
"116 483 LINE",
"219 657 LINE",
"143 657 LINE"
);
}
);
width = 600;
},
{
anchors = (
{
name = _top;
position = "{197, 430}";
},
{
name = top;
position = "{197, 636}";
}
);
layerId = "2009CD91-3BC4-40DB-AFF0-7394B85F3EFC";
paths = (
{
closed = 1;
nodes = (
"291 464 LINE",
"316 464 LINE",
"213 636 LINE",
"189 636 LINE"
);
},
{
closed = 1;
nodes = (
"78 464 LINE",
"103 464 LINE",
"205 636 LINE",
"181 636 LINE"
);
}
);
width = 600;
}
);
unicode = 0302;
},
{
color = 5;
glyphname = caroncomb;
lastChange = "2016-04-28 04:35:39 +0000";
layers = (
{
anchors = (
{
name = _top;
position = "{183, 433}";
},
{
name = top;
position = "{183, 631}";
}
);
layerId = "8E5E9D5F-1CFD-4F58-89B8-A9F3704C2D63";
paths = (
{
closed = 1;
nodes = (
"217.821 508 LINE",
"313.607 681 LINE",
"235.252 681 LINE",
"151.195 508 LINE"
);
},
{
closed = 1;
nodes = (
"214.853 508 LINE",
"133.729 681 LINE",
"53.393 681 LINE",
"149.179 508 LINE"
);
}
);
width = 373;
},
{
anchors = (
{
name = _top;
position = "{181, 450}";
},
{
name = top;
position = "{181, 646}";
}
);
layerId = "2009CD91-3BC4-40DB-AFF0-7394B85F3EFC";
paths = (
{
closed = 1;
nodes = (
"211 480 LINE",
"280 636 LINE",
"229 636 LINE",
"161 480 LINE"
);
},
{
closed = 1;
nodes = (
"201 480 LINE",
"133 636 LINE",
"82 636 LINE",
"151 480 LINE"
);
}
);
width = 368;
}
);
unicode = 030C;
},
{
color = 5;
glyphname = brevecomb;
lastChange = "2016-04-28 04:35:39 +0000";
layers = (
{
anchors = (
{
name = _top;
position = "{181, 446}";
},
{
name = top;
position = "{191, 619}";
},
{
name = top_viet;
position = "{178, 618}";
}
);
layerId = "8E5E9D5F-1CFD-4F58-89B8-A9F3704C2D63";
paths = (
{
closed = 1;
nodes = (
"61 549 OFFCURVE",
"85 515 OFFCURVE",
"180 516 CURVE SMOOTH",
"269 517 OFFCURVE",
"300 546 OFFCURVE",
"318 668 CURVE",
"248 668 LINE",
"249 618 OFFCURVE",
"225 571 OFFCURVE",
"181 571 CURVE SMOOTH",
"142 571 OFFCURVE",
"113 618 OFFCURVE",
"114 668 CURVE",
"44 668 LINE"
);
}
);
width = 362;
},
{
anchors = (
{
name = _top;
position = "{181, 485}";
},
{
name = top;
position = "{181, 634}";
}
);
layerId = "2009CD91-3BC4-40DB-AFF0-7394B85F3EFC";
paths = (
{
closed = 1;
nodes = (
"91 550 OFFCURVE",
"105 525 OFFCURVE",
"180 526 CURVE SMOOTH",
"248 525 OFFCURVE",
"268 545 OFFCURVE",
"304 658 CURVE",
"255 658 LINE",
"238 612 OFFCURVE",
"231 576 OFFCURVE",
"181 576 CURVE SMOOTH",
"136 576 OFFCURVE",
"125 612 OFFCURVE",
"107 658 CURVE",
"58 658 LINE"
);
}
);
width = 362;
}
);
unicode = 0306;
},
{
glyphname = ringcomb;
lastChange = "2016-04-28 04:35:39 +0000";
layers = (
{
anchors = (
{
name = _top;
position = "{130, 410}";
},
{
name = top;
position = "{130, 623}";
}
);
layerId = "8E5E9D5F-1CFD-4F58-89B8-A9F3704C2D63";
paths = (
{
closed = 1;
nodes = (
"213 445 OFFCURVE",
"222 494 OFFCURVE",
"222 550 CURVE SMOOTH",
"222 608 OFFCURVE",
"213 653 OFFCURVE",
"130 653 CURVE SMOOTH",
"47 653 OFFCURVE",
"38 608 OFFCURVE",
"38 550 CURVE SMOOTH",
"38 494 OFFCURVE",
"47 445 OFFCURVE",
"130 445 CURVE SMOOTH"
);
},
{
closed = 1;
nodes = (
"93 488 OFFCURVE",
"93 499 OFFCURVE",
"93 548 CURVE SMOOTH",
"93 598 OFFCURVE",
"93 610 OFFCURVE",
"130 610 CURVE SMOOTH",
"169 610 OFFCURVE",
"169 598 OFFCURVE",
"169 548 CURVE SMOOTH",
"169 499 OFFCURVE",
"169 488 OFFCURVE",
"130 488 CURVE SMOOTH"
);
}
);
width = 600;
},
{
anchors = (
{
name = _top;
position = "{130, 420}";
},
{
name = top;
position = "{130, 623}";
}
);
layerId = "2009CD91-3BC4-40DB-AFF0-7394B85F3EFC";
paths = (
{
closed = 1;
nodes = (
"181 455 OFFCURVE",
"180 483 OFFCURVE",
"180 520 CURVE SMOOTH",
"180 559 OFFCURVE",
"181 583 OFFCURVE",
"130 583 CURVE SMOOTH",
"79 583 OFFCURVE",
"81 559 OFFCURVE",
"81 520 CURVE SMOOTH",
"81 483 OFFCURVE",
"79 455 OFFCURVE",
"130 455 CURVE SMOOTH"
);
},
{
closed = 1;
nodes = (
"94 467 OFFCURVE",
"94 482 OFFCURVE",
"94 518 CURVE SMOOTH",
"94 555 OFFCURVE",
"94 571 OFFCURVE",
"130 571 CURVE SMOOTH",
"167 571 OFFCURVE",
"167 555 OFFCURVE",
"167 518 CURVE SMOOTH",
"167 482 OFFCURVE",
"167 467 OFFCURVE",
"130 467 CURVE SMOOTH"
);
}
);
width = 600;
}
);
unicode = 030A;
},
{
glyphname = tildecomb;
lastChange = "2016-05-03 05:23:48 +0000";
layers = (
{
anchors = (
{
name = _top;
position = "{193, 411}";
},
{
name = top;
position = "{193, 597}";
}
);
layerId = "8E5E9D5F-1CFD-4F58-89B8-A9F3704C2D63";
paths = (
{
closed = 1;
nodes = (
"117 452 LINE",
"116 525 OFFCURVE",
"128 531 OFFCURVE",
"141 531 CURVE SMOOTH",
"179 531 OFFCURVE",
"166 452 OFFCURVE",
"245 452 CURVE SMOOTH",
"297 452 OFFCURVE",
"329 487 OFFCURVE",
"329 552 CURVE",
"328 606 LINE",
"270 606 LINE",
"270 554 LINE SMOOTH",
"270 532 OFFCURVE",
"256 526 OFFCURVE",
"245 526 CURVE SMOOTH",
"209 526 OFFCURVE",
"215 606 OFFCURVE",
"142 606 CURVE SMOOTH",
"91 606 OFFCURVE",
"57 568 OFFCURVE",
"57 505 CURVE",
"59 452 LINE"
);
}
);
width = 600;
},
{
anchors = (
{
name = _top;
position = "{191, 440}";
},
{
name = top;
position = "{191, 566}";
}
);
layerId = "2009CD91-3BC4-40DB-AFF0-7394B85F3EFC";
paths = (
{
closed = 1;
nodes = (
"107 472 LINE",
"107 533 OFFCURVE",
"113 553 OFFCURVE",
"141 553 CURVE SMOOTH",
"196 553 OFFCURVE",
"171 472 OFFCURVE",
"245 472 CURVE SMOOTH",
"276 472 OFFCURVE",
"293 486 OFFCURVE",
"293 529 CURVE",
"292 566 LINE",
"279 566 LINE",
"279 532 LINE SMOOTH",
"279 500 OFFCURVE",
"267 489 OFFCURVE",
"245 489 CURVE SMOOTH",
"187 489 OFFCURVE",
"211 566 OFFCURVE",
"142 566 CURVE SMOOTH",
"111 566 OFFCURVE",
"95 551 OFFCURVE",
"93 507 CURVE",
"94 472 LINE"
);
}
);
width = 314;
}
);
unicode = 0303;
},
{
color = 5;
glyphname = macroncomb;
lastChange = "2016-04-28 04:35:39 +0000";
layers = (
{
anchors = (
{
name = _top;
position = "{392, 450}";
},
{
name = top;
position = "{392, 617}";
}
);
layerId = "8E5E9D5F-1CFD-4F58-89B8-A9F3704C2D63";
paths = (
{
closed = 1;
nodes = (
"252 534 LINE",
"532 534 LINE",
"532 600 LINE",
"252 600 LINE"
);
}
);
width = 600;
},
{
anchors = (
{
name = _top;
position = "{383, 470}";
},
{
name = top;
position = "{383, 590}";
}
);
layerId = "2009CD91-3BC4-40DB-AFF0-7394B85F3EFC";
paths = (
{
closed = 1;
nodes = (
"252 524 LINE",
"532 524 LINE",
"532 545 LINE",
"252 545 LINE"
);
}
);
width = 600;
}
);
unicode = 0304;
},
{
glyphname = hookabovecomb;
lastChange = "2016-04-28 04:35:39 +0000";
layers = (
{
anchors = (
{
name = _top;
position = "{145, 310}";
},
{
name = top;
position = "{145, 590}";
}
);
layerId = "8E5E9D5F-1CFD-4F58-89B8-A9F3704C2D63";
paths = (
{
closed = 1;
nodes = (
"149 356 LINE",
"146 408 OFFCURVE",
"209 439 OFFCURVE",
"210 484 CURVE SMOOTH",
"211 532 OFFCURVE",
"185 566 OFFCURVE",
"140 566 CURVE SMOOTH",
"117 566 OFFCURVE",
"96 555 OFFCURVE",
"81 537 CURVE SMOOTH",
"57 508 OFFCURVE",
"75 492 OFFCURVE",
"82 487 CURVE SMOOTH",
"84 485 OFFCURVE",
"93 515 OFFCURVE",
"121 515 CURVE SMOOTH",
"139 515 OFFCURVE",
"147 502 OFFCURVE",
"147 480 CURVE SMOOTH",
"147 425 OFFCURVE",
"110 446 OFFCURVE",
"110 356 CURVE"
);
}
);
width = 290;
},
{
layerId = "2009CD91-3BC4-40DB-AFF0-7394B85F3EFC";
width = 600;
}
);
unicode = 0309;
},
{
color = 5;
glyphname = commaabovecomb;
lastChange = "2016-04-28 04:35:39 +0000";
layers = (
{
anchors = (
{
name = _top;
position = "{105, 450}";
},
{
name = top;
position = "{85, 686}";
}
);
layerId = "8E5E9D5F-1CFD-4F58-89B8-A9F3704C2D63";
paths = (
{
closed = 1;
nodes = (
"99 494 LINE",
"99 494 OFFCURVE",
"163 592 OFFCURVE",
"175 686 CURVE",
"67 676 LINE SMOOTH",
"77 677 OFFCURVE",
"28 485 OFFCURVE",
"35 486 CURVE SMOOTH"
);
}
);
width = 169;
},
{
anchors = (
{
name = _top;
position = "{105, 450}";
},
{
name = top;
position = "{85, 686}";
}
);
layerId = "2009CD91-3BC4-40DB-AFF0-7394B85F3EFC";
paths = (
{
closed = 1;
nodes = (
"90.077 508.001 LINE",
"102.519 528.294 OFFCURVE",
"142.987 598.103 OFFCURVE",
"157.073 669.276 CURVE",
"81.4 662.269 LINE",
"83.766 609.848 OFFCURVE",
"53.138 503.743 OFFCURVE",
"32.879 500.849 CURVE"
);
}
);
width = 169;
}
);
unicode = 0313;
},
{
color = 5;
glyphname = commaaboverightcomb;
lastChange = "2016-04-28 04:35:39 +0000";
layers = (
{
anchors = (
{
name = _top;
position = "{-5, 450}";
},
{
name = top;
position = "{-5, 756}";
}
);
layerId = "8E5E9D5F-1CFD-4F58-89B8-A9F3704C2D63";
paths = (
{
closed = 1;
nodes = (
"89 514 LINE",
"89 514 OFFCURVE",
"153 612 OFFCURVE",
"165 706 CURVE",
"87 696 LINE",
"87 648 OFFCURVE",
"48 504 OFFCURVE",
"55 506 CURVE SMOOTH"
);
}
);
width = 189;
},
{
anchors = (
{
name = _top;
position = "{-5, 450}";
},
{
name = top;
position = "{-5, 756}";
}
);
layerId = "2009CD91-3BC4-40DB-AFF0-7394B85F3EFC";
paths = (
{
closed = 1;
nodes = (
"85.881 518.403 LINE",
"94.081 531.361 OFFCURVE",
"146.393 616.541 OFFCURVE",
"159.14 700.208 CURVE",
"91.856 691.582 LINE",
"89.683 653.282 OFFCURVE",
"63.515 513.633 OFFCURVE",
"53.626 510.808 CURVE"
);
}
);
width = 189;
}
);
unicode = 0315;
},
{
color = 5;
glyphname = horncomb;
lastChange = "2016-04-28 04:35:39 +0000";
layers = (
{
anchors = (
{
name = _topright;
position = "{0, 506}";
},
{
name = topright;
position = "{0, 480}";
}
);
layerId = "8E5E9D5F-1CFD-4F58-89B8-A9F3704C2D63";
paths = (
{
closed = 1;
nodes = (
"0 506 LINE",
"109 505 OFFCURVE",
"170 556 OFFCURVE",
"168 678 CURVE",
"80 678 LINE",
"81 631 OFFCURVE",
"81 576 OFFCURVE",
"0 576 CURVE"
);
}
);
width = 168;
},
{
anchors = (
{
name = _topright;
position = "{0, 520}";
},
{
name = topright;
position = "{0, 500}";
}
);
layerId = "2009CD91-3BC4-40DB-AFF0-7394B85F3EFC";
paths = (
{
closed = 1;
nodes = (
"0 521 LINE",
"75 527 OFFCURVE",
"124 580 OFFCURVE",
"128 663 CURVE",
"70 663 LINE",
"66 613 OFFCURVE",
"40 579 OFFCURVE",
"0 572 CURVE"
);
}
);
width = 128;
}
);
unicode = 031B;
},
{
color = 5;
glyphname = cedillacomb;
lastChange = "2016-04-28 04:35:39 +0000";
layers = (
{
anchors = (
{
name = _bottom;
position = "{83, -11}";
},
{
name = bottom;
position = "{83, -225}";
}
);
layerId = "8E5E9D5F-1CFD-4F58-89B8-A9F3704C2D63";
paths = (
{
closed = 1;
nodes = (
"107 -168 OFFCURVE",
"154 -141 OFFCURVE",
"160 -111 CURVE SMOOTH",
"171 -52 OFFCURVE",
"132 -48 OFFCURVE",
"123 -45 CURVE",
"127 -5 LINE",
"63 2 LINE",
"54 -66 LINE",
"74 -69 OFFCURVE",
"100 -64 OFFCURVE",
"96 -100 CURVE SMOOTH",
"93 -120 OFFCURVE",
"83 -127 OFFCURVE",
"49 -124 CURVE",
"43 -161 LINE",
"67 -165 LINE"
);
}
);
width = 600;
},
{
anchors = (
{
name = _bottom;
position = "{83, -11}";
},
{
name = bottom;
position = "{83, -225}";
}
);
layerId = "2009CD91-3BC4-40DB-AFF0-7394B85F3EFC";
paths = (
{
closed = 1;
nodes = (
"102 -159 OFFCURVE",
"139 -135 OFFCURVE",
"143.122 -109.52 CURVE SMOOTH",
"152 -60 OFFCURVE",
"120 -53 OFFCURVE",
"111 -49 CURVE",
"114.171 -12.841 LINE",
"76.011 -8.071 LINE",
"70.879 -57.921 LINE",
"87.089 -58.897 OFFCURVE",
"109.351 -60.158 OFFCURVE",
"105.969 -100.747 CURVE SMOOTH",
"102 -126 OFFCURVE",
"89 -134 OFFCURVE",
"63.79 -133.562 CURVE",
"61.061 -153.755 LINE",
"73.684 -156.159 LINE"
);
}
);
width = 600;
}
);
unicode = 0327;
},
{
color = 5;
glyphname = ogonekcomb;
lastChange = "2016-04-28 04:35:39 +0000";
layers = (
{
anchors = (
{
name = _ogonek;
position = "{162, 115}";
}
);
layerId = "8E5E9D5F-1CFD-4F58-89B8-A9F3704C2D63";
paths = (
{
closed = 1;
nodes = (
"-74 -30 OFFCURVE",
"29 -187 OFFCURVE",
"168 -102 CURVE",
"166 -51 LINE",
"87 -102 OFFCURVE",
"34 -26 OFFCURVE",
"168 115 CURVE",
"124 115 LINE"
);
}
);
width = 600;
},
{
anchors = (
{
name = _ogonek;
position = "{162, 115}";
}
);
layerId = "2009CD91-3BC4-40DB-AFF0-7394B85F3EFC";
paths = (
{
closed = 1;
nodes = (
"-78 0 OFFCURVE",
"34 -168 OFFCURVE",
"168 -102 CURVE",
"166 -51 LINE",
"87 -102 OFFCURVE",
"-6 0 OFFCURVE",
"168 115 CURVE",
"100 115 LINE"
);
}
);
width = 600;
}
);
unicode = 0328;
},
{
color = 5;
glyphname = strokeshortcomb;
lastChange = "2016-04-28 04:35:39 +0000";
layers = (
{
anchors = (
{
name = _center;
position = "{98, 355}";
}
);
layerId = "8E5E9D5F-1CFD-4F58-89B8-A9F3704C2D63";
paths = (
{
closed = 1;
nodes = (
"-38 317 LINE",
"194 317 LINE",
"194 392 LINE",
"-38 392 LINE"
);
}
);
width = 230;
},
{
anchors = (
{
name = _center;
position = "{98, 355}";
}
);
layerId = "2009CD91-3BC4-40DB-AFF0-7394B85F3EFC";
paths = (
{
closed = 1;
nodes = (
"11 326 LINE",
"185 326 LINE",
"185 383 LINE",
"11 383 LINE"
);
}
);
width = 230;
}
);
unicode = 0335;
},
{
color = 5;
glyphname = slashlongcomb;
lastChange = "2016-04-28 04:35:39 +0000";
layers = (
{
anchors = (
{
name = _center;
position = "{130, 225}";
}
);
layerId = "8E5E9D5F-1CFD-4F58-89B8-A9F3704C2D63";
paths = (
{
closed = 1;
nodes = (
"-25 -50 LINE",
"54 -50 LINE",
"284 500 LINE",
"205 500 LINE"
);
}
);
width = 358;
},
{
anchors = (
{
name = _center;
position = "{130, 225}";
}
);
layerId = "2009CD91-3BC4-40DB-AFF0-7394B85F3EFC";
paths = (
{
closed = 1;
nodes = (
"-11.481 -41 LINE",
"48.008 -41 LINE",
"270.481 491 LINE",
"210.992 491 LINE"
);
}
);
width = 358;
}
);
unicode = 0338;
},
{
color = 5;
glyphname = circumflexcomb.case;
lastChange = "2016-04-28 04:35:39 +0000";
layers = (
{
anchors = (
{
name = _top;
position = "{181, 410}";
},
{
name = top;
position = "{181, 580}";
}
);
layerId = "8E5E9D5F-1CFD-4F58-89B8-A9F3704C2D63";
paths = (
{
closed = 1;
nodes = (
"233 474 LINE",
"338 474 LINE",
"223 596 LINE",
"139 596 LINE"
);
},
{
closed = 1;
nodes = (
"24 474 LINE",
"129 474 LINE",
"223 596 LINE",
"139 596 LINE"
);
}
);
width = 600;
},
{
anchors = (
{
name = _top;
position = "{196, 430}";
},
{
name = top;
position = "{196, 626}";
}
);
layerId = "2009CD91-3BC4-40DB-AFF0-7394B85F3EFC";
paths = (
{
closed = 1;
nodes = (
"289 464 LINE",
"320 464 LINE",
"217 636 LINE",
"187 636 LINE"
);
},
{
closed = 1;
nodes = (
"72 464 LINE",
"103 464 LINE",
"205 636 LINE",
"175 636 LINE"
);
}
);
width = 600;
}
);
},
{
color = 5;
glyphname = acutecomb.loclPLK;
lastChange = "2016-04-28 04:35:39 +0000";
layers = (
{
anchors = (
{
name = _top;
position = "{87, 450}";
},
{
name = top;
position = "{111, 700}";
}
);
background = {
paths = (
{
closed = 1;
nodes = (
"60 506 LINE",
"60 506 OFFCURVE",
"165 559 OFFCURVE",
"222 635 CURVE",
"123 680 LINE",
"132 675 OFFCURVE",
"-6 534 OFFCURVE",
"1 531 CURVE SMOOTH"
);
}
);
};
layerId = "8E5E9D5F-1CFD-4F58-89B8-A9F3704C2D63";
paths = (
{
closed = 1;
nodes = (
"84 495 LINE",
"84 495 OFFCURVE",
"172 573 OFFCURVE",
"207 662 CURVE",
"110 681 LINE",
"119 677 OFFCURVE",
"23 506 OFFCURVE",
"30 505 CURVE SMOOTH"
);
}
);
width = 538;
},
{
anchors = (
{
name = _top;
position = "{81, 450}";
},
{
name = top;
position = "{111, 600}";
}
);
layerId = "2009CD91-3BC4-40DB-AFF0-7394B85F3EFC";
paths = (
{
closed = 1;
nodes = (
"81 478 LINE",
"96 492 OFFCURVE",
"150 555 OFFCURVE",
"182 626 CURVE",
"106 641 LINE",
"95 593 OFFCURVE",
"44 484 OFFCURVE",
"32 486 CURVE"
);
}
);
width = 538;
}
);
},
{
color = 5;
glyphname = dieresiscomb.narrow;
lastChange = "2016-04-28 04:35:39 +0000";
layers = (
{
anchors = (
{
name = _top;
position = "{172, 440}";
},
{
name = top;
position = "{172, 577}";
}
);
layerId = "8E5E9D5F-1CFD-4F58-89B8-A9F3704C2D63";
paths = (
{
closed = 1;
nodes = (
"74 491 LINE",
"161 491 LINE",
"161 577 LINE",
"74 577 LINE"
);
},
{
closed = 1;
nodes = (
"182 491 LINE",
"270 491 LINE",
"270 577 LINE",
"182 577 LINE"
);
}
);
width = 576;
},
{
anchors = (
{
name = _top;
position = "{173, 436}";
},
{
name = top;
position = "{173, 550}";
}
);
layerId = "2009CD91-3BC4-40DB-AFF0-7394B85F3EFC";
paths = (
{
closed = 1;
nodes = (
"91 485 LINE",
"156 485 LINE",
"156 548 LINE",
"91 548 LINE"
);
},
{
closed = 1;
nodes = (
"190 485 LINE",
"255 485 LINE",
"255 548 LINE",
"190 548 LINE"
);
}
);
width = 588;
}
);
},
{
color = 5;
glyphname = acutecomb.narrow;
lastChange = "2016-04-28 04:35:39 +0000";
layers = (
{
anchors = (
{
name = _top;
position = "{112, 450}";
},
{
name = top;
position = "{112, 681}";
}
);
background = {
paths = (
{
closed = 1;
nodes = (
"60 506 LINE",
"60 506 OFFCURVE",
"165 559 OFFCURVE",
"222 635 CURVE",
"123 680 LINE",
"132 675 OFFCURVE",
"-6 534 OFFCURVE",
"1 531 CURVE SMOOTH"
);
}
);
};
layerId = "8E5E9D5F-1CFD-4F58-89B8-A9F3704C2D63";
paths = (
{
closed = 1;
nodes = (
"73 502 LINE",
"73 502 OFFCURVE",
"153 563 OFFCURVE",
"198 644 CURVE",
"114 681 LINE",
"123 676 OFFCURVE",
"20 526 OFFCURVE",
"27 523 CURVE SMOOTH"
);
}
);
width = 538;
},
{
anchors = (
{
name = _top;
position = "{107, 430}";
},
{
name = top;
position = "{107, 640}";
}
);
layerId = "2009CD91-3BC4-40DB-AFF0-7394B85F3EFC";
paths = (
{
closed = 1;
nodes = (
"64 484 LINE",
"80 497 OFFCURVE",
"133 552 OFFCURVE",
"172 620 CURVE",
"142 640 LINE",
"128 594 OFFCURVE",
"57 490 OFFCURVE",
"46 493 CURVE"
);
}
);
width = 538;
}
);
},
{
color = 5;
glyphname = circumflexcomb.narrow;
lastChange = "2016-04-28 04:35:39 +0000";
layers = (
{
anchors = (
{
name = _top;
position = "{181, 440}";
},
{
name = top;
position = "{181, 650}";
}
);
layerId = "8E5E9D5F-1CFD-4F58-89B8-A9F3704C2D63";
paths = (
{
closed = 1;
nodes = (
"223 516 LINE",
"298 516 LINE",
"218 688 LINE",
"144 688 LINE"
);
},
{
closed = 1;
nodes = (
"64 516 LINE",
"139 516 LINE",
"218 688 LINE",
"144 688 LINE"
);
}
);
width = 600;
},
{
anchors = (
{
name = _top;
position = "{181, 440}";
},
{
name = top;
position = "{181, 610}";
}
);
layerId = "2009CD91-3BC4-40DB-AFF0-7394B85F3EFC";
paths = (
{
closed = 1;
nodes = (
"229 464 LINE",
"270 464 LINE",
"205 646 LINE",
"157 646 LINE"
);
},
{
closed = 1;
nodes = (
"92 464 LINE",
"133 464 LINE",
"205 646 LINE",
"157 646 LINE"
);
}
);
width = 600;
}
);
},
{
color = 5;
glyphname = macroncomb.narrow;
lastChange = "2016-04-28 04:35:39 +0000";
layers = (
{
anchors = (
{
name = _top;
position = "{392, 450}";
},
{
name = top;
position = "{392, 617}";
}
);
layerId = "8E5E9D5F-1CFD-4F58-89B8-A9F3704C2D63";
paths = (
{
closed = 1;
nodes = (
"292 534 LINE",
"492 534 LINE",
"492 620 LINE",
"292 620 LINE"
);
}
);
width = 600;
},
{
anchors = (
{
name = _top;
position = "{392, 450}";
},
{
name = top;
position = "{392, 590}";
}
);
layerId = "2009CD91-3BC4-40DB-AFF0-7394B85F3EFC";
paths = (
{
closed = 1;
nodes = (
"322 524 LINE",
"462 524 LINE",
"462 590 LINE",
"322 590 LINE"
);
}
);
width = 600;
}
);
},
{
color = 5;
glyphname = gravecomb.viet;
lastChange = "2016-04-28 04:35:39 +0000";
layers = (
{
anchors = (
{
name = _top;
position = "{-3, 566}";
},
{
name = top;
position = "{172, 700}";
}
);
components = (
{
name = gravecomb.vietsmall;
transform = "{1, 0, 0, 1, 0, 35}";
}
);
layerId = "8E5E9D5F-1CFD-4F58-89B8-A9F3704C2D63";
width = 600;
},
{
anchors = (
{
name = _top;
position = "{172, 450}";
},
{
name = top;
position = "{172, 660}";
}
);
layerId = "2009CD91-3BC4-40DB-AFF0-7394B85F3EFC";
paths = (
{
closed = 1;
nodes = (
"128 541 OFFCURVE",
"206 497 OFFCURVE",
"224 487 CURVE",
"279 510 LINE",
"268 505 OFFCURVE",
"180 595 OFFCURVE",
"158 638 CURVE",
"78 601 LINE"
);
}
);
width = 600;
}
);
},
{
color = 5;
glyphname = acutecomb.vietoff;
lastChange = "2016-04-28 04:35:39 +0000";
layers = (
{
anchors = (
{
name = _top;
position = "{-88, 579}";
},
{
name = top;
position = "{111, 666}";
}
);
background = {
paths = (
{
closed = 1;
nodes = (
"60 506 LINE",
"60 506 OFFCURVE",
"165 559 OFFCURVE",
"222 635 CURVE",
"123 680 LINE",
"132 675 OFFCURVE",
"-6 534 OFFCURVE",
"1 531 CURVE SMOOTH"
);
}
);
};
components = (
{
name = acutecomb;
transform = "{0.62, 0, 0, 0.62, 15, 233}";
}
);
layerId = "8E5E9D5F-1CFD-4F58-89B8-A9F3704C2D63";
width = 538;
},
{
anchors = (
{
name = _top;
position = "{111, 450}";
},
{
name = top;
position = "{111, 600}";
}
);
layerId = "2009CD91-3BC4-40DB-AFF0-7394B85F3EFC";
paths = (
{
closed = 1;
nodes = (
"60 487 LINE",
"78 497 OFFCURVE",
"156 541 OFFCURVE",
"206 601 CURVE",
"126 638 LINE",
"104 595 OFFCURVE",
"16 505 OFFCURVE",
"5 510 CURVE"
);
}
);
width = 538;
}
);
},
{
color = 5;
glyphname = gravecomb.vietsmall;
lastChange = "2016-04-28 04:35:39 +0000";
layers = (
{
anchors = (
{
name = _top;
position = "{172, 450}";
},
{
name = top;
position = "{172, 700}";
}
);
components = (
{
name = gravecomb;
transform = "{0.62, 0, 0, 0.62, 36, 190}";
}
);
layerId = "8E5E9D5F-1CFD-4F58-89B8-A9F3704C2D63";
width = 600;
},
{
anchors = (
{
name = _top;
position = "{172, 450}";
},
{
name = top;
position = "{172, 660}";
}
);
layerId = "2009CD91-3BC4-40DB-AFF0-7394B85F3EFC";
paths = (
{
closed = 1;
nodes = (
"128 541 OFFCURVE",
"206 497 OFFCURVE",
"224 487 CURVE",
"279 510 LINE",
"268 505 OFFCURVE",
"180 595 OFFCURVE",
"158 638 CURVE",
"78 601 LINE"
);
}
);
width = 600;
}
);
},
